<?xml version="1.0" encoding="utf-8"?>
<!-- Generator: Adobe Illustrator 24.0.1, SVG Export Plug-In . SVG Version: 6.00 Build 0)  -->
<svg version="1.1" id="Layer_1" xmlns="http://www.w3.org/2000/svg" xmlns:xlink="http://www.w3.org/1999/xlink" x="0px" y="0px"
	 viewBox="0 0 52 52" style="enable-background:new 0 0 52 52;" xml:space="preserve">
<style type="text/css">
	.st0{fill:#E9B8AA;}
</style>
<g>
	<polygon class="st0" points="34,19.3 31.3,19.3 31.3,22.6 28.1,22.6 28.1,25.3 31.3,25.3 31.3,28.5 34,28.5 34,25.3 37.3,25.3 
		37.3,22.6 34,22.6 	"/>
	<path class="st0" d="M23.8,26.3c1.6-0.1,2.8-1.5,2.8-3.1c0-1.7-1.4-3.1-3.1-3.1s-3.1,1.4-3.1,3.1c0,1.6,1.3,3,2.9,3.1
		c-2.7,0.1-4.9,2.4-4.9,5.1h10.3C28.8,28.7,26.6,26.5,23.8,26.3z"/>
	<path class="st0" d="M26,1C12.2,1,1,12.2,1,26s11.2,25,25,25s25-11.2,25-25S39.8,1,26,1z M26,40.1c-7.8,0-14.1-6.3-14.1-14.1
		S18.2,11.9,26,11.9S40.1,18.2,40.1,26S33.8,40.1,26,40.1z"/>
</g>
</svg>
