<?xml version="1.0" encoding="UTF-8" standalone="no"?>
<!-- Generator: Adobe Illustrator 17.0.0, SVG Export Plug-In . SVG Version: 6.00 Build 0)  -->
<!DOCTYPE svg  PUBLIC '-//W3C//DTD SVG 1.1//EN'  'http://www.w3.org/Graphics/SVG/1.1/DTD/svg11.dtd'>
<svg id="Layer_1" xmlns="http://www.w3.org/2000/svg" xml:space="preserve" height="16.5px" viewBox="0 0 12 16.5" width="12px" version="1.1" y="0px" x="0px" xmlns:xlink="http://www.w3.org/1999/xlink" enable-background="new 0 0 12 16.5">
	<defs>
		<rect id="SVGID_1_" width="12" height="16.573"/>
	</defs>
	<clipPath id="SVGID_2_">
		<use overflow="visible" xlink:href="#SVGID_1_"/>
	</clipPath>
	<path fill="#66C0E2" d="m6.088 3.044c0 1.681-1.363 3.044-3.044 3.044s-3.044-1.362-3.044-3.044 1.363-3.044 3.044-3.044c1.681 0 3.044 1.363 3.044 3.044" clip-path="url(#SVGID_2_)"/>
	<path fill="#fff" d="m12 12.61c-0.602 2.282-2.68 3.964-5.151 3.964-2.525 0-4.64-1.757-5.188-4.116v-9.414c0-1.86 2.821-2.029 2.821 0 0 2.537 0.029 3.892 0.085 6.035-0.056-2.143 2.264-2.145 2.264 0 0-2.145 2.64-2.251 2.64 0 0-2.23 2.53-2.128 2.53 0v3.531z" clip-path="url(#SVGID_2_)"/>
</svg>
