<?xml version="1.0" encoding="utf-8"?>
<!-- Generator: Adobe Illustrator 21.0.2, SVG Export Plug-In . SVG Version: 6.00 Build 0)  -->
<svg version="1.1" id="Layer_1" xmlns="http://www.w3.org/2000/svg" xmlns:xlink="http://www.w3.org/1999/xlink" x="0px" y="0px"
	 viewBox="0 0 52 52" style="enable-background:new 0 0 52 52;" xml:space="preserve">
<style type="text/css">
	.st0{fill:#BDBEBF;}
</style>
<path class="st0" d="M26,1C12.2,1,1,12.2,1,26s11.2,25,25,25s25-11.2,25-25S39.8,1,26,1z M32.7,26.3c-0.1,3.2-1.1,9-7,13.7
	C25.5,40,25.3,40,25.2,40c-0.1-0.1-0.3-0.2-0.3-0.2l-3.5-3.9c-0.1-0.1-0.2-0.3-0.2-0.5c0-0.2,0.1-0.4,0.3-0.5c0,0,1.8-1.6,2.8-3
	c0.8-1.3,1.3-2.6,1.3-3.9h-5c-0.7,0-1.3-0.6-1.3-1.3V15.9c0-0.7,0.6-1.3,1.3-1.3h10.9c0.7,0,1.3,0.6,1.3,1.3
	C32.7,15.9,32.7,26.3,32.7,26.3z"/>
</svg>
