<?xml version="1.0" encoding="utf-8"?>
<!-- Generator: Adobe Illustrator 17.0.0, SVG Export Plug-In . SVG Version: 6.00 Build 0)  -->
<!DOCTYPE svg PUBLIC "-//W3C//DTD SVG 1.1//EN" "http://www.w3.org/Graphics/SVG/1.1/DTD/svg11.dtd">
<svg version="1.1" id="Layer_1" xmlns="http://www.w3.org/2000/svg" xmlns:xlink="http://www.w3.org/1999/xlink" x="0px" y="0px"
	 width="24px" height="33px" viewBox="0 0 24 33" enable-background="new 0 0 24 33" xml:space="preserve">
<g>
	<defs>
		<rect id="SVGID_1_" x="0.053" width="23.894" height="33"/>
	</defs>
	<clipPath id="SVGID_2_">
		<use xlink:href="#SVGID_1_"  overflow="visible"/>
	</clipPath>
	<path clip-path="url(#SVGID_2_)" fill="#66C0E2" d="M12.175,6.061c0,3.348-2.714,6.061-6.061,6.061
		c-3.348,0-6.061-2.713-6.061-6.061S2.766,0,6.114,0C9.461,0,12.175,2.713,12.175,6.061"/>
	<path clip-path="url(#SVGID_2_)" fill="#FFFFFF" d="M23.947,25.108C22.748,29.651,18.61,33,13.69,33
		c-5.028,0-9.24-3.499-10.331-8.195V6.061c0-3.704,5.617-4.04,5.617,0c0,5.052,0.058,7.749,0.169,12.017
		c-0.111-4.268,4.508-4.272,4.508,0c0-4.272,5.257-4.483,5.257,0c0-4.44,5.037-4.237,5.037,0V25.108z"/>
</g>
</svg>
