<?xml version="1.0" encoding="UTF-8" standalone="no"?>
<!-- Generator: Adobe Illustrator 21.0.2, SVG Export Plug-In . SVG Version: 6.00 Build 0)  -->

<svg
   xmlns:dc="http://purl.org/dc/elements/1.1/"
   xmlns:cc="http://creativecommons.org/ns#"
   xmlns:rdf="http://www.w3.org/1999/02/22-rdf-syntax-ns#"
   xmlns:svg="http://www.w3.org/2000/svg"
   xmlns="http://www.w3.org/2000/svg"
   xmlns:sodipodi="http://sodipodi.sourceforge.net/DTD/sodipodi-0.dtd"
   xmlns:inkscape="http://www.inkscape.org/namespaces/inkscape"
   version="1.1"
   id="Layer_1"
   x="0px"
   y="0px"
   viewBox="0 0 80 80"
   xml:space="preserve"
   sodipodi:docname="icon-instagram.svg"
   width="80"
   height="80"
   inkscape:version="0.92.3 (2405546, 2018-03-11)"><metadata
   id="metadata41"><rdf:RDF><cc:Work
       rdf:about=""><dc:format>image/svg+xml</dc:format><dc:type
         rdf:resource="http://purl.org/dc/dcmitype/StillImage" /><dc:title></dc:title></cc:Work></rdf:RDF></metadata><defs
   id="defs39" /><sodipodi:namedview
   pagecolor="#ffffff"
   bordercolor="#666666"
   borderopacity="1"
   objecttolerance="10"
   gridtolerance="10"
   guidetolerance="10"
   inkscape:pageopacity="0"
   inkscape:pageshadow="2"
   inkscape:window-width="640"
   inkscape:window-height="480"
   id="namedview37"
   showgrid="false"
   fit-margin-top="2"
   fit-margin-right="2"
   fit-margin-left="2"
   fit-margin-bottom="2"
   inkscape:zoom="2.36"
   inkscape:cx="39.9"
   inkscape:cy="40.8"
   inkscape:window-x="0"
   inkscape:window-y="0"
   inkscape:window-maximized="0"
   inkscape:current-layer="Layer_1" />
<style
   type="text/css"
   id="style25">
	.st0{fill:#ECDED8;}
</style>
<g
   id="Instagram_5_"
   transform="translate(-10.1,-10.8)">
	<path
   class="st0"
   d="m 44.1,50.7 c 0,-3.9 3.2,-7 7,-7 3.9,0 7.1,3.1 7.1,7 0,3.9 -3.2,7 -7.1,7 -3.9,0.1 -7,-3.1 -7,-7 z"
   id="path27"
   inkscape:connector-curvature="0"
   style="fill:#ecded8" />
	<path
   class="st0"
   d="m 64.6,41.5 c 0,0.6 -0.5,1.2 -1.2,1.2 h -3.7 c -0.6,0 -1.2,-0.5 -1.2,-1.2 v -3.7 c 0,-0.6 0.5,-1.2 1.2,-1.2 h 3.7 c 0.6,0 1.2,0.5 1.2,1.2 z"
   id="path29"
   inkscape:connector-curvature="0"
   style="fill:#ecded8" />
	<path
   class="st0"
   d="m 61.4,47.7 h 4.2 v 16.7 c 0,0.6 -0.1,1.3 -0.8,1.3 H 37.3 c -0.6,0 -0.7,-0.6 -0.7,-1.3 V 47.7 h 4.2 c -0.6,0 -0.8,2.2 -0.8,3.3 0,6.1 5,11 11.2,11 6.2,0 11.2,-4.8 11.2,-11 -0.1,-1 -0.3,-3.3 -1,-3.3 z"
   id="path31"
   inkscape:connector-curvature="0"
   style="fill:#ecded8" />
	<path
   class="st0"
   d="m 50.1,12.8 c -21,0 -38,17 -38,38 0,21 17,38 38,38 21,0 38,-17 38,-38 0,-21 -17,-38 -38,-38 z m 19.5,51.9 c 0,2.4 -2.1,4 -4.5,4 h -28 c -2.4,0 -4.5,-1.6 -4.5,-4 v -28 c 0,-2.4 2.1,-4 4.5,-4 h 28 c 2.4,0 4.5,1.6 4.5,4 z"
   id="path33"
   inkscape:connector-curvature="0"
   style="fill:#ecded8" />
</g>
</svg>