<?xml version="1.0" encoding="utf-8"?>
<!-- Generator: Adobe Illustrator 21.0.2, SVG Export Plug-In . SVG Version: 6.00 Build 0)  -->
<svg version="1.1" id="Layer_1" xmlns="http://www.w3.org/2000/svg" xmlns:xlink="http://www.w3.org/1999/xlink" x="0px" y="0px"
	 viewBox="0 0 52 52" style="enable-background:new 0 0 52 52;" xml:space="preserve">
<style type="text/css">
	.st0{fill:#BDBEBF;}
</style>
<path class="st0" d="M26,1C12.2,1,1,12.2,1,26s11.2,25,25,25s25-11.2,25-25S39.8,1,26,1z M17.4,38c-1.9,0-3.4-1.5-3.4-3.4
	s1.5-3.4,3.4-3.4s3.4,1.5,3.4,3.4C20.8,36.5,19.3,38,17.4,38z M25.4,38c0-6.3-5.1-11.5-11.5-11.5v-4.6c8.9,0,16.1,7.2,16.1,16.1
	L25.4,38L25.4,38z M33.4,38c0-10.7-8.8-19.5-19.5-19.5V14c13.3,0,24.1,10.8,24.1,24.1L33.4,38L33.4,38z"/>
</svg>
