<?xml version="1.0" encoding="UTF-8" standalone="no"?>
<!-- Generator: Adobe Illustrator 21.0.2, SVG Export Plug-In . SVG Version: 6.00 Build 0)  -->

<svg
   xmlns:dc="http://purl.org/dc/elements/1.1/"
   xmlns:cc="http://creativecommons.org/ns#"
   xmlns:rdf="http://www.w3.org/1999/02/22-rdf-syntax-ns#"
   xmlns:svg="http://www.w3.org/2000/svg"
   xmlns="http://www.w3.org/2000/svg"
   xmlns:sodipodi="http://sodipodi.sourceforge.net/DTD/sodipodi-0.dtd"
   xmlns:inkscape="http://www.inkscape.org/namespaces/inkscape"
   version="1.1"
   id="Layer_1"
   x="0px"
   y="0px"
   viewBox="0 0 80 80"
   xml:space="preserve"
   sodipodi:docname="icon-facebook.svg"
   width="80"
   height="80"
   inkscape:version="0.92.3 (2405546, 2018-03-11)"><metadata
   id="metadata23"><rdf:RDF><cc:Work
       rdf:about=""><dc:format>image/svg+xml</dc:format><dc:type
         rdf:resource="http://purl.org/dc/dcmitype/StillImage" /><dc:title></dc:title></cc:Work></rdf:RDF></metadata><defs
   id="defs21" /><sodipodi:namedview
   pagecolor="#ffffff"
   bordercolor="#666666"
   borderopacity="1"
   objecttolerance="10"
   gridtolerance="10"
   guidetolerance="10"
   inkscape:pageopacity="0"
   inkscape:pageshadow="2"
   inkscape:window-width="640"
   inkscape:window-height="480"
   id="namedview19"
   showgrid="false"
   fit-margin-top="2"
   fit-margin-left="2"
   fit-margin-bottom="2"
   fit-margin-right="2"
   inkscape:zoom="2.36"
   inkscape:cx="40"
   inkscape:cy="40"
   inkscape:window-x="0"
   inkscape:window-y="0"
   inkscape:window-maximized="0"
   inkscape:current-layer="Layer_1" />
<style
   type="text/css"
   id="style13">
	.st0{fill:#C2D1CF;}
</style>
<g
   id="Facebook_4_"
   transform="translate(-10,-10)">
	<path
   class="st0"
   d="M 50,12 C 29,12 12,29 12,50 12,71 29,88 50,88 71,88 88,71 88,50 88,29 71,12 50,12 Z m 18.5,54.1 c 0,1.1 -0.5,2.3 -1.7,2.3 h -9.3 v -14 h 4.8 l 0.7,-6 h -5.5 v -3.6 c 0,-1.6 0.4,-2.4 2.7,-2.4 h 3.3 v -5.2 c -1,-0.1 -2.6,-0.2 -4.6,-0.2 -4.2,0 -7.4,2.6 -7.4,7.3 v 4.1 h -5 v 6 h 5 v 14 H 34.2 c -1.1,0 -1.7,-1.2 -1.7,-2.3 V 33.4 c 0,-1.1 0.6,-2 1.7,-2 h 32.7 c 1.1,0 1.7,0.9 1.7,2 v 32.7 z"
   id="path15"
   inkscape:connector-curvature="0"
   style="fill:#c2d1cf" />
</g>
</svg>