<?xml version="1.0" encoding="UTF-8" standalone="no"?>
<!-- Generator: Adobe Illustrator 21.0.2, SVG Export Plug-In . SVG Version: 6.00 Build 0)  -->

<svg
   xmlns:dc="http://purl.org/dc/elements/1.1/"
   xmlns:cc="http://creativecommons.org/ns#"
   xmlns:rdf="http://www.w3.org/1999/02/22-rdf-syntax-ns#"
   xmlns:svg="http://www.w3.org/2000/svg"
   xmlns="http://www.w3.org/2000/svg"
   xmlns:sodipodi="http://sodipodi.sourceforge.net/DTD/sodipodi-0.dtd"
   xmlns:inkscape="http://www.inkscape.org/namespaces/inkscape"
   version="1.1"
   id="Layer_1"
   x="0px"
   y="0px"
   viewBox="0 0 80 80"
   xml:space="preserve"
   sodipodi:docname="icon-naver.svg"
   width="80"
   height="80"
   inkscape:version="0.92.3 (2405546, 2018-03-11)"><metadata
   id="metadata17"><rdf:RDF><cc:Work
       rdf:about=""><dc:format>image/svg+xml</dc:format><dc:type
         rdf:resource="http://purl.org/dc/dcmitype/StillImage" /><dc:title></dc:title></cc:Work></rdf:RDF></metadata><defs
   id="defs15" /><sodipodi:namedview
   pagecolor="#ffffff"
   bordercolor="#666666"
   borderopacity="1"
   objecttolerance="10"
   gridtolerance="10"
   guidetolerance="10"
   inkscape:pageopacity="0"
   inkscape:pageshadow="2"
   inkscape:window-width="1116"
   inkscape:window-height="737"
   id="namedview13"
   showgrid="false"
   inkscape:zoom="2.36"
   inkscape:cx="40"
   inkscape:cy="41"
   inkscape:window-x="0"
   inkscape:window-y="0"
   inkscape:window-maximized="0"
   inkscape:current-layer="Layer_1"
   fit-margin-top="2"
   fit-margin-left="2"
   fit-margin-right="2"
   fit-margin-bottom="2" />
<style
   type="text/css"
   id="style2">
	.st0{fill:#D7E1C5;}
</style>
<g
   id="g10"
   transform="translate(-10,-11)">
	<path
   class="st0"
   d="m 46.9,51.4 c 2.3,-0.2 4,-2.1 4,-4.4 0,-2.4 -2,-4.4 -4.4,-4.4 -2.4,0 -4.4,2 -4.4,4.4 0,2.3 1.8,4.2 4.1,4.4 -3.9,0.2 -7,3.4 -7,7.3 h 14.7 c 0,-3.9 -3.1,-7.1 -7,-7.3 z"
   id="path4"
   inkscape:connector-curvature="0"
   style="fill:#d7e1c5" />
	<polygon
   class="st0"
   points="53,49.9 57.6,49.9 57.6,54.5 61.4,54.5 61.4,49.9 66.1,49.9 66.1,46 61.4,46 61.4,41.4 57.6,41.4 57.6,46 53,46 "
   id="polygon6"
   style="fill:#d7e1c5" />
	<path
   class="st0"
   d="M 50,13 C 29,13 12,30 12,51 12,72 29,89 50,89 71,89 88,72 88,51 88,30 71,13 50,13 Z m 0,57.9 c -11,0 -20,-9 -20,-20 0,-11 9,-20 20,-20 11,0 20,9 20,20 0,11 -9,20 -20,20 z"
   id="path8"
   inkscape:connector-curvature="0"
   style="fill:#d7e1c5" />
</g>
</svg>