<?xml version="1.0" encoding="UTF-8" standalone="no"?>
<!-- Generator: Adobe Illustrator 17.0.0, SVG Export Plug-In . SVG Version: 6.00 Build 0)  -->
<!DOCTYPE svg  PUBLIC '-//W3C//DTD SVG 1.1//EN'  'http://www.w3.org/Graphics/SVG/1.1/DTD/svg11.dtd'>
<svg id="Layer_1" xmlns="http://www.w3.org/2000/svg" xml:space="preserve" height="33px" viewBox="0 0 24 33" width="24px" version="1.1" y="0px" x="0px" xmlns:xlink="http://www.w3.org/1999/xlink" enable-background="new 0 0 24 33">
	<defs>
		<rect id="SVGID_1_" x=".053" height="33" width="23.894"/>
	</defs>
	<clipPath id="SVGID_2_">
		<use overflow="visible" xlink:href="#SVGID_1_"/>
	</clipPath>
	<path fill="#66C0E2" d="m12.175 6.061c0 3.348-2.714 6.061-6.061 6.061-3.348 0-6.061-2.713-6.061-6.061s2.713-6.061 6.061-6.061c3.347 0 6.061 2.713 6.061 6.061" clip-path="url(#SVGID_2_)"/>
	<path fill="#fff" d="m23.947 25.108c-1.199 4.543-5.337 7.892-10.257 7.892-5.028 0-9.24-3.499-10.331-8.195v-18.744c0-3.704 5.617-4.04 5.617 0 0 5.052 0.058 7.749 0.169 12.017-0.111-4.268 4.508-4.272 4.508 0 0-4.272 5.257-4.483 5.257 0 0-4.44 5.037-4.237 5.037 0v7.03z" clip-path="url(#SVGID_2_)"/>
</svg>
