<?xml version="1.0" encoding="utf-8"?>
<!-- Generator: Adobe Illustrator 21.0.2, SVG Export Plug-In . SVG Version: 6.00 Build 0)  -->
<svg version="1.1" id="Layer_1" xmlns="http://www.w3.org/2000/svg" xmlns:xlink="http://www.w3.org/1999/xlink" x="0px" y="0px"
	 viewBox="0 0 52 52" style="enable-background:new 0 0 52 52;" xml:space="preserve">
<style type="text/css">
	.st0{fill:#BDBEBF;}
</style>
<g id="Facebook_4_">
	<path class="st0" d="M26,1C12.2,1,1,12.2,1,26s11.2,25,25,25s25-11.2,25-25S39.8,1,26,1z M38.2,36.6c0,0.7-0.3,1.5-1.1,1.5h-6.1
		v-9.2h3.2l0.5-3.9h-3.6v-2.4c0-1.1,0.3-1.6,1.8-1.6h2.2v-3.4c-0.7-0.1-1.7-0.1-3-0.1c-2.8,0-4.9,1.7-4.9,4.8v2.7h-3.3v3.9H27v9.2
		H15.6c-0.7,0-1.1-0.8-1.1-1.5V15.1c0-0.7,0.4-1.3,1.1-1.3h21.5c0.7,0,1.1,0.6,1.1,1.3L38.2,36.6L38.2,36.6z"/>
</g>
</svg>
