<?xml version="1.0" encoding="UTF-8" standalone="no"?>
<!-- Generator: Adobe Illustrator 21.0.2, SVG Export Plug-In . SVG Version: 6.00 Build 0)  -->

<svg
   xmlns:dc="http://purl.org/dc/elements/1.1/"
   xmlns:cc="http://creativecommons.org/ns#"
   xmlns:rdf="http://www.w3.org/1999/02/22-rdf-syntax-ns#"
   xmlns:svg="http://www.w3.org/2000/svg"
   xmlns="http://www.w3.org/2000/svg"
   xmlns:sodipodi="http://sodipodi.sourceforge.net/DTD/sodipodi-0.dtd"
   xmlns:inkscape="http://www.inkscape.org/namespaces/inkscape"
   version="1.1"
   id="Layer_1"
   x="0px"
   y="0px"
   viewBox="0 0 80 80"
   xml:space="preserve"
   sodipodi:docname="icon-kakao.svg"
   width="80"
   height="80"
   inkscape:version="0.92.3 (2405546, 2018-03-11)"><metadata
   id="metadata52"><rdf:RDF><cc:Work
       rdf:about=""><dc:format>image/svg+xml</dc:format><dc:type
         rdf:resource="http://purl.org/dc/dcmitype/StillImage" /><dc:title></dc:title></cc:Work></rdf:RDF></metadata><defs
   id="defs50" /><sodipodi:namedview
   pagecolor="#ffffff"
   bordercolor="#666666"
   borderopacity="1"
   objecttolerance="10"
   gridtolerance="10"
   guidetolerance="10"
   inkscape:pageopacity="0"
   inkscape:pageshadow="2"
   inkscape:window-width="640"
   inkscape:window-height="480"
   id="namedview48"
   showgrid="false"
   fit-margin-top="2"
   fit-margin-left="2"
   fit-margin-right="2"
   fit-margin-bottom="2"
   inkscape:zoom="2.36"
   inkscape:cx="40"
   inkscape:cy="40"
   inkscape:window-x="451"
   inkscape:window-y="239"
   inkscape:window-maximized="0"
   inkscape:current-layer="Layer_1" />
<style
   type="text/css"
   id="style43">
	.st0{fill:#EFEAD6;}
</style>
<path
   class="st0"
   d="M 40,2 C 19,2 2,19 2,40 2,61 19,78 40,78 61,78 78,61 78,40 78,19 61,2 40,2 Z M 50.2,40.4 C 50,45.2 48.6,54.1 39.5,61.2 39.3,61.3 39,61.3 38.8,61.3 38.6,61.2 38.3,61 38.3,61 L 33,55 c -0.2,-0.2 -0.3,-0.4 -0.3,-0.7 0,-0.3 0.2,-0.6 0.4,-0.8 0,0 2.8,-2.4 4.2,-4.5 1.2,-1.9 2,-4 2,-6 h -7.6 c -1.1,0 -2,-0.9 -2,-2 V 24.7 c 0,-1.1 0.9,-2 2,-2 h 16.5 c 1.1,0 2,0.9 2,2 0,0 0,15.7 0,15.7 z"
   id="path45"
   inkscape:connector-curvature="0"
   style="fill:#efead6" />
</svg>