<?xml version="1.0" encoding="utf-8"?>
<!-- Generator: Adobe Illustrator 24.0.1, SVG Export Plug-In . SVG Version: 6.00 Build 0)  -->
<svg version="1.1" id="Layer_1" xmlns="http://www.w3.org/2000/svg" xmlns:xlink="http://www.w3.org/1999/xlink" x="0px" y="0px"
	 viewBox="0 0 52 52" style="enable-background:new 0 0 52 52;" xml:space="preserve">
<style type="text/css">
	.st0{fill:#E9B8AA;}
</style>
<g id="Instagram_5_">
	<path class="st0" d="M22.1,25.9c0-2.6,2.1-4.6,4.6-4.6c2.6,0,4.7,2,4.7,4.6s-2.1,4.6-4.7,4.6C24.1,30.6,22.1,28.5,22.1,25.9z"/>
	<path class="st0" d="M35.5,19.9c0,0.4-0.3,0.8-0.8,0.8h-2.4c-0.4,0-0.8-0.3-0.8-0.8v-2.4c0-0.4,0.3-0.8,0.8-0.8h2.4
		c0.4,0,0.8,0.3,0.8,0.8V19.9z"/>
	<path class="st0" d="M33.4,24h2.8v11c0,0.4-0.1,0.9-0.5,0.9H17.6c-0.4,0-0.5-0.4-0.5-0.9V24h2.8c-0.4,0-0.5,1.4-0.5,2.2
		c0,4,3.3,7.2,7.4,7.2s7.4-3.2,7.4-7.2C34,25.5,33.9,24,33.4,24z"/>
	<path class="st0" d="M26,1C12.2,1,1,12.2,1,26s11.2,25,25,25s25-11.2,25-25S39.8,1,26,1z M38.8,35.1c0,1.6-1.4,2.6-3,2.6H17.4
		c-1.6,0-3-1.1-3-2.6V16.7c0-1.6,1.4-2.6,3-2.6h18.4c1.6,0,3,1.1,3,2.6V35.1z"/>
</g>
</svg>
