<?xml version="1.0" encoding="UTF-8" standalone="no"?>
<!-- Generator: Adobe Illustrator 17.0.0, SVG Export Plug-In . SVG Version: 6.00 Build 0)  -->
<!DOCTYPE svg  PUBLIC '-//W3C//DTD SVG 1.1//EN'  'http://www.w3.org/Graphics/SVG/1.1/DTD/svg11.dtd'>
<svg id="Layer_1" xmlns="http://www.w3.org/2000/svg" xml:space="preserve" height="30px" viewBox="0 0 30 30" width="30px" version="1.1" y="0px" x="0px" xmlns:xlink="http://www.w3.org/1999/xlink" enable-background="new 0 0 30 30">
	<defs>
		<rect id="SVGID_1_" width="30" height="30"/>
	</defs>
	<clipPath id="SVGID_2_">
		<use overflow="visible" xlink:href="#SVGID_1_"/>
	</clipPath>
	<path fill="#fff" d="m23.693 13.69v3.916h-2.603v-3.916h-3.916v-2.603h3.916v-3.916h2.603v3.916h3.916v2.603h-3.916zm-16.954 8.104c0-3.242 2.628-5.87 5.87-5.87 3.241 0 5.869 2.628 5.869 5.87h-11.739zm5.87-13.321c1.802 0 3.263 1.461 3.263 3.263 0 1.803-1.461 3.264-3.263 3.264-1.803 0-3.264-1.461-3.264-3.264 0-1.802 1.461-3.263 3.264-3.263m2.391-8.473c-8.284 0-15 6.716-15 15s6.716 15 15 15 15-6.716 15-15-6.716-15-15-15" clip-path="url(#SVGID_2_)"/>
</svg>
