<?xml version="1.0" encoding="UTF-8" standalone="no"?>
<!-- Generator: Adobe Illustrator 21.0.2, SVG Export Plug-In . SVG Version: 6.00 Build 0)  -->

<svg
   xmlns:dc="http://purl.org/dc/elements/1.1/"
   xmlns:cc="http://creativecommons.org/ns#"
   xmlns:rdf="http://www.w3.org/1999/02/22-rdf-syntax-ns#"
   xmlns:svg="http://www.w3.org/2000/svg"
   xmlns="http://www.w3.org/2000/svg"
   xmlns:sodipodi="http://sodipodi.sourceforge.net/DTD/sodipodi-0.dtd"
   xmlns:inkscape="http://www.inkscape.org/namespaces/inkscape"
   version="1.1"
   id="Layer_1"
   x="0px"
   y="0px"
   viewBox="0 0 234.3 52"
   xml:space="preserve"
   sodipodi:docname="logo.svg"
   width="234.3"
   height="52"
   inkscape:version="0.92.3 (2405546, 2018-03-11)"><metadata
   id="metadata29"><rdf:RDF><cc:Work
       rdf:about=""><dc:format>image/svg+xml</dc:format><dc:type
         rdf:resource="http://purl.org/dc/dcmitype/StillImage" /><dc:title></dc:title></cc:Work></rdf:RDF></metadata><defs
   id="defs27" /><sodipodi:namedview
   pagecolor="#ffffff"
   bordercolor="#666666"
   borderopacity="1"
   objecttolerance="10"
   gridtolerance="10"
   guidetolerance="10"
   inkscape:pageopacity="0"
   inkscape:pageshadow="2"
   inkscape:window-width="1600"
   inkscape:window-height="851"
   id="namedview25"
   showgrid="false"
   fit-margin-top="2"
   fit-margin-left="2"
   fit-margin-right="2"
   fit-margin-bottom="2"
   inkscape:zoom="4.7631241"
   inkscape:cx="117.15"
   inkscape:cy="26"
   inkscape:window-x="0"
   inkscape:window-y="0"
   inkscape:window-maximized="1"
   inkscape:current-layer="Layer_1" />
<style
   type="text/css"
   id="style2">
	.st0{fill:#414042;}
	.st1{fill:none;}
</style>
<g
   id="g20"
   transform="translate(2,2)">
	<path
   class="st0"
   d="m 8.6,16.3 c 0.3,0 0.9,0.1 1.8,0.1 0.9,0 2,0 3,0 1.1,0 2.1,0 3.1,0 1,0 1.6,0 1.9,-0.1 0.1,0 0.2,0 0.3,-0.1 0.1,0 0.2,-0.1 0.3,-0.1 0.1,0 0.2,-0.1 0.3,-0.1 0.1,0 0.1,-0.1 0.2,-0.1 0.2,-0.1 0.4,-0.2 0.7,-0.3 0.3,-0.1 0.6,-0.1 0.8,-0.1 0.5,0 0.9,0 1.2,0 0.4,0 0.8,0 1.3,0.1 0.5,0.1 0.8,0.2 1,0.4 0.2,0.2 0.2,0.4 0.2,0.5 0,0.2 -0.2,0.4 -0.5,0.6 -0.3,0.2 -0.7,0.2 -1.2,0.2 -0.4,0 -1.3,0 -2.7,0.1 -1.4,0 -2.8,0 -4.4,0 -1.6,0 -3.1,0 -4.5,0.1 -1.4,0 -2.4,0 -2.9,0 V 22 c 0,0.4 0.1,0.8 0.4,1 0.3,0.2 0.6,0.3 0.9,0.3 l 8.8,-0.1 c 0.2,0 0.5,0 0.7,-0.1 0.3,-0.1 0.5,-0.2 0.6,-0.2 0.2,-0.1 0.5,-0.2 0.7,-0.3 0.3,-0.1 0.6,-0.1 0.8,-0.1 0.4,0 0.9,0 1.4,0 0.5,0 1,0 1.5,0.1 0.5,0.1 0.8,0.2 1,0.4 0.2,0.2 0.2,0.4 0.2,0.6 0,0.2 -0.2,0.4 -0.4,0.5 -0.3,0.2 -0.7,0.2 -1.2,0.2 H 9.8 c -0.8,0 -1.6,-0.1 -2.3,-0.4 -0.7,-0.3 -1,-1 -1,-2.1 V 12.3 C 6.5,11.5 6.3,11 5.9,10.7 5.5,10.4 4.9,10.2 4.1,10.1 3.7,10 3.5,9.9 3.6,9.6 3.7,9.3 4,9.2 4.5,9.2 c 0.2,0 0.5,0 0.9,0.1 0.3,0 0.7,0.1 1.1,0.1 0.4,0 0.8,0.1 1.2,0.2 0.3,0 0.7,0 1,0 0.4,0 1,0.1 1.8,0.1 0.8,0 1.7,0 2.6,0 1,0 2,0 3,0 1,0 1.9,-0.1 2.7,-0.1 0.2,0 0.4,0 0.6,-0.1 C 19.6,9.4 19.7,9.3 19.8,9.3 20,9.2 20.3,9.1 20.5,9.1 20.8,9 21.1,9 21.3,9 c 0.4,0 0.9,0 1.3,0 0.5,0 0.9,0 1.4,0.1 0.5,0 0.8,0.2 1,0.3 0.2,0.2 0.2,0.4 0.2,0.5 0,0.2 -0.2,0.4 -0.5,0.6 -0.3,0.2 -0.7,0.3 -1.1,0.3 -1,0 -2.2,0 -3.6,0 -1.4,0 -2.8,0 -4.3,0.1 -1.4,0 -2.8,0 -4.1,0 -1.3,0 -2.4,0 -3.3,0 v 5.4 z m 8.5,15.2 c 0.4,0 0.8,0 1.2,0 0.4,0 0.7,0 1,0 0.3,0 0.6,0 0.9,0 0.3,0 0.5,0 0.7,0 0.6,0 1.1,0 1.5,-0.1 0.4,0 0.7,-0.1 0.9,-0.2 0.1,0 0.2,-0.1 0.4,-0.1 0.2,0 0.3,-0.1 0.5,-0.1 0.2,0 0.3,-0.1 0.5,-0.1 0.2,0 0.4,-0.1 0.5,-0.1 0.7,-0.1 1.3,-0.1 1.9,-0.1 0.6,0 1.2,0.1 1.8,0.1 0.4,0.1 0.8,0.2 1,0.4 0.3,0.2 0.4,0.4 0.4,0.7 0,0.3 -0.2,0.6 -0.5,0.7 -0.3,0.1 -0.7,0.2 -1.1,0.2 -0.6,0 -1.2,0 -1.9,0 -0.6,0 -1.3,0 -2,-0.1 -0.6,0 -1.3,0 -1.9,-0.1 -0.6,0 -1.3,0 -1.8,-0.1 h -3 c -1.2,0 -2.4,0 -3.6,0 -1.2,0 -2.4,0.1 -3.5,0.1 -1.1,0 -1.9,0.1 -2.5,0.2 -0.2,0 -0.4,0.1 -0.6,0.1 C 7.7,32.9 7.6,33 7.4,33 7.2,33 7.1,33.1 6.9,33.1 6.7,33.1 6.5,33.2 6.3,33.2 6,33.3 5.6,33.3 5.3,33.3 5,33.3 4.6,33.2 4.1,33.1 3.7,33 3.2,32.9 2.7,32.7 2.2,32.5 1.7,32.3 1.3,32.1 0.4,31.7 0,31.4 0.3,31.2 0.5,31 1.1,30.9 1.9,31 c 0.7,0.1 1.6,0.2 2.5,0.2 0.9,0.1 2.2,0.1 3.9,0.1 0.9,0 1.9,0 3.1,0 H 15 V 28 c 0,-0.2 0,-0.5 -0.1,-0.8 -0.1,-0.3 -0.2,-0.5 -0.4,-0.6 -0.2,-0.1 -0.4,-0.2 -0.7,-0.3 -0.3,-0.1 -0.6,-0.2 -0.9,-0.2 -0.4,0 -0.5,-0.2 -0.4,-0.4 0.1,-0.3 0.4,-0.4 0.8,-0.4 0.4,0 1,0 1.7,0.1 0.7,0 1.3,0.1 1.8,0.2 0.2,0 0.3,0.1 0.4,0.3 0.1,0.2 0.1,0.3 0,0.5 0,0.1 -0.1,0.3 -0.1,0.6 0,0.3 0,0.5 0,0.8 z"
   id="path4"
   inkscape:connector-curvature="0"
   style="fill:#414042" />
	<path
   class="st0"
   d="m 79.5,4.9 v 7 c 0.4,0 0.9,-0.1 1.4,-0.2 0.6,-0.1 1,-0.3 1.3,-0.6 0.2,-0.2 0.6,-0.2 1.3,-0.2 0.6,0 1.2,0 1.7,0.1 0.5,0.1 0.8,0.3 1.1,0.5 0.2,0.2 0.3,0.4 0.3,0.6 0,0.2 -0.2,0.4 -0.5,0.5 -0.3,0.1 -0.7,0.2 -1.1,0.2 H 79.6 V 14 c 0,0.7 0,1.3 -0.1,2 -0.1,0.6 -0.1,1.2 -0.2,1.7 -0.1,0.5 -0.2,0.9 -0.4,1.2 -0.2,0.3 -0.3,0.5 -0.5,0.5 -0.2,0 -0.3,-0.1 -0.4,-0.4 -0.1,-0.3 -0.2,-0.6 -0.2,-1 -0.1,-0.4 -0.1,-0.9 -0.1,-1.3 0,-0.5 0,-0.9 0,-1.3 V 5.1 c 0,-0.7 0,-1.2 -0.1,-1.6 C 77.5,3.2 77.4,2.9 77.1,2.7 76.7,2.5 76.3,2.3 75.8,2.1 75.3,1.9 74.8,1.8 74.3,1.7 73.9,1.7 73.8,1.5 73.9,1.3 74,1.1 74.3,0.9 74.7,0.9 c 0.3,0 0.7,0 1.1,0.1 0.3,0 0.7,0 1.2,0.1 0.4,0.1 0.9,0.2 1.3,0.2 0.4,0.1 0.8,0.2 1.1,0.3 0.2,0.1 0.3,0.2 0.4,0.3 0.1,0.1 0.1,0.3 0.1,0.6 -0.1,0.4 -0.2,0.8 -0.3,1.2 -0.1,0.4 -0.1,0.8 -0.1,1.2 m -12.8,17 0.3,8.7 h 10 l 0.1,-8.8 z M 67.4,21 c 0.5,0 1.2,0 2.1,0 0.9,0 1.7,0 2.6,-0.1 0.9,0 1.7,-0.1 2.4,-0.1 0.7,0 1.3,-0.1 1.6,-0.1 0.1,0 0.2,0 0.3,-0.1 0.1,0 0.2,-0.1 0.3,-0.1 0.1,0 0.2,-0.1 0.3,-0.1 0.1,0 0.2,-0.1 0.3,-0.1 0.2,0 0.6,0 1,0 0.5,0 0.8,0.1 1.2,0.1 0.3,0.1 0.5,0.2 0.5,0.4 0,0.2 -0.1,0.4 -0.2,0.6 -0.1,0.1 -0.3,0.3 -0.3,0.5 -0.1,0.2 -0.2,0.4 -0.2,0.6 l -0.8,8 c 0.1,0 0.2,0 0.3,0 0.1,0 0.3,0 0.4,0 0.1,0 0.3,0.1 0.4,0.2 0.1,0.1 0.2,0.2 0.2,0.3 0,0.3 -0.1,0.4 -0.4,0.5 -0.3,0.1 -0.6,0.1 -1.1,0.1 L 67,31.8 c 0,0.5 -0.1,0.9 -0.3,1.2 -0.1,0.3 -0.3,0.4 -0.5,0.4 -0.3,0 -0.5,-0.1 -0.6,-0.4 -0.2,-0.3 -0.3,-0.8 -0.3,-1.4 L 64.5,23 C 64.4,22.5 64.2,22.2 63.9,22 63.6,21.8 63.1,21.7 62.5,21.5 62.2,21.4 62,21.3 62.1,21 c 0.1,-0.2 0.5,-0.4 1.3,-0.4 0.3,0 0.7,0.1 1.1,0.1 0.4,0 0.8,0.1 1.1,0.1 0.4,0 0.7,0.1 1,0.1 0.3,0.1 0.6,0.1 0.8,0.1 M 69.3,6.1 c -0.5,0 -1,0.1 -1.5,0.1 -0.5,0 -1,0.1 -1.5,0.1 -0.5,0 -0.9,0.1 -1.4,0.1 -0.4,0 -0.8,0.1 -1,0.1 -0.2,0 -0.5,0.1 -0.8,0.1 -0.3,0 -0.6,0.1 -0.8,0.2 -0.1,0 -0.1,0.1 -0.2,0.1 -0.1,0 -0.2,0 -0.2,0.1 -0.1,0 -0.1,0.1 -0.2,0.1 -0.1,0 -0.1,0 -0.2,0 -0.1,0 -0.2,0.1 -0.3,0.1 -0.1,0 -0.2,0 -0.3,0 -0.1,0 -0.2,0 -0.3,0 C 60.5,7.2 60.4,7.1 60.2,7.1 59.9,7.1 59.6,6.9 59.1,6.8 58.7,6.6 58.3,6.5 57.9,6.3 57.3,6 57.1,5.8 57.3,5.6 c 0.2,-0.2 0.6,-0.2 1.1,-0.2 0.1,0 0.3,0 0.6,0.1 0.2,0 0.5,0 0.8,0.1 0.3,0 0.6,0 1,0.1 0.4,0 0.7,0 1.1,0 1.3,0 2.5,0 3.7,-0.1 1.2,-0.1 2.2,-0.2 2.8,-0.3 0,0 0.1,0 0.2,-0.1 C 68.9,5 69,5 69.1,5 c 0.1,0 0.1,-0.1 0.2,-0.1 0.1,0 0.2,0 0.2,-0.1 0.4,0 0.7,-0.1 1.1,0 0.4,0 0.7,0.1 1,0.1 0.4,0.1 0.6,0.2 0.7,0.5 0,0.2 0,0.5 -0.1,0.7 C 72,6.3 71.8,6.6 71.6,6.8 71.3,7 71.2,7.3 71,7.6 c -0.8,1.4 -1.6,2.8 -2.6,4.1 -1,1.3 -2,2.6 -3.2,3.7 -1.1,1.2 -2.3,2.2 -3.6,3.1 -1.3,0.9 -2.5,1.7 -3.8,2.2 -1,0.4 -1.5,0.6 -1.7,0.5 -0.2,-0.1 -0.1,-0.3 0.3,-0.5 2.7,-1.5 5.2,-3.6 7.4,-6.1 2.3,-2.5 4.1,-5.3 5.5,-8.5"
   id="path6"
   inkscape:connector-curvature="0"
   style="fill:#414042" />
	<path
   class="st0"
   d="m 108.8,10 v 11.4 c 0.3,0 0.8,-0.1 1.4,-0.2 0.6,-0.1 1,-0.3 1.4,-0.7 0.2,-0.2 0.6,-0.2 1.2,-0.2 0.6,0 1.2,0 1.7,0.1 0.5,0.1 0.8,0.3 1.1,0.5 0.2,0.2 0.3,0.4 0.3,0.6 0,0.2 -0.2,0.4 -0.5,0.5 -0.3,0.2 -0.7,0.2 -1.1,0.2 h -5.4 v 8.5 c 0,1.2 0,2.2 -0.1,3.2 0,1 -0.1,1.8 -0.2,2.5 -0.1,0.7 -0.2,1.3 -0.4,1.7 -0.2,0.4 -0.4,0.6 -0.6,0.6 -0.2,0 -0.3,-0.2 -0.4,-0.6 -0.1,-0.4 -0.2,-0.9 -0.2,-1.5 0,-0.6 -0.1,-1.2 -0.1,-1.9 0,-0.7 0,-1.4 0,-2 V 10.2 c 0,-0.7 0,-1.2 -0.1,-1.6 C 106.7,8.3 106.6,8 106.3,7.8 105.9,7.6 105.5,7.4 105,7.2 104.5,7 104,6.9 103.5,6.8 c -0.4,0 -0.5,-0.2 -0.4,-0.4 0.1,-0.2 0.4,-0.4 0.8,-0.4 0.3,0 0.7,0 1.1,0.1 0.4,0.1 0.9,0.1 1.3,0.2 0.4,0.1 0.9,0.2 1.3,0.2 0.4,0.1 0.8,0.2 1.1,0.3 0.2,0.1 0.3,0.2 0.4,0.3 0.1,0.1 0.1,0.3 0.1,0.6 -0.1,0.4 -0.2,0.8 -0.3,1.2 0,0.3 -0.1,0.7 -0.1,1.1 M 96.3,20.5 c 0.3,0.3 0.6,0.6 1,1 0.4,0.3 0.7,0.7 1.1,1 0.3,0.3 0.6,0.6 0.9,0.8 0.3,0.2 0.4,0.4 0.5,0.4 0.2,0.1 0.3,0.2 0.5,0.2 0.1,0 0.3,0 0.4,0.1 0.1,0 0.3,0.1 0.4,0.2 0.1,0.1 0.3,0.2 0.5,0.3 0.2,0.2 0.4,0.4 0.6,0.7 0.2,0.3 0.4,0.6 0.6,0.9 0.2,0.3 0.4,0.6 0.5,0.9 0.2,0.3 0.3,0.5 0.3,0.6 0.3,0.8 0.1,1.2 -0.4,1.3 -0.5,0.1 -1.2,-0.3 -2,-1.2 -0.2,-0.1 -0.5,-0.4 -0.9,-0.9 -0.5,-0.5 -1,-1 -1.5,-1.5 -0.6,-0.6 -1.2,-1.2 -1.8,-1.8 -0.6,-0.6 -1.2,-1.2 -1.7,-1.7 -1.3,1.6 -2.7,3.1 -4.2,4.4 -1.5,1.3 -2.9,2.3 -4.3,3 -1,0.6 -1.6,0.8 -1.8,0.6 -0.2,-0.1 0,-0.3 0.4,-0.6 1.3,-0.8 2.5,-1.8 3.8,-3 1.3,-1.2 2.5,-2.5 3.6,-3.9 1.2,-1.4 2.2,-2.9 3.2,-4.5 1,-1.6 1.7,-3.2 2.4,-4.8 -0.9,0 -1.9,0.1 -2.9,0.1 -1.1,0 -1.8,0.1 -2.3,0.1 C 93,13 92.8,13 92.5,13 c -0.3,0 -0.6,0.1 -0.8,0.2 -0.1,0 -0.1,0.1 -0.2,0.1 -0.1,0 -0.2,0.1 -0.2,0.1 -0.1,0 -0.1,0.1 -0.2,0.1 -0.1,0 -0.1,0.1 -0.2,0.1 -0.2,0 -0.4,0.1 -0.5,0.1 -0.2,0 -0.4,0 -0.6,-0.1 -0.3,-0.1 -0.6,-0.2 -1.1,-0.3 -0.4,-0.2 -0.8,-0.3 -1.2,-0.5 -0.6,-0.3 -0.8,-0.5 -0.6,-0.7 0.2,-0.2 0.6,-0.2 1.1,-0.2 0.1,0 0.3,0 0.6,0.1 0.2,0 0.5,0 0.8,0.1 0.3,0 0.6,0 1,0.1 0.4,0 0.7,0 1.1,0 1.3,0 2.5,0 3.6,-0.1 1.1,0 2,-0.2 2.7,-0.3 0.1,0 0.1,0 0.2,-0.1 0.1,0 0.1,-0.1 0.2,-0.1 0.1,0 0.1,-0.1 0.2,-0.1 0.1,0 0.2,-0.1 0.2,-0.1 0.4,0 0.8,0 1.3,0 0.5,0 0.9,0.1 1.1,0.1 0.4,0.1 0.6,0.2 0.6,0.5 0,0.2 0,0.5 -0.1,0.7 -0.2,0.2 -0.4,0.5 -0.6,0.7 -0.2,0.3 -0.3,0.5 -0.5,0.8 -0.5,1 -1.1,2.1 -1.8,3.2 -0.7,1 -1.5,2 -2.3,3.1"
   id="path8"
   inkscape:connector-curvature="0"
   style="fill:#414042" />
	<path
   class="st0"
   d="m 46.2,46.2 c 1.3,0 2.4,-0.4 3.3,-1.3 0.9,-0.9 1.3,-2 1.3,-3.2 0,-1.3 -0.4,-2.3 -1.3,-3.3 -0.9,-0.9 -2,-1.4 -3.4,-1.4 -1.3,0 -2.4,0.4 -3.3,1.3 -0.9,0.9 -1.3,2 -1.3,3.3 0,0.6 0.1,1.2 0.3,1.7 0.2,0.5 0.5,1 0.9,1.4 0.4,0.4 0.9,0.7 1.5,1 0.7,0.4 1.4,0.5 2,0.5 m -0.9,-10 c 0.1,0 0.1,-0.1 0.1,-0.1 0,0 0,-0.1 0.1,-0.1 0,-0.1 0,-0.2 0,-0.3 0,-0.2 -0.2,-0.3 -0.6,-0.4 -0.4,-0.1 -0.5,-0.3 -0.4,-0.5 0.1,-0.2 0.4,-0.3 0.8,-0.3 0.3,0 0.7,0.1 1,0.1 0.4,0 0.7,0.1 0.9,0.1 0.2,0 0.3,0.1 0.3,0.2 0,0.1 0.1,0.2 0,0.3 0,0.1 0,0.1 -0.1,0.2 0,0.1 0,0.1 -0.1,0.2 0,0 0,0.1 -0.1,0.1 0,0 0,0.1 0,0.1 0,0.1 0,0.1 0,0.2 0,0.1 0.1,0.1 0.1,0.2 1.7,0.3 3,0.9 4.1,2 1,1.1 1.5,2.3 1.5,3.6 0,0.8 -0.2,1.5 -0.5,2.2 -0.4,0.7 -0.9,1.3 -1.5,1.8 -0.6,0.5 -1.3,0.9 -2.2,1.2 -0.8,0.3 -1.8,0.5 -2.7,0.5 -0.9,0 -1.9,-0.2 -2.7,-0.5 -0.8,-0.3 -1.6,-0.7 -2.2,-1.2 -0.6,-0.5 -1.1,-1.1 -1.5,-1.8 -0.3,-0.7 -0.5,-1.4 -0.5,-2.1 0,-1.5 0.6,-2.8 1.7,-3.8 1.4,-1.2 2.8,-1.8 4.5,-1.9 m 1.8,-13.1 c 0.5,0.1 1,0.2 1.6,0.4 0.6,0.1 1.1,0.3 1.6,0.4 0.5,0.1 1,0.2 1.4,0.3 0.4,0.1 0.7,0.1 0.8,0.1 0.2,0 0.4,0.1 0.6,0.1 0.2,0 0.3,0 0.5,-0.1 h 0.6 c 0.2,0 0.5,0 0.8,0.1 0.6,0.1 1.1,0.4 1.7,0.7 0.6,0.3 1,0.6 1.3,1 0.3,0.3 0.2,0.6 -0.2,0.9 -0.4,0.3 -1.1,0.2 -2.1,-0.1 -0.2,-0.1 -0.7,-0.2 -1.5,-0.5 -0.8,-0.2 -1.6,-0.5 -2.6,-0.8 -1,-0.3 -2,-0.6 -3,-0.9 -1,-0.3 -1.9,-0.6 -2.7,-0.8 -1.7,0.9 -3.4,1.7 -5.2,2.5 -1.8,0.7 -3.6,1.3 -5.3,1.7 -1,0.2 -1.6,0.3 -1.8,0.1 -0.2,-0.2 0,-0.3 0.6,-0.5 1.5,-0.4 3.1,-1 4.7,-1.7 1.6,-0.7 3.1,-1.5 4.6,-2.3 1.5,-0.8 2.8,-1.7 4.1,-2.6 1.3,-0.9 2.3,-1.9 3.2,-2.8 -0.4,0 -1,0.1 -1.8,0.1 -0.8,0 -1.6,0.1 -2.5,0.1 -0.9,0 -1.6,0.1 -2.3,0.1 -0.7,0 -1.2,0.1 -1.4,0.1 -0.3,0 -0.6,0 -1,0.1 -0.4,0.1 -0.8,0.2 -1.3,0.3 -0.2,0.1 -0.5,0.1 -0.7,0.2 -0.3,0 -0.6,0 -0.9,-0.2 -0.3,-0.1 -0.7,-0.2 -1.1,-0.3 -0.4,-0.1 -0.7,-0.3 -1,-0.4 -0.5,-0.2 -0.8,-0.5 -0.8,-0.7 0,-0.2 0.4,-0.3 1.1,-0.2 0.2,0 0.5,0.1 0.8,0.1 0.3,0 0.6,0 0.9,0.1 0.3,0 0.6,0 0.9,0 0.3,0 0.6,0 0.9,0 0.6,0 1.4,0 2.4,0 1,0 2,0 2.9,-0.1 1,0 1.9,-0.1 2.7,-0.1 0.8,0 1.3,-0.1 1.6,-0.1 0,0 0.1,0 0.2,-0.1 0.1,0 0.2,-0.1 0.3,-0.1 0.1,0 0.2,-0.1 0.3,-0.1 0.1,0 0.2,-0.1 0.3,-0.1 0.4,0 0.8,0 1.3,0 0.5,0 0.8,0 1,0 0.5,0.1 0.8,0.2 0.8,0.5 0.1,0.3 -0.1,0.6 -0.4,0.9 -0.1,0.1 -0.2,0.2 -0.3,0.3 -0.1,0.1 -0.2,0.2 -0.3,0.2 -0.1,0.1 -0.2,0.2 -0.3,0.3 -0.1,0.1 -0.2,0.2 -0.4,0.3 -0.7,0.6 -1.5,1.3 -2.5,1.9 -1,0.4 -2,1.1 -3.1,1.7 m 0.4,8.5 c 0.5,0 1,0 1.4,0 0.4,0 0.8,0 1.2,0 0.4,0 0.7,0 1,-0.1 0.3,0 0.5,0 0.7,0 0.6,0 1.1,0 1.5,-0.1 0.4,0 0.7,-0.1 0.9,-0.1 0.1,0 0.2,-0.1 0.4,-0.1 0.2,-0.1 0.3,-0.1 0.5,-0.2 0.2,0 0.3,-0.1 0.5,-0.1 0.2,0 0.3,-0.1 0.5,-0.1 0.7,-0.1 1.3,-0.1 1.9,-0.1 0.6,0 1.2,0.1 1.7,0.1 0.4,0.1 0.8,0.2 1,0.4 0.3,0.2 0.4,0.4 0.4,0.7 0,0.3 -0.2,0.5 -0.5,0.7 -0.3,0.1 -0.7,0.2 -1.2,0.2 -0.6,0 -1.2,0 -1.8,0 -0.6,0 -1.3,0 -1.9,-0.1 -0.7,0 -1.3,0 -2,-0.1 -0.6,0 -1.2,0 -1.8,-0.1 -0.8,0 -1.9,0 -3.2,0 -1.3,0 -2.6,0 -4,0.1 -1.3,0 -2.6,0.1 -3.8,0.2 -1.2,0.1 -2.1,0.1 -2.7,0.2 -0.2,0 -0.4,0.1 -0.6,0.1 -0.2,0 -0.3,0.1 -0.5,0.1 -0.2,0 -0.4,0.1 -0.5,0.1 -0.2,0 -0.4,0.1 -0.6,0.1 -0.3,0.1 -0.6,0.1 -1,0.1 -0.3,0 -0.7,-0.1 -1.2,-0.2 -0.4,-0.1 -0.9,-0.2 -1.4,-0.4 -0.5,-0.2 -1,-0.4 -1.4,-0.5 -0.9,-0.4 -1.2,-0.7 -1,-0.9 0.2,-0.2 0.8,-0.3 1.7,-0.2 0.7,0.1 1.5,0.1 2.5,0.2 0.9,0.1 2.2,0.1 3.9,0.1 0.9,0 2,0 3.2,0 1.3,0 2.6,0 3.8,-0.1 v -2.2 c 0,-0.2 0,-0.5 -0.1,-0.8 -0.1,-0.3 -0.2,-0.5 -0.4,-0.7 -0.2,-0.1 -0.4,-0.3 -0.7,-0.4 -0.3,-0.1 -0.6,-0.2 -1,-0.3 -0.4,-0.1 -0.5,-0.2 -0.4,-0.5 0.1,-0.2 0.4,-0.4 0.8,-0.4 0.4,0 1,0 1.7,0.1 0.7,0.1 1.3,0.2 1.8,0.3 0.2,0.1 0.3,0.2 0.4,0.3 0.1,0.2 0.1,0.3 0,0.5 -0.1,0.2 -0.1,0.4 -0.1,0.7 0,0.3 0,0.6 0,0.8 v 2.7 z"
   id="path10"
   inkscape:connector-curvature="0"
   style="fill:#414042" />
	<path
   class="st0"
   d="m 143.6,20.7 c 0.4,0.2 0.9,0.4 1.5,0.7 0.6,0.3 1.3,0.5 1.9,0.8 0.7,0.3 1.3,0.5 1.8,0.7 0.6,0.2 0.9,0.4 1.2,0.4 0.2,0.1 0.4,0.1 0.6,0.2 0.2,0 0.3,0.1 0.4,0.1 0.1,0 0.3,0 0.4,0 0.1,0 0.3,0 0.4,0 0.1,0 0.3,0.1 0.4,0.1 0.2,0 0.3,0.1 0.5,0.2 0.4,0.2 0.8,0.4 1.3,0.7 0.5,0.3 0.9,0.6 1.2,0.9 0.3,0.3 0.5,0.6 0.6,0.9 0.1,0.3 0,0.5 -0.2,0.7 -0.2,0.2 -0.4,0.2 -0.8,0.2 -0.4,0 -0.8,-0.1 -1.3,-0.4 -0.5,-0.2 -1.2,-0.6 -2.2,-1 -1,-0.5 -2,-1 -3.1,-1.5 -1.1,-0.5 -2.2,-1 -3.2,-1.5 -1,-0.5 -1.8,-0.9 -2.4,-1.2 -1.4,1.4 -3.1,2.7 -5,3.7 -1.9,1 -3.6,1.8 -5.4,2.4 -1,0.3 -1.6,0.4 -1.8,0.2 -0.2,-0.2 -0.1,-0.3 0.3,-0.5 0.9,-0.3 2,-0.8 3.1,-1.4 1.1,-0.6 2.2,-1.3 3.3,-2.1 1.1,-0.8 2.1,-1.7 3.1,-2.7 1,-1 1.7,-2 2.4,-3.2 0.1,-0.2 0.1,-0.3 0.1,-0.5 0,-0.2 -0.1,-0.4 -0.3,-0.6 -0.1,-0.1 -0.4,-0.3 -0.7,-0.4 -0.3,-0.1 -0.6,-0.3 -1,-0.4 -0.4,-0.1 -0.5,-0.3 -0.4,-0.5 0.1,-0.2 0.5,-0.3 1.2,-0.2 0.5,0.1 1,0.2 1.7,0.3 0.7,0.1 1.2,0.4 1.7,0.6 0.3,0.2 0.5,0.4 0.5,0.5 0.1,0.2 0.1,0.4 0.1,0.6 0,0.2 -0.1,0.4 -0.2,0.5 -0.1,0.2 -0.2,0.4 -0.3,0.5 -0.3,0.4 -0.5,0.8 -0.8,1.1 0,0.4 -0.3,0.7 -0.6,1.1 m 1.4,12.5 v 6 c 0,1.1 0,2.2 -0.1,3.2 0,1 -0.1,1.8 -0.2,2.5 -0.1,0.7 -0.2,1.3 -0.4,1.7 -0.2,0.4 -0.3,0.6 -0.6,0.6 -0.2,0 -0.3,-0.2 -0.4,-0.5 -0.1,-0.4 -0.2,-0.9 -0.2,-1.5 C 143,44.6 143,44 143,43.3 c 0,-0.7 0,-1.4 0,-2 v -7.9 c -1.3,0 -2.6,0.1 -3.8,0.1 -1.2,0.1 -2.1,0.1 -2.7,0.2 -0.2,0 -0.4,0.1 -0.6,0.1 -0.2,0 -0.3,0.1 -0.5,0.1 -0.2,0 -0.3,0.1 -0.5,0.1 -0.2,0 -0.4,0.1 -0.6,0.1 -0.3,0.1 -0.7,0.1 -1,0.1 -0.3,0 -0.7,-0.1 -1.2,-0.2 -0.4,-0.1 -0.8,-0.2 -1.4,-0.4 -0.5,-0.2 -1,-0.4 -1.4,-0.6 -0.9,-0.4 -1.2,-0.7 -1,-0.9 0.2,-0.2 0.8,-0.3 1.6,-0.2 0.7,0.1 1.6,0.1 2.5,0.2 0.9,0.1 2.2,0.1 3.8,0.1 0.9,0 2,0 3.3,0 1.3,0 2.5,0 3.8,0 1.3,0 2.4,0 3.5,-0.1 1.1,0 1.8,0 2.3,-0.1 0.6,0 1.1,0 1.5,-0.1 0.4,0 0.7,-0.1 0.9,-0.1 0.1,0 0.3,-0.1 0.4,-0.1 0.1,-0.1 0.3,-0.1 0.5,-0.2 0.2,0 0.3,-0.1 0.5,-0.1 0.2,0 0.3,-0.1 0.5,-0.1 0.7,-0.1 1.3,-0.1 1.9,-0.1 0.6,0 1.2,0.1 1.7,0.1 0.4,0.1 0.8,0.2 1,0.4 0.3,0.2 0.4,0.4 0.4,0.7 0,0.3 -0.2,0.5 -0.5,0.6 -0.3,0.1 -0.7,0.2 -1.1,0.2 -0.6,0 -1.2,0 -1.8,0 -0.6,0 -1.3,0 -1.9,-0.1 -0.6,0 -1.3,0 -1.9,0 -0.6,0 -1.2,0 -1.8,-0.1 -0.6,0 -1.2,0 -2,0 -0.7,0.2 -1.5,0.2 -2.4,0.2"
   id="path12"
   inkscape:connector-curvature="0"
   style="fill:#414042" />
	<path
   class="st0"
   d="m 175.1,6.4 v 9.1 c 0,1.3 -0.1,2.5 -0.3,3.5 -0.2,1 -0.5,1.5 -0.9,1.5 -0.2,0 -0.3,-0.1 -0.4,-0.3 -0.1,-0.3 -0.2,-0.6 -0.2,-0.9 -0.1,-0.4 -0.1,-0.8 -0.1,-1.2 0,-0.4 0,-0.8 0,-1.2 V 6.6 c 0,-0.7 0,-1.2 -0.1,-1.6 -0.1,-0.3 -0.3,-0.6 -0.5,-0.8 -0.3,-0.2 -0.8,-0.4 -1.3,-0.6 -0.5,-0.2 -1,-0.3 -1.5,-0.4 -0.4,0 -0.5,-0.2 -0.4,-0.4 0.1,-0.2 0.4,-0.4 0.8,-0.4 0.3,0 0.7,0 1.1,0.1 0.4,0.1 0.9,0.1 1.3,0.2 0.5,0.1 0.9,0.2 1.3,0.2 0.4,0.1 0.8,0.2 1.1,0.3 0.2,0.1 0.3,0.2 0.4,0.3 0.1,0.1 0.1,0.3 0.1,0.5 -0.1,0.4 -0.2,0.8 -0.3,1.2 0,0.4 -0.1,0.8 -0.1,1.2 m -2,25.3 v -4.9 l -10.4,0.1 v 5 z m 1.9,-8.1 v 7.1 c 0,1 -0.1,1.8 -0.3,2.4 -0.2,0.6 -0.5,0.9 -0.9,0.9 -0.3,0 -0.4,-0.1 -0.5,-0.4 -0.1,-0.3 -0.2,-0.5 -0.2,-0.8 l -10.4,0.1 c 0,0 0,0.1 0,0.3 0,0.2 -0.1,0.3 -0.1,0.6 -0.1,0.2 -0.2,0.3 -0.3,0.5 -0.1,0.1 -0.3,0.2 -0.5,0.2 -0.3,0 -0.6,-0.2 -0.7,-0.6 -0.1,-0.4 -0.2,-1.2 -0.2,-2.3 V 25 c 0,-0.2 0,-0.5 -0.1,-0.8 -0.1,-0.3 -0.2,-0.5 -0.3,-0.6 -0.2,-0.1 -0.5,-0.3 -0.9,-0.4 -0.4,-0.2 -0.7,-0.3 -1.2,-0.3 -0.4,-0.1 -0.5,-0.2 -0.4,-0.4 0.1,-0.2 0.4,-0.3 0.8,-0.3 0.2,0 0.5,0 0.8,0.1 0.3,0 0.7,0.1 1,0.1 0.4,0.1 0.7,0.1 1.1,0.2 0.3,0.1 0.6,0.1 0.9,0.2 0.2,0.1 0.3,0.2 0.4,0.3 0.1,0.1 0.1,0.3 0,0.5 -0.1,0.1 -0.1,0.3 -0.1,0.6 0,0.3 0,0.5 0,0.8 v 0.9 l 10.4,-0.1 v -1.9 c 0,-0.2 0,-0.5 -0.1,-0.7 -0.1,-0.3 -0.2,-0.5 -0.4,-0.7 -0.2,-0.1 -0.5,-0.3 -0.8,-0.4 -0.4,-0.2 -0.7,-0.3 -1.1,-0.3 -0.4,-0.1 -0.5,-0.2 -0.4,-0.4 0.1,-0.2 0.4,-0.3 0.8,-0.3 0.2,0 0.4,0 0.8,0.1 0.3,0 0.7,0.1 1,0.1 0.4,0 0.7,0.1 1,0.2 0.3,0.1 0.6,0.1 0.8,0.2 0.2,0.1 0.3,0.2 0.4,0.3 0.1,0.1 0.1,0.3 0.1,0.5 -0.1,0.2 -0.1,0.4 -0.1,0.7 -0.2,-0.1 -0.3,0.2 -0.3,0.4 M 159.6,7.7 c -0.7,0 -1.3,0.1 -1.9,0.4 -0.6,0.3 -1.1,0.6 -1.5,1 -0.4,0.4 -0.8,0.9 -1,1.5 -0.3,0.6 -0.4,1.2 -0.4,1.8 0,0.7 0.1,1.3 0.4,1.9 0.3,0.6 0.6,1.1 1,1.5 0.5,0.4 1,0.8 1.5,1 0.6,0.2 1.2,0.4 1.9,0.4 0.6,0 1.3,-0.1 1.8,-0.4 0.6,-0.2 1.1,-0.6 1.5,-1 0.5,-0.4 0.8,-0.9 1.1,-1.5 0.3,-0.6 0.4,-1.2 0.4,-1.9 0,-0.6 -0.1,-1.3 -0.4,-1.8 -0.3,-0.6 -0.6,-1.1 -1.1,-1.5 -0.4,-0.4 -0.9,-0.8 -1.5,-1 -0.5,-0.3 -1.1,-0.4 -1.8,-0.4 m -0.7,-1 c 0,0 0,0 0,0 0,-0.1 0,-0.1 0.1,-0.1 0,-0.1 0,-0.2 -0.1,-0.4 C 158.8,6 158.6,5.9 158.3,5.7 158,5.6 157.8,5.4 157.9,5.2 158,5 158.3,4.9 158.7,4.9 c 0.3,0 0.7,0 1.1,0.1 0.4,0.1 0.8,0.1 1,0.2 0.1,0.1 0.2,0.1 0.3,0.2 0,0.1 0.1,0.2 0,0.3 0,0.1 -0.1,0.2 -0.1,0.4 0,0.1 -0.1,0.3 -0.1,0.3 v 0.2 c 1.7,0.2 3.1,0.9 4.2,2 1.1,1.1 1.6,2.4 1.6,4 0,0.8 -0.2,1.6 -0.5,2.3 -0.4,0.7 -0.8,1.4 -1.5,1.9 -0.6,0.5 -1.4,0.9 -2.2,1.3 -0.9,0.3 -1.8,0.5 -2.8,0.5 -1,0 -1.9,-0.2 -2.8,-0.5 -0.8,-0.3 -1.6,-0.7 -2.2,-1.3 -0.6,-0.5 -1.1,-1.2 -1.4,-1.9 -0.3,-0.7 -0.5,-1.5 -0.5,-2.3 0,-1.6 0.6,-2.9 1.7,-4.1 1,-1 2.5,-1.7 4.4,-1.8"
   id="path14"
   inkscape:connector-curvature="0"
   style="fill:#414042" />
	<path
   class="st0"
   d="m 191.5,11.8 c -0.8,0 -1.5,0.1 -2.2,0.4 -0.7,0.3 -1.3,0.7 -1.7,1.2 -0.5,0.5 -0.9,1.1 -1.2,1.8 -0.3,0.7 -0.4,1.4 -0.4,2.1 0,0.8 0.1,1.5 0.4,2.2 0.3,0.7 0.7,1.2 1.2,1.8 0.5,0.5 1.1,0.9 1.7,1.2 0.7,0.3 1.4,0.4 2.2,0.4 0.8,0 1.5,-0.1 2.2,-0.4 0.7,-0.3 1.3,-0.7 1.8,-1.2 0.5,-0.5 0.9,-1.1 1.2,-1.8 0.3,-0.7 0.4,-1.4 0.4,-2.2 0,-0.8 -0.2,-1.5 -0.4,-2.1 -0.3,-0.7 -0.7,-1.3 -1.2,-1.8 -0.5,-0.5 -1.1,-0.9 -1.8,-1.2 -0.6,-0.3 -1.4,-0.4 -2.2,-0.4 m -0.8,-1.1 c 0,0 0.1,-0.1 0,0 v -0.1 c 0,0 0,0 0,-0.1 0,-0.1 0,-0.2 -0.1,-0.4 -0.1,-0.2 -0.3,-0.4 -0.6,-0.5 -0.3,-0.1 -0.5,-0.3 -0.3,-0.5 0.1,-0.2 0.4,-0.3 0.8,-0.3 0.3,0 0.6,0 1,0.1 0.4,0.1 0.7,0.1 0.9,0.2 0.2,0.1 0.3,0.1 0.3,0.2 0,0.1 0.1,0.2 0,0.3 0,0.1 0,0.1 -0.1,0.2 0,0.1 0,0.1 -0.1,0.2 0,0.1 0,0.1 -0.1,0.2 0,0.1 0,0.1 0,0.2 v 0.2 c 0,0 0,0.1 0.1,0.1 1,0.1 1.9,0.4 2.7,0.8 0.8,0.4 1.5,0.9 2.1,1.4 0.6,0.6 1.1,1.3 1.4,2 0.3,0.8 0.5,1.6 0.5,2.5 0,0.9 -0.2,1.8 -0.6,2.6 -0.4,0.8 -1,1.5 -1.7,2.1 -0.7,0.6 -1.5,1.1 -2.5,1.4 -1,0.4 -2,0.5 -3.1,0.5 -1.1,0 -2.1,-0.2 -3.1,-0.5 -1,-0.4 -1.8,-0.8 -2.5,-1.4 -0.7,-0.6 -1.3,-1.3 -1.6,-2.1 -0.4,-0.8 -0.6,-1.7 -0.6,-2.6 0,-0.9 0.2,-1.7 0.5,-2.5 0.3,-0.8 0.8,-1.5 1.4,-2.1 0.6,-0.6 1.4,-1.1 2.2,-1.5 1.2,-0.3 2.1,-0.5 3.1,-0.6 m 2.6,21.4 c 0.8,0 1.5,0 2.1,0 0.6,0 1.1,0 1.5,0 0.6,0 1.1,0 1.5,-0.1 0.4,0 0.7,-0.1 0.8,-0.1 0.1,0 0.2,-0.1 0.4,-0.1 0.2,-0.1 0.3,-0.1 0.5,-0.2 0.2,0 0.3,-0.1 0.5,-0.1 0.2,0 0.4,-0.1 0.5,-0.1 0.7,-0.1 1.3,-0.1 1.9,-0.1 0.6,0 1.2,0.1 1.8,0.1 0.4,0.1 0.7,0.2 1,0.4 0.3,0.2 0.4,0.4 0.4,0.7 0,0.3 -0.2,0.5 -0.5,0.6 -0.3,0.1 -0.7,0.2 -1.1,0.2 -0.6,0 -1.2,0 -1.8,0 -0.6,0 -1.3,0 -1.9,-0.1 -0.6,0 -1.3,0 -1.9,-0.1 -0.6,0 -1.2,0 -1.8,-0.1 -0.8,0 -1.8,0 -3,0 -1.2,0 -2.4,0 -3.5,0.1 -1.2,0 -2.4,0.1 -3.4,0.1 -1.1,0 -1.9,0.1 -2.5,0.2 -0.2,0 -0.4,0.1 -0.6,0.1 -0.2,0 -0.3,0.1 -0.5,0.1 -0.2,0 -0.3,0.1 -0.5,0.1 -0.2,0 -0.4,0.1 -0.6,0.1 -0.3,0.1 -0.7,0.1 -1,0.1 -0.3,0 -0.7,-0.1 -1.2,-0.2 -0.4,-0.1 -0.8,-0.2 -1.4,-0.4 -0.5,-0.2 -1,-0.4 -1.4,-0.6 -0.9,-0.4 -1.2,-0.7 -1,-0.9 0.2,-0.2 0.7,-0.3 1.6,-0.2 0.7,0.1 1.6,0.1 2.5,0.2 0.9,0.1 2.2,0.1 3.9,0.1 0.9,0 1.9,0 3.1,0 h 3.5 v -4.4 c 0,-0.2 0,-0.5 -0.1,-0.8 -0.1,-0.3 -0.2,-0.5 -0.4,-0.6 -0.2,-0.1 -0.4,-0.2 -0.7,-0.3 -0.3,-0.1 -0.6,-0.2 -0.9,-0.2 -0.4,0 -0.5,-0.2 -0.4,-0.4 0.1,-0.3 0.4,-0.4 0.8,-0.4 0.4,0 0.9,0 1.7,0.1 0.7,0 1.3,0.1 1.8,0.2 0.2,0 0.3,0.1 0.4,0.3 0.1,0.1 0.1,0.3 0,0.5 0,0.1 -0.1,0.3 -0.1,0.6 0,0.3 0,0.5 0,0.8 z"
   id="path16"
   inkscape:connector-curvature="0"
   style="fill:#414042" />
	<path
   class="st0"
   d="m 228.3,16.6 v 20.5 c 0,1.1 0,2.2 -0.1,3.2 0,1 -0.1,1.8 -0.2,2.5 -0.1,0.7 -0.2,1.3 -0.4,1.7 -0.1,0.4 -0.3,0.6 -0.6,0.6 -0.2,0 -0.3,-0.2 -0.4,-0.5 -0.1,-0.4 -0.2,-0.9 -0.2,-1.5 0,-0.6 -0.1,-1.2 -0.1,-1.9 0,-0.7 0,-1.4 0,-2 V 16.8 c 0,-0.7 0,-1.2 -0.1,-1.6 -0.1,-0.3 -0.3,-0.6 -0.6,-0.8 -0.3,-0.2 -0.8,-0.4 -1.3,-0.6 -0.5,-0.2 -1,-0.3 -1.5,-0.4 -0.4,0 -0.5,-0.2 -0.4,-0.4 0.1,-0.2 0.4,-0.4 0.8,-0.4 0.3,0 0.7,0 1.1,0.1 0.4,0.1 0.9,0.1 1.3,0.2 0.5,0.1 0.9,0.1 1.3,0.2 0.4,0.1 0.8,0.2 1.1,0.3 0.2,0.1 0.3,0.2 0.4,0.3 0.1,0.1 0.1,0.3 0.1,0.5 -0.1,0.4 -0.2,0.8 -0.3,1.2 0.1,0.4 0.1,0.8 0.1,1.2 m -16,4.3 c -0.7,0 -1.4,0.1 -2,0.4 -0.6,0.3 -1.2,0.7 -1.6,1.2 -0.5,0.5 -0.8,1 -1.1,1.7 -0.3,0.7 -0.4,1.3 -0.4,2.1 0,0.7 0.1,1.4 0.4,2.1 0.3,0.6 0.6,1.2 1.1,1.7 0.5,0.5 1,0.9 1.6,1.1 0.6,0.3 1.3,0.4 2,0.4 0.7,0 1.4,-0.1 2,-0.4 0.6,-0.3 1.2,-0.6 1.6,-1.1 0.5,-0.5 0.9,-1 1.1,-1.7 0.2,-0.7 0.4,-1.3 0.4,-2.1 0,-0.7 -0.1,-1.4 -0.4,-2.1 -0.3,-0.7 -0.7,-1.2 -1.1,-1.7 -0.5,-0.5 -1,-0.9 -1.6,-1.2 -0.6,-0.3 -1.3,-0.4 -2,-0.4 m -0.8,-1.1 c 0,0 0,-0.1 0,-0.1 0,0 0,-0.1 0,-0.1 0,-0.1 0,-0.2 -0.1,-0.4 -0.1,-0.2 -0.3,-0.3 -0.6,-0.5 -0.3,-0.1 -0.5,-0.3 -0.4,-0.5 0.1,-0.2 0.4,-0.3 0.8,-0.3 0.3,0 0.6,0 1.1,0.1 0.4,0.1 0.8,0.1 1,0.2 0.1,0.1 0.2,0.1 0.3,0.2 0,0.1 0.1,0.2 0,0.4 0,0.1 0,0.1 -0.1,0.2 0,0.1 0,0.1 -0.1,0.2 0,0.1 0,0.1 0,0.2 0,0.1 0,0.1 0,0.1 v 0.2 c 0,0.1 0,0.1 0.1,0.2 1.8,0.3 3.3,1 4.5,2.2 1.2,1.2 1.8,2.7 1.8,4.3 0,0.9 -0.2,1.8 -0.6,2.6 -0.4,0.8 -0.9,1.5 -1.6,2.1 -0.7,0.6 -1.5,1.1 -2.4,1.4 -0.9,0.3 -1.9,0.5 -3,0.5 -1.1,0 -2.1,-0.2 -3,-0.5 -0.9,-0.3 -1.7,-0.8 -2.4,-1.4 -0.7,-0.6 -1.2,-1.3 -1.6,-2.1 -0.4,-0.8 -0.6,-1.6 -0.6,-2.6 0,-0.9 0.2,-1.7 0.5,-2.4 0.3,-0.8 0.8,-1.4 1.3,-2 0.6,-0.6 1.3,-1 2.1,-1.4 1.1,-0.4 2,-0.7 3,-0.8"
   id="path18"
   inkscape:connector-curvature="0"
   style="fill:#414042" />
</g>
<rect
   class="st1"
   width="230.3"
   height="48"
   id="rect22"
   x="2"
   y="2"
   style="fill:none" />
</svg>