<?xml version="1.0" encoding="utf-8"?>
<!-- Generator: Adobe Illustrator 17.0.0, SVG Export Plug-In . SVG Version: 6.00 Build 0)  -->
<!DOCTYPE svg PUBLIC "-//W3C//DTD SVG 1.1//EN" "http://www.w3.org/Graphics/SVG/1.1/DTD/svg11.dtd">
<svg version="1.1" id="Layer_1" xmlns="http://www.w3.org/2000/svg" xmlns:xlink="http://www.w3.org/1999/xlink" x="0px" y="0px"
	 width="63px" height="63px" viewBox="0 0 63 63" enable-background="new 0 0 63 63" xml:space="preserve">
<g>
	<defs>
		<rect id="SVGID_1_" x="0.826" y="0.896" width="61.349" height="61.208"/>
	</defs>
	<clipPath id="SVGID_2_">
		<use xlink:href="#SVGID_1_"  overflow="visible"/>
	</clipPath>
	<path clip-path="url(#SVGID_2_)" fill="#2B2823" d="M31.5,0.896c1.169,1.685,2.214,3.494,3.139,5.422h-6.277
		C29.379,4.483,30.425,2.675,31.5,0.896"/>
	<path clip-path="url(#SVGID_2_)" fill="#2B2823" d="M23.082,21.442c-0.954,13.319,13.03,23.034,25.111,16.692
		c1.426-0.748,4.948-2.848,5.422-4.565c0.264-0.956,0.113-2.74,0-4.138c-0.352-4.347-1.458-7.243-3.71-10.7
		c-2.262-3.474-7.005-7.062-10.843-8.418c-2.009-0.71-5.719-0.978-9.274-0.999c-0.087,0.008-0.169,0.021-0.143,0.143
		C26.087,12.215,23.449,16.325,23.082,21.442 M31.215,8.03c8.657-0.031,15.854,4.08,19.546,9.702
		c0.916,1.394,2.54,3.916,3.281,6.421c4.143,13.977-4.35,26.417-15.123,29.819c-4.335,1.369-9.667,1.589-14.553,0.142
		c-1.987-0.589-4.608-2.021-6.42-3.282C10.823,45.873,5.39,35.223,9.1,23.724c0.641-1.984,2.105-4.58,2.997-5.849
		C15.536,12.974,22.201,8.064,31.215,8.03"/>
	<path clip-path="url(#SVGID_2_)" fill="#2B2823" d="M9.957,9.886c2.088,0.479,4.007,1.129,6.135,1.57
		c-1.391,1.604-3.033,2.959-4.423,4.565C10.978,14.096,10.525,11.933,9.957,9.886"/>
	<path clip-path="url(#SVGID_2_)" fill="#2B2823" d="M53.187,9.886c-0.483,2.085-1.165,3.971-1.57,6.135
		c-1.605-1.391-2.96-3.033-4.565-4.424C48.954,10.884,51.104,10.419,53.187,9.886"/>
	<path clip-path="url(#SVGID_2_)" fill="#2B2823" d="M31.643,17.446c0.045,3.815-0.566,7.691-0.143,11.414
		c1.616,0.046,2.887-0.252,4.566-0.142c0.741-3.341-0.014-7.573,0.142-11.272c1.359,0.118,2.513,0.181,3.853,0
		c0.404,1.562-0.497,4.37,0.285,5.849c3.026-0.16,2.591-3.78,3.852-5.705c0.931-0.141,2.674-0.014,3.567,0
		c-0.562,2.908-1.321,5.622-3.424,6.99c1.063,2.552,2.997,4.232,3.424,7.419c-0.656,0.488-2.697,0.344-3.567,0.143
		c-1.594-1.402-1.761-4.232-3.424-5.565c-1.542,0.728-0.273,3.685-0.57,5.422c-3.592,0.601-8.569,0.228-12.414,0.143
		c0.093-4.897-0.134-10.231,0-14.696C29.13,17.628,30.284,17.564,31.643,17.446"/>
	<path clip-path="url(#SVGID_2_)" fill="#2B2823" d="M6.247,34.568c-1.911-0.895-3.51-2.102-5.422-2.996
		c1.42-1.387,3.59-2.022,5.136-3.282C6.622,29.818,6.061,32.567,6.247,34.568"/>
	<path clip-path="url(#SVGID_2_)" fill="#2B2823" d="M56.611,28.29c1.905,0.996,3.642,2.161,5.564,3.138
		c-1.795,1.108-3.555,2.248-5.564,3.14V28.29z"/>
	<path clip-path="url(#SVGID_2_)" fill="#2B2823" d="M51.332,46.838c0.68,1.982,1.183,4.144,1.712,6.277
		c-1.954-0.567-3.901-1.14-5.992-1.569C47.83,49.893,50.08,48.49,51.332,46.838"/>
	<path clip-path="url(#SVGID_2_)" fill="#2B2823" d="M11.383,46.981c1.638,1.314,3.707,2.946,4.566,4.565
		c-2.12,0.401-4.061,0.98-5.992,1.569C10.055,51.264,11.058,49.081,11.383,46.981"/>
	<path clip-path="url(#SVGID_2_)" fill="#2B2823" d="M28.362,56.539h6.42c-1.022,1.88-2.169,3.633-3.139,5.565
		C30.393,60.406,29.409,58.441,28.362,56.539"/>
</g>
</svg>
