<?xml version="1.0" encoding="utf-8"?>
<!-- Generator: Adobe Illustrator 24.0.1, SVG Export Plug-In . SVG Version: 6.00 Build 0)  -->
<svg version="1.1" id="Layer_1" xmlns="http://www.w3.org/2000/svg" xmlns:xlink="http://www.w3.org/1999/xlink" x="0px" y="0px"
	 viewBox="0 0 230 48" style="enable-background:new 0 0 230 48;" xml:space="preserve">
<style type="text/css">
	.st0{fill:#413C3C;}
</style>
<g>
	<path class="st0" d="M9.2,16.1c0.3,0,0.9,0.1,1.8,0.1c0.9,0,2,0,3,0c1.1,0,2.1,0,3.1,0s1.6,0,1.9-0.1c0.1,0,0.2,0,0.3-0.1
		c0.1,0,0.2-0.1,0.3-0.1c0.1,0,0.2-0.1,0.3-0.1c0.1,0,0.1-0.1,0.2-0.1c0.2-0.1,0.4-0.2,0.7-0.3c0.3-0.1,0.6-0.1,0.8-0.1
		c0.5,0,0.9,0,1.2,0c0.4,0,0.8,0,1.3,0.1s0.8,0.2,1,0.4s0.2,0.4,0.2,0.5c0,0.2-0.2,0.4-0.5,0.6s-0.7,0.2-1.2,0.2
		c-0.4,0-1.3,0-2.7,0.1c-1.4,0-2.8,0-4.4,0s-3.1,0-4.5,0.1c-1.4,0-2.4,0-2.9,0v4.5c0,0.4,0.1,0.8,0.4,1c0.3,0.2,0.6,0.3,0.9,0.3
		l8.8-0.1c0.2,0,0.5,0,0.7-0.1c0.3-0.1,0.5-0.2,0.6-0.2c0.2-0.1,0.5-0.2,0.7-0.3c0.3-0.1,0.6-0.1,0.8-0.1c0.4,0,0.9,0,1.4,0
		s1,0,1.5,0.1s0.8,0.2,1,0.4c0.2,0.2,0.2,0.4,0.2,0.6s-0.2,0.4-0.4,0.5c-0.3,0.2-0.7,0.2-1.2,0.2H10.4c-0.8,0-1.6-0.1-2.3-0.4
		s-1-1-1-2.1v-9.5c0-0.8-0.2-1.3-0.6-1.6s-1-0.5-1.8-0.6C4.3,9.8,4.1,9.7,4.2,9.4C4.3,9.1,4.6,9,5.1,9C5.3,9,5.6,9,6,9.1
		c0.3,0,0.7,0.1,1.1,0.1s0.8,0.1,1.2,0.2c0.3,0,0.7,0,1,0c0.4,0,1,0.1,1.8,0.1s1.7,0,2.6,0c1,0,2,0,3,0s1.9-0.1,2.7-0.1
		c0.2,0,0.4,0,0.6-0.1s0.3-0.2,0.4-0.2c0.2-0.1,0.5-0.2,0.7-0.2c0.3-0.1,0.6-0.1,0.8-0.1c0.4,0,0.9,0,1.3,0c0.5,0,0.9,0,1.4,0.1
		c0.5,0,0.8,0.2,1,0.3c0.2,0.2,0.2,0.4,0.2,0.5c0,0.2-0.2,0.4-0.5,0.6c-0.3,0.2-0.7,0.3-1.1,0.3c-1,0-2.2,0-3.6,0s-2.8,0-4.3,0.1
		c-1.4,0-2.8,0-4.1,0s-2.4,0-3.3,0v5.4C8.9,16.1,9.2,16.1,9.2,16.1z M17.7,31.3c0.4,0,0.8,0,1.2,0c0.4,0,0.7,0,1,0s0.6,0,0.9,0
		s0.5,0,0.7,0c0.6,0,1.1,0,1.5-0.1c0.4,0,0.7-0.1,0.9-0.2c0.1,0,0.2-0.1,0.4-0.1c0.2,0,0.3-0.1,0.5-0.1s0.3-0.1,0.5-0.1
		s0.4-0.1,0.5-0.1c0.7-0.1,1.3-0.1,1.9-0.1s1.2,0.1,1.8,0.1c0.4,0.1,0.8,0.2,1,0.4c0.3,0.2,0.4,0.4,0.4,0.7c0,0.3-0.2,0.6-0.5,0.7
		c-0.3,0.1-0.7,0.2-1.1,0.2c-0.6,0-1.2,0-1.9,0c-0.6,0-1.3,0-2-0.1c-0.6,0-1.3,0-1.9-0.1c-0.6,0-1.3,0-1.8-0.1h-3
		c-1.2,0-2.4,0-3.6,0s-2.4,0.1-3.5,0.1s-1.9,0.1-2.5,0.2c-0.2,0-0.4,0.1-0.6,0.1S8.2,32.8,8,32.8s-0.3,0.1-0.5,0.1S7.1,33,6.9,33
		c-0.3,0.1-0.7,0.1-1,0.1S5.2,33,4.7,32.9c-0.4-0.1-0.9-0.2-1.4-0.4s-1-0.4-1.4-0.6c-0.9-0.4-1.3-0.7-1-0.9c0.2-0.2,0.8-0.3,1.6-0.2
		C3.2,30.9,4.1,31,5,31c0.9,0.1,2.2,0.1,3.9,0.1c0.9,0,1.9,0,3.1,0h3.6v-3.3c0-0.2,0-0.5-0.1-0.8s-0.2-0.5-0.4-0.6s-0.4-0.2-0.7-0.3
		c-0.3-0.1-0.6-0.2-0.9-0.2c-0.4,0-0.5-0.2-0.4-0.4c0.1-0.3,0.4-0.4,0.8-0.4c0.4,0,1,0,1.7,0.1c0.7,0,1.3,0.1,1.8,0.2
		c0.2,0,0.3,0.1,0.4,0.3c0.1,0.2,0.1,0.3,0,0.5c0,0.1-0.1,0.3-0.1,0.6c0,0.3,0,0.5,0,0.8V31.3z"/>
	<path class="st0" d="M80.1,4.7v7c0.4,0,0.9-0.1,1.4-0.2c0.6-0.1,1-0.3,1.3-0.6c0.2-0.2,0.6-0.2,1.3-0.2c0.6,0,1.2,0,1.7,0.1
		s0.8,0.3,1.1,0.5c0.2,0.2,0.3,0.4,0.3,0.6c0,0.2-0.2,0.4-0.5,0.5s-0.7,0.2-1.1,0.2h-5.4v1.2c0,0.7,0,1.3-0.1,2
		C80,16.4,80,17,79.9,17.5s-0.2,0.9-0.4,1.2c-0.2,0.3-0.3,0.5-0.5,0.5s-0.3-0.1-0.4-0.4s-0.2-0.6-0.2-1c-0.1-0.4-0.1-0.9-0.1-1.3
		c0-0.5,0-0.9,0-1.3V4.9c0-0.7,0-1.2-0.1-1.6C78.1,3,78,2.7,77.7,2.5c-0.4-0.2-0.8-0.4-1.3-0.6s-1-0.3-1.5-0.4
		c-0.4,0-0.5-0.2-0.4-0.4s0.4-0.4,0.8-0.4c0.3,0,0.7,0,1.1,0.1c0.3,0,0.7,0,1.2,0.1C78,1,78.5,1.1,78.9,1.1c0.4,0.1,0.8,0.2,1.1,0.3
		c0.2,0.1,0.3,0.2,0.4,0.3s0.1,0.3,0.1,0.6c-0.1,0.4-0.2,0.8-0.3,1.2C80.1,3.9,80.1,4.3,80.1,4.7 M67.3,21.7l0.3,8.7h10l0.1-8.8
		L67.3,21.7z M68,20.8c0.5,0,1.2,0,2.1,0s1.7,0,2.6-0.1c0.9,0,1.7-0.1,2.4-0.1c0.7,0,1.3-0.1,1.6-0.1c0.1,0,0.2,0,0.3-0.1
		c0.1,0,0.2-0.1,0.3-0.1c0.1,0,0.2-0.1,0.3-0.1c0.1,0,0.2-0.1,0.3-0.1c0.2,0,0.6,0,1,0c0.5,0,0.8,0.1,1.2,0.1
		c0.3,0.1,0.5,0.2,0.5,0.4c0,0.2-0.1,0.4-0.2,0.6c-0.1,0.1-0.3,0.3-0.3,0.5c-0.1,0.2-0.2,0.4-0.2,0.6l-0.8,8c0.1,0,0.2,0,0.3,0
		c0.1,0,0.3,0,0.4,0s0.3,0.1,0.4,0.2s0.2,0.2,0.2,0.3c0,0.3-0.1,0.4-0.4,0.5s-0.6,0.1-1.1,0.1l-11.3,0.2c0,0.5-0.1,0.9-0.3,1.2
		c-0.1,0.3-0.3,0.4-0.5,0.4c-0.3,0-0.5-0.1-0.6-0.4c-0.2-0.3-0.3-0.8-0.3-1.4l-0.8-8.6c-0.1-0.5-0.3-0.8-0.6-1s-0.8-0.3-1.4-0.5
		c-0.3-0.1-0.5-0.2-0.4-0.5c0.1-0.2,0.5-0.4,1.3-0.4c0.3,0,0.7,0.1,1.1,0.1s0.8,0.1,1.1,0.1c0.4,0,0.7,0.1,1,0.1
		C67.5,20.8,67.8,20.8,68,20.8 M69.9,5.9c-0.5,0-1,0.1-1.5,0.1s-1,0.1-1.5,0.1S66,6.2,65.5,6.2c-0.4,0-0.8,0.1-1,0.1
		S64,6.4,63.7,6.4s-0.6,0.1-0.8,0.2c-0.1,0-0.1,0.1-0.2,0.1c-0.1,0-0.2,0-0.2,0.1c-0.1,0-0.1,0.1-0.2,0.1c-0.1,0-0.1,0-0.2,0
		C62,6.9,61.9,7,61.8,7s-0.2,0-0.3,0s-0.2,0-0.3,0S61,6.9,60.8,6.9c-0.3,0-0.6-0.2-1.1-0.3c-0.4-0.2-0.8-0.3-1.2-0.5
		c-0.6-0.3-0.8-0.5-0.6-0.7s0.6-0.2,1.1-0.2c0.1,0,0.3,0,0.6,0.1c0.2,0,0.5,0,0.8,0.1c0.3,0,0.6,0,1,0.1c0.4,0,0.7,0,1.1,0
		c1.3,0,2.5,0,3.7-0.1s2.2-0.2,2.8-0.3c0,0,0.1,0,0.2-0.1c0.3-0.2,0.4-0.2,0.5-0.2s0.1-0.1,0.2-0.1s0.2,0,0.2-0.1
		c0.4,0,0.7-0.1,1.1,0c0.4,0,0.7,0.1,1,0.1c0.4,0.1,0.6,0.2,0.7,0.5c0,0.2,0,0.5-0.1,0.7c-0.2,0.2-0.4,0.5-0.6,0.7
		c-0.3,0.2-0.4,0.5-0.6,0.8c-0.8,1.4-1.6,2.8-2.6,4.1s-2,2.6-3.2,3.7c-1.1,1.2-2.3,2.2-3.6,3.1s-2.5,1.7-3.8,2.2
		c-1,0.4-1.5,0.6-1.7,0.5s-0.1-0.3,0.3-0.5c2.7-1.5,5.2-3.6,7.4-6.1C66.7,11.9,68.5,9.1,69.9,5.9"/>
	<path class="st0" d="M109.4,9.8v11.4c0.3,0,0.8-0.1,1.4-0.2s1-0.3,1.4-0.7c0.2-0.2,0.6-0.2,1.2-0.2s1.2,0,1.7,0.1s0.8,0.3,1.1,0.5
		c0.2,0.2,0.3,0.4,0.3,0.6s-0.2,0.4-0.5,0.5c-0.3,0.2-0.7,0.2-1.1,0.2h-5.4v8.5c0,1.2,0,2.2-0.1,3.2c0,1-0.1,1.8-0.2,2.5
		s-0.2,1.3-0.4,1.7c-0.2,0.4-0.4,0.6-0.6,0.6s-0.3-0.2-0.4-0.6c-0.1-0.4-0.2-0.9-0.2-1.5s-0.1-1.2-0.1-1.9s0-1.4,0-2V10
		c0-0.7,0-1.2-0.1-1.6c-0.1-0.3-0.2-0.6-0.5-0.8c-0.4-0.2-0.8-0.4-1.3-0.6s-1-0.3-1.5-0.4c-0.4,0-0.5-0.2-0.4-0.4
		c0.1-0.2,0.4-0.4,0.8-0.4c0.3,0,0.7,0,1.1,0.1s0.9,0.1,1.3,0.2s0.9,0.2,1.3,0.2c0.4,0.1,0.8,0.2,1.1,0.3c0.2,0.1,0.3,0.2,0.4,0.3
		c0.1,0.1,0.1,0.3,0.1,0.6c-0.1,0.4-0.2,0.8-0.3,1.2C109.5,9,109.4,9.4,109.4,9.8 M96.9,20.3c0.3,0.3,0.6,0.6,1,1
		c0.4,0.3,0.7,0.7,1.1,1c0.3,0.3,0.6,0.6,0.9,0.8c0.3,0.2,0.4,0.4,0.5,0.4c0.2,0.1,0.3,0.2,0.5,0.2c0.1,0,0.3,0,0.4,0.1
		c0.1,0,0.3,0.1,0.4,0.2s0.3,0.2,0.5,0.3c0.2,0.2,0.4,0.4,0.6,0.7c0.2,0.3,0.4,0.6,0.6,0.9s0.4,0.6,0.5,0.9c0.2,0.3,0.3,0.5,0.3,0.6
		c0.3,0.8,0.1,1.2-0.4,1.3c-0.5,0.1-1.2-0.3-2-1.2c-0.2-0.1-0.5-0.4-0.9-0.9c-0.5-0.5-1-1-1.5-1.5c-0.6-0.6-1.2-1.2-1.8-1.8
		c-0.6-0.6-1.2-1.2-1.7-1.7c-1.3,1.6-2.7,3.1-4.2,4.4s-2.9,2.3-4.3,3c-1,0.6-1.6,0.8-1.8,0.6c-0.2-0.1,0-0.3,0.4-0.6
		c1.3-0.8,2.5-1.8,3.8-3s2.5-2.5,3.6-3.9c1.2-1.4,2.2-2.9,3.2-4.5s1.7-3.2,2.4-4.8c-0.9,0-1.9,0.1-2.9,0.1c-1.1,0-1.8,0.1-2.3,0.1
		c-0.2-0.2-0.4-0.2-0.7-0.2s-0.6,0.1-0.8,0.2c-0.1,0-0.1,0.1-0.2,0.1s-0.2,0.1-0.2,0.1c-0.1,0-0.1,0.1-0.2,0.1s-0.1,0.1-0.2,0.1
		c-0.2,0-0.4,0.1-0.5,0.1c-0.2,0-0.4,0-0.6-0.1c-0.3-0.1-0.6-0.2-1.1-0.3c-0.4-0.2-0.8-0.3-1.2-0.5c-0.6-0.3-0.8-0.5-0.6-0.7
		c0.2-0.2,0.6-0.2,1.1-0.2c0.1,0,0.3,0,0.6,0.1c0.2,0,0.5,0,0.8,0.1c0.3,0,0.6,0,1,0.1c0.4,0,0.7,0,1.1,0c1.3,0,2.5,0,3.6-0.1
		c1.1,0,2-0.2,2.7-0.3c0.1,0,0.1,0,0.2-0.1c0.1,0,0.1-0.1,0.2-0.1s0.1-0.1,0.2-0.1s0.2-0.1,0.2-0.1c0.4,0,0.8,0,1.3,0
		s0.9,0.1,1.1,0.1c0.4,0.1,0.6,0.2,0.6,0.5c0,0.2,0,0.5-0.1,0.7c-0.2,0.2-0.4,0.5-0.6,0.7c-0.2,0.3-0.3,0.5-0.5,0.8
		c-0.5,1-1.1,2.1-1.8,3.2C98.5,18.2,97.7,19.2,96.9,20.3"/>
	<path class="st0" d="M46.8,46c1.3,0,2.4-0.4,3.3-1.3c0.9-0.9,1.3-2,1.3-3.2c0-1.3-0.4-2.3-1.3-3.3c-0.9-0.9-2-1.4-3.4-1.4
		c-1.3,0-2.4,0.4-3.3,1.3c-0.9,0.9-1.3,2-1.3,3.3c0,0.6,0.1,1.2,0.3,1.7s0.5,1,0.9,1.4s0.9,0.7,1.5,1C45.5,45.9,46.2,46,46.8,46
		 M45.9,36C46,36,46,35.9,45.9,36c0.1-0.1,0.1-0.2,0.2-0.2c0-0.1,0-0.2,0-0.3c0-0.2-0.2-0.3-0.6-0.4c-0.4-0.1-0.5-0.3-0.4-0.5
		s0.4-0.3,0.8-0.3c0.3,0,0.7,0.1,1,0.1c0.4,0,0.7,0.1,0.9,0.1s0.3,0.1,0.3,0.2c0,0.1,0.1,0.2,0,0.3c0,0.1,0,0.1-0.1,0.2
		c0,0.1,0,0.1-0.1,0.2c0,0,0,0.1-0.1,0.1v0.1c0,0.1,0,0.1,0,0.2c0,0.1,0.1,0.1,0.1,0.2c1.7,0.3,3,0.9,4.1,2c1,1.1,1.5,2.3,1.5,3.6
		c0,0.8-0.2,1.5-0.5,2.2c-0.4,0.7-0.9,1.3-1.5,1.8s-1.3,0.9-2.2,1.2c-0.8,0.3-1.8,0.5-2.7,0.5s-1.9-0.2-2.7-0.5s-1.6-0.7-2.2-1.2
		c-0.6-0.5-1.1-1.1-1.5-1.8c-0.3-0.7-0.5-1.4-0.5-2.1c0-1.5,0.6-2.8,1.7-3.8C42.8,36.7,44.2,36.1,45.9,36 M47.7,22.9
		c0.5,0.1,1,0.2,1.6,0.4c0.6,0.1,1.1,0.3,1.6,0.4s1,0.2,1.4,0.3c0.4,0.1,0.7,0.1,0.8,0.1c0.2,0,0.4,0.1,0.6,0.1c0.2,0,0.3,0,0.5-0.1
		h0.6c0.2,0,0.5,0,0.8,0.1c0.6,0.1,1.1,0.4,1.7,0.7c0.6,0.3,1,0.6,1.3,1c0.3,0.3,0.2,0.6-0.2,0.9s-1.1,0.2-2.1-0.1
		c-0.2-0.1-0.7-0.2-1.5-0.5c-0.8-0.2-1.6-0.5-2.6-0.8s-2-0.6-3-0.9s-1.9-0.6-2.7-0.8c-1.7,0.9-3.4,1.7-5.2,2.5
		c-1.8,0.7-3.6,1.3-5.3,1.7c-1,0.2-1.6,0.3-1.8,0.1c-0.2-0.2,0-0.3,0.6-0.5c1.5-0.4,3.1-1,4.7-1.7c1.6-0.7,3.1-1.5,4.6-2.3
		s2.8-1.7,4.1-2.6s2.3-1.9,3.2-2.8c-0.4,0-1,0.1-1.8,0.1s-1.6,0.1-2.5,0.1s-1.6,0.1-2.3,0.1s-1.2,0.1-1.4,0.1c-0.3,0-0.6,0-1,0.1
		s-0.8,0.2-1.3,0.3c-0.2,0.1-0.5,0.1-0.7,0.2c-0.3,0-0.6,0-0.9-0.2c-0.3-0.1-0.7-0.2-1.1-0.3s-0.7-0.3-1-0.4
		c-0.5-0.2-0.8-0.5-0.8-0.7s0.4-0.3,1.1-0.2c0.2,0,0.5,0.1,0.8,0.1s0.6,0,0.9,0.1c0.3,0,0.6,0,0.9,0c0.3,0,0.6,0,0.9,0
		c0.6,0,1.4,0,2.4,0s2,0,2.9-0.1c1,0,1.9-0.1,2.7-0.1s1.3-0.1,1.6-0.1c0,0,0.1,0,0.2-0.1c0.1,0,0.2-0.1,0.3-0.1s0.2-0.1,0.3-0.1
		s0.2-0.1,0.3-0.1c0.4,0,0.8,0,1.3,0s0.8,0,1,0c0.5,0.1,0.8,0.2,0.8,0.5c0.1,0.3-0.1,0.6-0.4,0.9c-0.1,0.1-0.2,0.2-0.3,0.3
		c-0.1,0.1-0.2,0.2-0.3,0.2c-0.1,0.1-0.2,0.2-0.3,0.3c-0.1,0.1-0.2,0.2-0.4,0.3c-0.7,0.6-1.5,1.3-2.5,1.9
		C49.8,21.6,48.8,22.3,47.7,22.9 M48.1,31.4c0.5,0,1,0,1.4,0s0.8,0,1.2,0s0.7,0,1-0.1c0.3,0,0.5,0,0.7,0c0.6,0,1.1,0,1.5-0.1
		c0.4,0,0.7-0.1,0.9-0.1c0.1,0,0.2-0.1,0.4-0.1c0.2-0.1,0.3-0.1,0.5-0.2c0.2,0,0.3-0.1,0.5-0.1s0.3-0.1,0.5-0.1
		c0.7-0.1,1.3-0.1,1.9-0.1c0.6,0,1.2,0.1,1.7,0.1c0.4,0.1,0.8,0.2,1,0.4c0.3,0.2,0.4,0.4,0.4,0.7c0,0.3-0.2,0.5-0.5,0.7
		c-0.3,0.1-0.7,0.2-1.2,0.2c-0.6,0-1.2,0-1.8,0s-1.3,0-1.9-0.1c-0.7,0-1.3,0-2-0.1c-0.6,0-1.2,0-1.8-0.1c-0.8,0-1.9,0-3.2,0
		s-2.6,0-4,0.1c-1.3,0-2.6,0.1-3.8,0.2c-1.2,0.1-2.1,0.1-2.7,0.2c-0.2,0-0.4,0.1-0.6,0.1c-0.2,0-0.3,0.1-0.5,0.1s-0.4,0.1-0.5,0.1
		c-0.2,0-0.4,0.1-0.6,0.1c-0.3,0.1-0.6,0.1-1,0.1c-0.3,0-0.7-0.1-1.2-0.2C34,33,33.5,32.9,33,32.7s-1-0.4-1.4-0.5
		c-0.9-0.4-1.2-0.7-1-0.9c0.2-0.2,0.8-0.3,1.7-0.2c0.7,0.1,1.5,0.1,2.5,0.2c0.9,0.1,2.2,0.1,3.9,0.1c0.9,0,2,0,3.2,0
		c1.3,0,2.6,0,3.8-0.1v-2.2c0-0.2,0-0.5-0.1-0.8s-0.2-0.5-0.4-0.7c-0.2-0.1-0.4-0.3-0.7-0.4s-0.6-0.2-1-0.3
		c-0.4-0.1-0.5-0.2-0.4-0.5c0.1-0.2,0.4-0.4,0.8-0.4c0.4,0,1,0,1.7,0.1s1.3,0.2,1.8,0.3c0.2,0.1,0.3,0.2,0.4,0.3
		c0.1,0.2,0.1,0.3,0,0.5s-0.1,0.4-0.1,0.7c0,0.3,0,0.6,0,0.8v2.7C47.7,31.4,48.1,31.4,48.1,31.4z"/>
	<path class="st0" d="M144.2,20.5c0.4,0.2,0.9,0.4,1.5,0.7c0.6,0.3,1.3,0.5,1.9,0.8c0.7,0.3,1.3,0.5,1.8,0.7
		c0.6,0.2,0.9,0.4,1.2,0.4c0.2,0.1,0.4,0.1,0.6,0.2c0.2,0,0.3,0.1,0.4,0.1c0.1,0,0.3,0,0.4,0c0.1,0,0.3,0,0.4,0
		c0.1,0,0.3,0.1,0.4,0.1c0.2,0,0.3,0.1,0.5,0.2c0.4,0.2,0.8,0.4,1.3,0.7c0.5,0.3,0.9,0.6,1.2,0.9s0.5,0.6,0.6,0.9s0,0.5-0.2,0.7
		s-0.4,0.2-0.8,0.2c-0.4,0-0.8-0.1-1.3-0.4c-0.5-0.2-1.2-0.6-2.2-1c-1-0.5-2-1-3.1-1.5s-2.2-1-3.2-1.5s-1.8-0.9-2.4-1.2
		c-1.4,1.4-3.1,2.7-5,3.7s-3.6,1.8-5.4,2.4c-1,0.3-1.6,0.4-1.8,0.2c-0.2-0.2-0.1-0.3,0.3-0.5c0.9-0.3,2-0.8,3.1-1.4s2.2-1.3,3.3-2.1
		c1.1-0.8,2.1-1.7,3.1-2.7s1.7-2,2.4-3.2c0.1-0.2,0.1-0.3,0.1-0.5s-0.1-0.4-0.3-0.6c-0.1-0.1-0.4-0.3-0.7-0.4s-0.6-0.3-1-0.4
		s-0.5-0.3-0.4-0.5s0.5-0.3,1.2-0.2c0.5,0.1,1,0.2,1.7,0.3s1.2,0.4,1.7,0.6c0.3,0.2,0.5,0.4,0.5,0.5c0.1,0.2,0.1,0.4,0.1,0.6
		s-0.1,0.4-0.2,0.5c-0.1,0.2-0.2,0.4-0.3,0.5c-0.3,0.4-0.5,0.8-0.8,1.1C144.8,19.8,144.5,20.1,144.2,20.5 M145.6,33v6
		c0,1.1,0,2.2-0.1,3.2c0,1-0.1,1.8-0.2,2.5c-0.1,0.7-0.2,1.3-0.4,1.7s-0.3,0.6-0.6,0.6c-0.2,0-0.3-0.2-0.4-0.5
		c-0.1-0.4-0.2-0.9-0.2-1.5c-0.1-0.6-0.1-1.2-0.1-1.9s0-1.4,0-2v-7.9c-1.3,0-2.6,0.1-3.8,0.1c-1.2,0.1-2.1,0.1-2.7,0.2
		c-0.2,0-0.4,0.1-0.6,0.1c-0.2,0-0.3,0.1-0.5,0.1s-0.3,0.1-0.5,0.1s-0.4,0.1-0.6,0.1c-0.3,0.1-0.7,0.1-1,0.1s-0.7-0.1-1.2-0.2
		c-0.4-0.1-0.8-0.2-1.4-0.4c-0.5-0.2-1-0.4-1.4-0.6c-0.9-0.4-1.2-0.7-1-0.9s0.8-0.3,1.6-0.2c0.7,0.1,1.6,0.1,2.5,0.2
		s2.2,0.1,3.8,0.1c0.9,0,2,0,3.3,0s2.5,0,3.8,0s2.4,0,3.5-0.1c1.1,0,1.8,0,2.3-0.1c0.6,0,1.1,0,1.5-0.1c0.4,0,0.7-0.1,0.9-0.1
		c0.1,0,0.3-0.1,0.4-0.1c0.1-0.1,0.3-0.1,0.5-0.2c0.2,0,0.3-0.1,0.5-0.1s0.3-0.1,0.5-0.1c0.7-0.1,1.3-0.1,1.9-0.1
		c0.6,0,1.2,0.1,1.7,0.1c0.4,0.1,0.8,0.2,1,0.4c0.3,0.2,0.4,0.4,0.4,0.7c0,0.3-0.2,0.5-0.5,0.6s-0.7,0.2-1.1,0.2c-0.6,0-1.2,0-1.8,0
		s-1.3,0-1.9-0.1c-0.6,0-1.3,0-1.9,0c-0.6,0-1.2,0-1.8-0.1c-0.6,0-1.2,0-2,0C147.3,33,146.5,33,145.6,33"/>
	<path class="st0" d="M175.7,6.2v9.1c0,1.3-0.1,2.5-0.3,3.5s-0.5,1.5-0.9,1.5c-0.2,0-0.3-0.1-0.4-0.3c-0.1-0.3-0.2-0.6-0.2-0.9
		c-0.1-0.4-0.1-0.8-0.1-1.2c0-0.4,0-0.8,0-1.2V6.4c0-0.7,0-1.2-0.1-1.6c-0.1-0.3-0.3-0.6-0.5-0.8c-0.3-0.2-0.8-0.4-1.3-0.6
		c-0.5-0.2-1-0.3-1.5-0.4c-0.4,0-0.5-0.2-0.4-0.4s0.4-0.4,0.8-0.4c0.3,0,0.7,0,1.1,0.1c0.4,0.1,0.9,0.1,1.3,0.2
		c0.5,0.1,0.9,0.2,1.3,0.2c0.4,0.1,0.8,0.2,1.1,0.3c0.2,0.1,0.3,0.2,0.4,0.3c0.1,0.1,0.1,0.3,0.1,0.5c-0.1,0.4-0.2,0.8-0.3,1.2
		C175.8,5.4,175.7,5.8,175.7,6.2 M173.7,31.5v-4.9l-10.4,0.1v5L173.7,31.5z M175.6,23.4v7.1c0,1-0.1,1.8-0.3,2.4
		c-0.2,0.6-0.5,0.9-0.9,0.9c-0.3,0-0.4-0.1-0.5-0.4c-0.1-0.3-0.2-0.5-0.2-0.8l-10.4,0.1c0,0,0,0.1,0,0.3s-0.1,0.3-0.1,0.6
		c-0.1,0.2-0.2,0.3-0.3,0.5c-0.1,0.1-0.3,0.2-0.5,0.2c-0.3,0-0.6-0.2-0.7-0.6c-0.1-0.4-0.2-1.2-0.2-2.3v-6.6c0-0.2,0-0.5-0.1-0.8
		s-0.2-0.5-0.3-0.6c-0.2-0.1-0.5-0.3-0.9-0.4c-0.4-0.2-0.7-0.3-1.2-0.3c-0.4-0.1-0.5-0.2-0.4-0.4c0.1-0.2,0.4-0.3,0.8-0.3
		c0.2,0,0.5,0,0.8,0.1c0.3,0,0.7,0.1,1,0.1c0.4,0.1,0.7,0.1,1.1,0.2c0.3,0.1,0.6,0.1,0.9,0.2c0.2,0.1,0.3,0.2,0.4,0.3
		c0.1,0.1,0.1,0.3,0,0.5c-0.1,0.1-0.1,0.3-0.1,0.6c0,0.3,0,0.5,0,0.8v0.9l10.4-0.1v-1.9c0-0.2,0-0.5-0.1-0.7
		c-0.1-0.3-0.2-0.5-0.4-0.7c-0.2-0.1-0.5-0.3-0.8-0.4c-0.4-0.2-0.7-0.3-1.1-0.3c-0.4-0.1-0.5-0.2-0.4-0.4c0.1-0.2,0.4-0.3,0.8-0.3
		c0.2,0,0.4,0,0.8,0.1c0.3,0,0.7,0.1,1,0.1c0.4,0,0.7,0.1,1,0.2s0.6,0.1,0.8,0.2s0.3,0.2,0.4,0.3c0.1,0.1,0.1,0.3,0.1,0.5
		c-0.1,0.2-0.1,0.4-0.1,0.7C175.7,22.9,175.6,23.2,175.6,23.4 M160.2,7.5c-0.7,0-1.3,0.1-1.9,0.4c-0.6,0.3-1.1,0.6-1.5,1
		s-0.8,0.9-1,1.5c-0.3,0.6-0.4,1.2-0.4,1.8c0,0.7,0.1,1.3,0.4,1.9c0.3,0.6,0.6,1.1,1,1.5c0.5,0.4,1,0.8,1.5,1
		c0.6,0.2,1.2,0.4,1.9,0.4c0.6,0,1.3-0.1,1.8-0.4c0.6-0.2,1.1-0.6,1.5-1c0.5-0.4,0.8-0.9,1.1-1.5s0.4-1.2,0.4-1.9
		c0-0.6-0.1-1.3-0.4-1.8c-0.3-0.6-0.6-1.1-1.1-1.5c-0.4-0.4-0.9-0.8-1.5-1C161.5,7.6,160.9,7.5,160.2,7.5 M159.5,6.5L159.5,6.5
		c0-0.1,0-0.1,0.1-0.1c0-0.1,0-0.2-0.1-0.4c-0.1-0.2-0.3-0.3-0.6-0.5c-0.3-0.1-0.5-0.3-0.4-0.5s0.4-0.3,0.8-0.3c0.3,0,0.7,0,1.1,0.1
		c0.4,0.1,0.8,0.1,1,0.2c0.1,0.1,0.2,0.1,0.3,0.2c0,0.1,0.1,0.2,0,0.3c0,0.1-0.1,0.2-0.1,0.4c0,0.1-0.1,0.3-0.1,0.3v0.2
		c1.7,0.2,3.1,0.9,4.2,2c1.1,1.1,1.6,2.4,1.6,4c0,0.8-0.2,1.6-0.5,2.3c-0.4,0.7-0.8,1.4-1.5,1.9c-0.6,0.5-1.4,0.9-2.2,1.3
		c-0.9,0.3-1.8,0.5-2.8,0.5s-1.9-0.2-2.8-0.5c-0.8-0.3-1.6-0.7-2.2-1.3c-0.6-0.5-1.1-1.2-1.4-1.9c-0.3-0.7-0.5-1.5-0.5-2.3
		c0-1.6,0.6-2.9,1.7-4.1C156.1,7.3,157.6,6.6,159.5,6.5"/>
	<path class="st0" d="M192.1,11.6c-0.8,0-1.5,0.1-2.2,0.4c-0.7,0.3-1.3,0.7-1.7,1.2c-0.5,0.5-0.9,1.1-1.2,1.8s-0.4,1.4-0.4,2.1
		c0,0.8,0.1,1.5,0.4,2.2c0.3,0.7,0.7,1.2,1.2,1.8c0.5,0.5,1.1,0.9,1.7,1.2c0.7,0.3,1.4,0.4,2.2,0.4s1.5-0.1,2.2-0.4s1.3-0.7,1.8-1.2
		s0.9-1.1,1.2-1.8c0.3-0.7,0.4-1.4,0.4-2.2c0-0.8-0.2-1.5-0.4-2.1c-0.3-0.7-0.7-1.3-1.2-1.8s-1.1-0.9-1.8-1.2
		C193.7,11.7,192.9,11.6,192.1,11.6 M191.3,10.5C191.3,10.5,191.4,10.4,191.3,10.5v-0.1c0,0,0,0,0-0.1s0-0.2-0.1-0.4
		s-0.3-0.4-0.6-0.5s-0.5-0.3-0.3-0.5c0.1-0.2,0.4-0.3,0.8-0.3c0.3,0,0.6,0,1,0.1s0.7,0.1,0.9,0.2c0.2,0.1,0.3,0.1,0.3,0.2
		c0,0.1,0.1,0.2,0,0.3c0,0.1,0,0.1-0.1,0.2c0,0.1,0,0.1-0.1,0.2c0,0.1,0,0.1-0.1,0.2c0,0.1,0,0.1,0,0.2v0.2c0,0,0,0.1,0.1,0.1
		c1,0.1,1.9,0.4,2.7,0.8c0.8,0.4,1.5,0.9,2.1,1.4c0.6,0.6,1.1,1.3,1.4,2c0.3,0.8,0.5,1.6,0.5,2.5s-0.2,1.8-0.6,2.6
		c-0.4,0.8-1,1.5-1.7,2.1S196,23,195,23.3c-1,0.4-2,0.5-3.1,0.5s-2.1-0.2-3.1-0.5c-1-0.4-1.8-0.8-2.5-1.4s-1.3-1.3-1.6-2.1
		c-0.4-0.8-0.6-1.7-0.6-2.6s0.2-1.7,0.5-2.5s0.8-1.5,1.4-2.1c0.6-0.6,1.4-1.1,2.2-1.5C189.4,10.8,190.3,10.6,191.3,10.5 M193.9,31.9
		c0.8,0,1.5,0,2.1,0s1.1,0,1.5,0c0.6,0,1.1,0,1.5-0.1c0.4,0,0.7-0.1,0.8-0.1s0.2-0.1,0.4-0.1c0.2-0.1,0.3-0.1,0.5-0.2
		c0.2,0,0.3-0.1,0.5-0.1s0.4-0.1,0.5-0.1c0.7-0.1,1.3-0.1,1.9-0.1c0.6,0,1.2,0.1,1.8,0.1c0.4,0.1,0.7,0.2,1,0.4
		c0.3,0.2,0.4,0.4,0.4,0.7s-0.2,0.5-0.5,0.6s-0.7,0.2-1.1,0.2c-0.6,0-1.2,0-1.8,0s-1.3,0-1.9-0.1c-0.6,0-1.3,0-1.9-0.1
		c-0.6,0-1.2,0-1.8-0.1c-0.8,0-1.8,0-3,0s-2.4,0-3.5,0.1c-1.2,0-2.4,0.1-3.4,0.1c-1.1,0-1.9,0.1-2.5,0.2c-0.2,0-0.4,0.1-0.6,0.1
		c-0.2,0-0.3,0.1-0.5,0.1s-0.3,0.1-0.5,0.1s-0.4,0.1-0.6,0.1c-0.3,0.1-0.7,0.1-1,0.1s-0.7-0.1-1.2-0.2c-0.4-0.1-0.8-0.2-1.4-0.4
		c-0.5-0.2-1-0.4-1.4-0.6c-0.9-0.4-1.2-0.7-1-0.9c0.2-0.2,0.7-0.3,1.6-0.2c0.7,0.1,1.6,0.1,2.5,0.2s2.2,0.1,3.9,0.1
		c0.9,0,1.9,0,3.1,0h3.5v-4.4c0-0.2,0-0.5-0.1-0.8s-0.2-0.5-0.4-0.6s-0.4-0.2-0.7-0.3s-0.6-0.2-0.9-0.2c-0.4,0-0.5-0.2-0.4-0.4
		c0.1-0.3,0.4-0.4,0.8-0.4c0.4,0,0.9,0,1.7,0.1c0.7,0,1.3,0.1,1.8,0.2c0.2,0,0.3,0.1,0.4,0.3c0.1,0.1,0.1,0.3,0,0.5
		c0,0.1-0.1,0.3-0.1,0.6c0,0.3,0,0.5,0,0.8L193.9,31.9L193.9,31.9z"/>
	<path class="st0" d="M228.9,16.4v20.5c0,1.1,0,2.2-0.1,3.2c0,1-0.1,1.8-0.2,2.5c-0.1,0.7-0.2,1.3-0.4,1.7c-0.1,0.4-0.3,0.6-0.6,0.6
		c-0.2,0-0.3-0.2-0.4-0.5c-0.1-0.4-0.2-0.9-0.2-1.5s-0.1-1.2-0.1-1.9s0-1.4,0-2V16.6c0-0.7,0-1.2-0.1-1.6c-0.1-0.3-0.3-0.6-0.6-0.8
		s-0.8-0.4-1.3-0.6c-0.5-0.2-1-0.3-1.5-0.4c-0.4,0-0.5-0.2-0.4-0.4s0.4-0.4,0.8-0.4c0.3,0,0.7,0,1.1,0.1c0.4,0.1,0.9,0.1,1.3,0.2
		c0.5,0.1,0.9,0.1,1.3,0.2c0.4,0.1,0.8,0.2,1.1,0.3c0.2,0.1,0.3,0.2,0.4,0.3c0.1,0.1,0.1,0.3,0.1,0.5c-0.1,0.4-0.2,0.8-0.3,1.2
		C228.9,15.6,228.9,16,228.9,16.4 M212.9,20.7c-0.7,0-1.4,0.1-2,0.4s-1.2,0.7-1.6,1.2c-0.5,0.5-0.8,1-1.1,1.7s-0.4,1.3-0.4,2.1
		c0,0.7,0.1,1.4,0.4,2.1c0.3,0.6,0.6,1.2,1.1,1.7s1,0.9,1.6,1.1c0.6,0.3,1.3,0.4,2,0.4s1.4-0.1,2-0.4s1.2-0.6,1.6-1.1
		c0.5-0.5,0.9-1,1.1-1.7s0.4-1.3,0.4-2.1c0-0.7-0.1-1.4-0.4-2.1c-0.3-0.7-0.7-1.2-1.1-1.7c-0.5-0.5-1-0.9-1.6-1.2
		C214.3,20.8,213.6,20.7,212.9,20.7 M212.1,19.6v-0.1v-0.1c0-0.1,0-0.2-0.1-0.4c-0.1-0.2-0.3-0.3-0.6-0.5c-0.3-0.1-0.5-0.3-0.4-0.5
		s0.4-0.3,0.8-0.3c0.3,0,0.6,0,1.1,0.1c0.4,0.1,0.8,0.1,1,0.2c0.1,0.1,0.2,0.1,0.3,0.2c0,0.1,0.1,0.2,0,0.4c0,0.1,0,0.1-0.1,0.2
		c0,0.1,0,0.1-0.1,0.2c0,0.1,0,0.1,0,0.2s0,0.1,0,0.1v0.2c0,0.1,0,0.1,0.1,0.2c1.8,0.3,3.3,1,4.5,2.2s1.8,2.7,1.8,4.3
		c0,0.9-0.2,1.8-0.6,2.6c-0.4,0.8-0.9,1.5-1.6,2.1c-0.7,0.6-1.5,1.1-2.4,1.4c-0.9,0.3-1.9,0.5-3,0.5s-2.1-0.2-3-0.5
		s-1.7-0.8-2.4-1.4s-1.2-1.3-1.6-2.1c-0.4-0.8-0.6-1.6-0.6-2.6c0-0.9,0.2-1.7,0.5-2.4c0.3-0.8,0.8-1.4,1.3-2c0.6-0.6,1.3-1,2.1-1.4
		C210.2,20,211.1,19.7,212.1,19.6"/>
</g>
</svg>
