<?xml version="1.0" encoding="UTF-8" standalone="no"?>
<!-- Generator: Adobe Illustrator 17.0.0, SVG Export Plug-In . SVG Version: 6.00 Build 0)  -->
<!DOCTYPE svg  PUBLIC '-//W3C//DTD SVG 1.1//EN'  'http://www.w3.org/Graphics/SVG/1.1/DTD/svg11.dtd'>
<svg id="Layer_1" xmlns="http://www.w3.org/2000/svg" xml:space="preserve" height="63px" viewBox="0 0 63 63" width="63px" version="1.1" y="0px" x="0px" xmlns:xlink="http://www.w3.org/1999/xlink" enable-background="new 0 0 63 63">
	<defs>
		<rect id="SVGID_1_" y=".896" x=".826" height="61.208" width="61.349"/>
	</defs>
	<clipPath id="SVGID_2_">
		<use overflow="visible" xlink:href="#SVGID_1_"/>
	</clipPath>
	<path fill="#2B2823" d="m31.5 0.896c1.169 1.685 2.214 3.494 3.139 5.422h-6.277c1.017-1.835 2.063-3.643 3.138-5.422" clip-path="url(#SVGID_2_)"/>
	<path fill="#2B2823" d="m23.082 21.442c-0.954 13.319 13.03 23.034 25.111 16.692 1.426-0.748 4.948-2.848 5.422-4.565 0.264-0.956 0.113-2.74 0-4.138-0.352-4.347-1.458-7.243-3.71-10.7-2.262-3.474-7.005-7.062-10.843-8.418-2.009-0.71-5.719-0.978-9.274-0.999-0.087 0.008-0.169 0.021-0.143 0.143-3.558 2.758-6.196 6.868-6.563 11.985m8.133-13.412c8.657-0.031 15.854 4.08 19.546 9.702 0.916 1.394 2.54 3.916 3.281 6.421 4.143 13.977-4.35 26.417-15.123 29.819-4.335 1.369-9.667 1.589-14.553 0.142-1.987-0.589-4.608-2.021-6.42-3.282-7.123-4.959-12.556-15.609-8.846-27.108 0.641-1.984 2.105-4.58 2.997-5.849 3.439-4.901 10.104-9.811 19.118-9.845" clip-path="url(#SVGID_2_)"/>
	<path fill="#2B2823" d="m9.957 9.886c2.088 0.479 4.007 1.129 6.135 1.57-1.391 1.604-3.033 2.959-4.423 4.565-0.691-1.925-1.144-4.088-1.712-6.135" clip-path="url(#SVGID_2_)"/>
	<path fill="#2B2823" d="m53.187 9.886c-0.483 2.085-1.165 3.971-1.57 6.135-1.605-1.391-2.96-3.033-4.565-4.424 1.902-0.713 4.052-1.178 6.135-1.711" clip-path="url(#SVGID_2_)"/>
	<path fill="#2B2823" d="m31.643 17.446c0.045 3.815-0.566 7.691-0.143 11.414 1.616 0.046 2.887-0.252 4.566-0.142 0.741-3.341-0.014-7.573 0.142-11.272 1.359 0.118 2.513 0.181 3.853 0 0.404 1.562-0.497 4.37 0.285 5.849 3.026-0.16 2.591-3.78 3.852-5.705 0.931-0.141 2.674-0.014 3.567 0-0.562 2.908-1.321 5.622-3.424 6.99 1.063 2.552 2.997 4.232 3.424 7.419-0.656 0.488-2.697 0.344-3.567 0.143-1.594-1.402-1.761-4.232-3.424-5.565-1.542 0.728-0.273 3.685-0.57 5.422-3.592 0.601-8.569 0.228-12.414 0.143 0.093-4.897-0.134-10.231 0-14.696 1.34 0.182 2.494 0.118 3.853 0" clip-path="url(#SVGID_2_)"/>
	<path fill="#2B2823" d="m6.247 34.568c-1.911-0.895-3.51-2.102-5.422-2.996 1.42-1.387 3.59-2.022 5.136-3.282 0.661 1.528 0.1 4.277 0.286 6.278" clip-path="url(#SVGID_2_)"/>
	<path fill="#2B2823" d="m56.611 28.29c1.905 0.996 3.642 2.161 5.564 3.138-1.795 1.108-3.555 2.248-5.564 3.14v-6.278z" clip-path="url(#SVGID_2_)"/>
	<path fill="#2B2823" d="m51.332 46.838c0.68 1.982 1.183 4.144 1.712 6.277-1.954-0.567-3.901-1.14-5.992-1.569 0.778-1.653 3.028-3.056 4.28-4.708" clip-path="url(#SVGID_2_)"/>
	<path fill="#2B2823" d="m11.383 46.981c1.638 1.314 3.707 2.946 4.566 4.565-2.12 0.401-4.061 0.98-5.992 1.569 0.098-1.851 1.101-4.034 1.426-6.134" clip-path="url(#SVGID_2_)"/>
	<path fill="#2B2823" d="m28.362 56.539h6.42c-1.022 1.88-2.169 3.633-3.139 5.565-1.25-1.698-2.234-3.663-3.281-5.565" clip-path="url(#SVGID_2_)"/>
</svg>
