<svg version="1.1" id="Layer_1" xmlns="http://www.w3.org/2000/svg" x="0" y="0" viewBox="0 0 130 29.9" xml:space="preserve"><style>.st0{fill:#e2e2e2}</style><path class="st0" d="M0 0v21.3L65 29l65-7.7V0H0zm39.8 7.6H41v2.6h1.1V7.4h1.2v6.8h-1.2v-3H41v2.7h-1.2V7.6zm-7.7 10.7h-1.2v-4.1h-2.5c-.5 1.1-1.3 1.7-2.3 1.7-1.6 0-2.7-1.5-2.7-3.8s1.1-3.8 2.7-3.8c1 0 1.8.6 2.3 1.5H31V7.4h1.1v10.9zm2-9.7h2.1V7.5h1.2v1.1h2.1v1h-5.4v-1zm.4 3.3c0-1.1 1-1.9 2.3-1.9 1.4 0 2.3.8 2.3 1.9 0 1.2-1 1.9-2.3 1.9-1.4 0-2.3-.7-2.3-1.9zm5.2 6.3c-2.3 0-3.7-.7-3.7-1.9s1.4-1.9 3.7-1.9 3.7.7 3.7 1.9-1.4 1.9-3.7 1.9zM51.3 16c-1.3-.6-2.2-1.7-2.7-3.1-.5 1.5-1.5 2.8-2.7 3.4l-.7-1c1.7-.8 2.8-2.8 2.8-4.7v-1h-2.4v-1h6.1v1h-2.4l-.1 1c0 1.8 1.1 3.7 2.8 4.4l-.7 1zm2.8 2.2h-1.2V7.4h1.2v10.8zm6.2-2.5h-.9V8.4h4.9v1h-3.7v5.2h.1c1.8 0 3-.1 4.3-.3l.1 1c-1.5.3-2.8.4-4.8.4zm7.6 2.6h-1.2v-6h-2.9v-1h2.9V7.4h1.2v10.9zm11.9-1.4H70v-1h4.3v-2.2h-3.2V8.2h1.2V10h5.1V8.2h1.2v5.6h-3.2V16l4.4-.1v1zm1.9-.5l-.7-1c2.8-1.4 4.2-3.3 4.4-5.8h-3.9v-1h5.2c0 3.2-1.3 6-5 7.8zm8.2 1.8h-1.2V7.4h1.2v10.8zm20.9-.4l-1.2 1.2c-.1.1-.2.1-.3.1-.1 0-.2 0-.3-.1l-2.6-2.4-1 1.8c-.1.1-.2.2-.4.2-.1 0-.2-.2-.3-.3l-1.6-4.1c-.3.1-.6.1-.9.1-2.1 0-3.8-1.7-3.8-3.8 0-2.1 1.7-3.8 3.8-3.8 2.1 0 3.8 1.7 3.8 3.8 0 .3 0 .6-.1.9L110 13c.2.1.3.2.3.4s-.1.3-.2.4l-1.7 1 2.4 2.4c.1.2.1.4 0 .6z"/><path class="st0" d="M72.3 11h5.1v1.7h-5.1z"/><ellipse class="st0" cx="36.8" cy="11.9" rx="1.2" ry="1"/><path class="st0" d="M39.7 15.3c-1.5 0-2.4.3-2.4 1 0 .6.9 1 2.4 1 1.6 0 2.4-.3 2.4-1 0-.6-.9-1-2.4-1zM26 9.3c-.9 0-1.6 1-1.6 2.7 0 1.7.6 2.7 1.6 2.7.9.1 1.6-1 1.6-2.7 0-1.7-.6-2.7-1.6-2.7zM28.7 12.1c0 .4 0 .8-.1 1.1h2.2v-2.4h-2.2c.1.4.1.8.1 1.3zM102.3 9.2c-.7 0-1.3.6-1.3 1.3 0 .7.6 1.3 1.3 1.3l-.5-1.3v-.3c.1-.2.3-.3.5-.2l1.3.5c0-.7-.6-1.3-1.3-1.3z"/><path class="st0" d="M102.3 7.5c-1.7 0-3 1.3-3 3s1.3 3 3 3c.2 0 .4 0 .6-.1l-.3-.8h-.3c-1.2-.1-2.2-1-2.2-2.2s.9-2.1 2.1-2.1c1.2.1 2.2 1 2.2 2.2v.3l.8.3c.1-.2.1-.4.1-.6 0-1.7-1.3-3-3-3z"/></svg>