<svg xmlns="http://www.w3.org/2000/svg" width="127.6" height="28"><path fill="#bdbebf" d="M127.6 0v23.1L63.8 28 0 23.1V0z"/><path fill="#fff7f7" d="M37.8 19.1h-.5c-.1 0-.2-.1-.2-.2v-4.2h-2.5c-.5 1-1.2 1.8-2.5 1.8-2.1 0-2.8-2.1-2.8-3.9 0-1.9.7-3.9 2.8-3.9 1.2 0 2 .7 2.5 1.7h2.6V8.2c0-.1.1-.2.2-.2h.4c.1 0 .2.1.2.2v10.7c-.1.1-.1.2-.2.2zm-3.7-6.5c0-1.5-.6-3.1-2-3.1-1.5 0-2 1.6-2 3.1 0 1.4.4 3.1 2 3.1 1.5 0 2-1.7 2-3.1zm.9 0c0 .5-.1.9-.2 1.4h2.3v-2.8h-2.3c.1.4.2.9.2 1.4zm10.5-2.1h-5c-.1 0-.2-.1-.2-.2v-.4c0-.1.1-.2.2-.2h5c.1 0 .2 0 .2.2v.4c0 .1-.1.2-.2.2zm-.2 2.4c0 1-.8 1.9-2.3 1.9-1.5 0-2.3-.9-2.3-1.9 0-1 .8-1.9 2.3-1.9 1.5 0 2.3.9 2.3 1.9zm-.8 0c0-.7-.5-1.2-1.5-1.2s-1.5.5-1.5 1.2c0 .6.5 1.2 1.5 1.2s1.5-.6 1.5-1.2zM44.3 9h-2.6c-.1 0-.2-.1-.2-.2v-.3c0-.1.1-.2.2-.2h2.6c.1 0 .2.1.2.2v.4c0 .1-.1.1-.2.1zm5.3 8.3c0 1.2-1.8 1.8-3.7 1.8-2.1 0-3.6-.6-3.6-1.8 0-1.2 1.6-1.8 3.6-1.8s3.7.6 3.7 1.8zm-.8 0c0-.8-1.5-1.2-2.8-1.2-1.5 0-2.8.4-2.8 1.2 0 .8 1.3 1.1 2.8 1.1 1.3.1 2.8-.3 2.8-1.1zm-1.5-6.1h1.5v-3c0-.1.1-.2.2-.2h.5c.1 0 .2.1.2.2V15c0 .1-.1.2-.2.2H49c-.1 0-.2-.1-.2-.2v-3h-1.5v2.7c0 .1-.1.2-.2.2h-.5c-.1 0-.2-.1-.2-.2V8.4c0-.1.1-.2.2-.2h.5c.1 0 .2.1.2.2zM58 15.8c0 .1-.1.1-.2 0-.8-.6-1.7-1.5-2.4-2.4-.8 1-1.8 1.9-3.1 2.8-.1 0-.2.1-.2 0l-.3-.4c-.1-.1 0-.2 0-.2 2.6-1.8 3.9-3.6 4.5-5.6.1-.2 0-.3-.2-.3h-3.6c-.1 0-.1 0-.1-.2v-.4c0-.1.1-.1.2-.1h3.9c.8 0 1 .3.8 1-.3 1-.8 2-1.3 2.8.7 1 1.7 2 2.4 2.5.1.1.1.2 0 .2zm2.3 3.3h-.5c-.1 0-.2-.1-.2-.2V8.2c.1-.1.1-.2.2-.2h.5c.1 0 .2.1.2.2v10.7c0 .1-.1.2-.2.2zm13-3.8c0 .1 0 .2-.2.2-1.1.3-3.8.6-5.4.5-.7 0-.9-.3-.9-1V9.8c0-.7.2-.8.9-.8h4.1c.1 0 .2 0 .2.1v.4c0 .1 0 .1-.2.1h-4c-.2 0-.2 0-.2.3v5c0 .2.1.3.3.3 1.8 0 3.7-.2 5.1-.5.1 0 .2 0 .2.1zm1-3.4V8.2c0-.1.1-.2.2-.2h.5c.1 0 .2.1.2.2v10.7c0 .1-.1.2-.2.2h-.5c-.1 0-.2-.1-.2-.2v-6.3h-3.2c-.1 0-.2 0-.2-.1V12c0-.1 0-.1.2-.1zm8.5 2.1v2.5h4.7c.1 0 .2.1.2.2v.3c0 .1-.1.2-.2.2H77.3c-.1 0-.2-.1-.2-.2v-.4c0-.1.1-.2.2-.2H82V14h-2.4c-.8 0-.9-.2-.9-.9V8.7c0-.1.1-.1.2-.1h.5c.1 0 .1.1.1.1v1.9h5.8V8.7c0-.1.1-.2.1-.2h.5c.1 0 .2.1.2.1v4.6c0 .6-.2.8-.9.8zm-3.3-2.7V13c0 .2.1.3.3.3H85c.2 0 .3 0 .3-.3v-1.7zm15-1.5c-.2 2.7-1.9 5.4-4.8 7-.1.1-.2 0-.2 0l-.3-.4c-.1-.1 0-.2 0-.2 2.7-1.4 4.2-3.7 4.4-6.1 0-.2-.1-.3-.3-.3h-3.8c-.1 0-.1 0-.1-.2v-.4c0-.1 0-.1.1-.1h4c.8-.2 1 .1 1 .7zm3 9.3H97c-.1 0-.2-.1-.2-.2V8.2c0-.1.1-.2.2-.2h.5c.1 0 .2.1.2.2v10.7c0 .1-.1.2-.2.2z" class="st2"/></svg>