<?xml version="1.0" encoding="utf-8"?>
<!-- Generator: Adobe Illustrator 24.0.1, SVG Export Plug-In . SVG Version: 6.00 Build 0)  -->
<svg version="1.1" id="Layer_1" xmlns="http://www.w3.org/2000/svg" xmlns:xlink="http://www.w3.org/1999/xlink" x="0px" y="0px"
	 viewBox="0 0 130 29.9" style="enable-background:new 0 0 130 29.9;" xml:space="preserve">
<style type="text/css">
	.st0{fill:#E2E2E2;}
	.st1{fill:#FFFFFF;}
	.st2{font-family:'NotoSansCJKjp-Medium-90ms-RKSJ-H';}
	.st3{font-size:12px;}
</style>
<title>more button P</title>
<polygon class="st0" points="130,0 130,21.3 65,29 0,21.3 0,0 "/>
<text transform="matrix(1 0 0 1 22.48 17.3401)" class="st1 st2 st3">여행지 더보기</text>
<path class="st1" d="M108.8,17.2l-2.4-2.4l1.7-1c0.1-0.1,0.2-0.2,0.2-0.4c0-0.2-0.1-0.3-0.3-0.4l-4.1-1.6c0.1-0.3,0.1-0.6,0.1-0.9
	c0-2.1-1.7-3.8-3.8-3.8s-3.8,1.7-3.8,3.8s1.7,3.8,3.8,3.8c0.3,0,0.6,0,0.9-0.1l1.6,4.1c0.1,0.1,0.2,0.3,0.3,0.3
	c0.2,0,0.3-0.1,0.4-0.2l1-1.8L107,19c0.1,0.1,0.2,0.1,0.3,0.1c0.1,0,0.2,0,0.3-0.1l1.2-1.2C108.9,17.6,108.9,17.4,108.8,17.2z
	 M100.3,10c-0.2-0.1-0.4,0-0.5,0.2c0,0.1,0,0.2,0,0.3l0.5,1.3c-0.7,0-1.3-0.6-1.3-1.3c0-0.7,0.6-1.3,1.3-1.3c0,0,0,0,0,0l0,0
	c0.7,0,1.3,0.6,1.3,1.3L100.3,10z M100.3,13.5c-1.7,0-3-1.3-3-3s1.3-3,3-3s3,1.3,3,3c0,0.2,0,0.4-0.1,0.6l-0.8-0.3
	c0-0.1,0-0.2,0-0.3c0-1.2-1-2.1-2.2-2.2l0,0c-1.2,0-2.1,0.9-2.1,2.1c0,0,0,0,0,0c0,1.2,1,2.1,2.2,2.2l0,0c0.1,0,0.2,0,0.3,0l0.3,0.8
	C100.7,13.5,100.5,13.5,100.3,13.5L100.3,13.5z"/>
</svg>
