<?xml version="1.0" encoding="utf-8"?>
<!-- Generator: Adobe Illustrator 17.0.0, SVG Export Plug-In . SVG Version: 6.00 Build 0)  -->
<!DOCTYPE svg PUBLIC "-//W3C//DTD SVG 1.1//EN" "http://www.w3.org/Graphics/SVG/1.1/DTD/svg11.dtd">
<svg version="1.1" id="Layer_1" xmlns="http://www.w3.org/2000/svg" xmlns:xlink="http://www.w3.org/1999/xlink" x="0px" y="0px"
	 width="447px" height="121px" viewBox="0 0 447 121" enable-background="new 0 0 447 121" xml:space="preserve">
<g enable-background="new    ">
	<path fill="#988F80" d="M286.625,112.14h-1.166V96.676h-5.377v-1.087h11.921v1.087h-5.378V112.14z"/>
	<path fill="#988F80" d="M299.021,99.597c0.521,0,1.079,0.053,1.676,0.158l-0.216,1.075c-0.513-0.128-1.045-0.192-1.596-0.192
		c-1.049,0-1.909,0.445-2.581,1.336s-1.008,2.016-1.008,3.374v6.792h-1.12V99.834h0.95l0.113,2.219h0.079
		c0.506-0.905,1.046-1.541,1.619-1.907S298.206,99.597,299.021,99.597z"/>
	<path fill="#988F80" d="M310.67,112.14l-0.282-1.947h-0.091c-0.619,0.793-1.255,1.353-1.907,1.682
		c-0.653,0.328-1.425,0.492-2.315,0.492c-1.208,0-2.147-0.31-2.819-0.929c-0.671-0.618-1.007-1.476-1.007-2.569
		c0-1.2,0.5-2.132,1.5-2.796s2.446-1.016,4.341-1.053l2.344-0.068v-0.815c0-1.169-0.237-2.053-0.713-2.648
		c-0.476-0.597-1.242-0.895-2.299-0.895c-1.14,0-2.32,0.317-3.543,0.951l-0.419-0.974c1.351-0.634,2.687-0.951,4.008-0.951
		c1.351,0,2.36,0.351,3.028,1.053s1.002,1.796,1.002,3.283v8.185H310.67z M306.143,111.348c1.313,0,2.349-0.376,3.107-1.127
		c0.758-0.751,1.138-1.794,1.138-3.13v-1.211l-2.151,0.09c-1.729,0.083-2.96,0.354-3.696,0.81c-0.735,0.457-1.104,1.168-1.104,2.134
		c0,0.77,0.235,1.368,0.707,1.795C304.615,111.134,305.281,111.348,306.143,111.348z"/>
	<path fill="#988F80" d="M318.176,112.14l-4.755-12.306h1.154l3.182,8.366c0.423,1.071,0.739,2.008,0.951,2.808h0.067
		c0.31-1.026,0.626-1.97,0.951-2.83l3.181-8.344h1.155l-4.755,12.306H318.176z"/>
	<path fill="#988F80" d="M331.093,112.366c-1.789,0-3.184-0.551-4.184-1.653c-1-1.102-1.5-2.645-1.5-4.63
		c0-1.962,0.483-3.533,1.449-4.715c0.966-1.181,2.269-1.771,3.906-1.771c1.448,0,2.592,0.506,3.43,1.517
		c0.838,1.012,1.257,2.385,1.257,4.121v0.905h-8.864c0.015,1.69,0.409,2.981,1.183,3.872c0.774,0.891,1.882,1.336,3.323,1.336
		c0.701,0,1.318-0.05,1.851-0.147s1.206-0.31,2.021-0.634v1.019c-0.694,0.302-1.336,0.508-1.924,0.617
		C332.451,112.312,331.802,112.366,331.093,112.366z M330.765,100.593c-1.186,0-2.137,0.391-2.854,1.172s-1.136,1.907-1.256,3.379
		h7.607c0-1.427-0.31-2.541-0.929-3.345C332.715,100.994,331.858,100.593,330.765,100.593z"/>
	<path fill="#988F80" d="M339.967,112.14h-1.12V94.525h1.12V112.14z"/>
	<path fill="#988F80" d="M359.438,112.14h-9.045V95.589h9.045v1.064h-7.891v6.26h7.449v1.064h-7.449v7.098h7.891V112.14z"/>
	<path fill="#988F80" d="M368.167,112.366c-1.895,0-3.275-0.709-4.144-2.128h-0.079l0.034,0.95c0.03,0.559,0.045,1.17,0.045,1.834
		v4.687h-1.12V99.834h0.951l0.215,1.755h0.067c0.846-1.328,2.196-1.992,4.053-1.992c1.66,0,2.927,0.545,3.799,1.636
		c0.871,1.091,1.307,2.677,1.307,4.76c0,2.023-0.458,3.591-1.375,4.704S369.752,112.366,368.167,112.366z M368.145,111.37
		c1.261,0,2.235-0.468,2.927-1.404c0.69-0.936,1.035-2.245,1.035-3.928c0-3.615-1.306-5.423-3.917-5.423
		c-1.434,0-2.486,0.395-3.158,1.184c-0.672,0.788-1.008,2.073-1.008,3.854v0.362c0,1.924,0.323,3.298,0.969,4.12
		C365.637,110.959,366.688,111.37,368.145,111.37z"/>
	<path fill="#988F80" d="M376.544,96.415c0-0.724,0.238-1.086,0.714-1.086c0.233,0,0.417,0.094,0.549,0.282
		c0.132,0.189,0.198,0.457,0.198,0.804c0,0.34-0.066,0.608-0.198,0.804c-0.132,0.197-0.315,0.295-0.549,0.295
		C376.782,97.514,376.544,97.147,376.544,96.415z M377.823,112.14h-1.12V99.834h1.12V112.14z"/>
	<path fill="#988F80" d="M389.574,108.936c0,1.103-0.419,1.949-1.257,2.542s-2.026,0.889-3.565,0.889
		c-1.646,0-2.951-0.253-3.917-0.759v-1.211c1.237,0.619,2.543,0.928,3.917,0.928c1.215,0,2.138-0.201,2.768-0.605
		c0.63-0.403,0.945-0.941,0.945-1.613c0-0.618-0.251-1.14-0.753-1.562c-0.502-0.423-1.326-0.838-2.474-1.246
		c-1.23-0.444-2.094-0.828-2.593-1.148c-0.498-0.321-0.873-0.684-1.126-1.087s-0.379-0.896-0.379-1.478
		c0-0.921,0.387-1.648,1.16-2.185s1.854-0.804,3.243-0.804c1.328,0,2.589,0.249,3.781,0.747l-0.419,1.019
		c-1.208-0.498-2.328-0.747-3.362-0.747c-1.004,0-1.8,0.166-2.389,0.498s-0.883,0.793-0.883,1.381c0,0.642,0.229,1.155,0.685,1.54
		c0.457,0.385,1.35,0.815,2.678,1.29c1.109,0.4,1.917,0.761,2.423,1.082c0.505,0.32,0.885,0.685,1.138,1.092
		C389.447,107.906,389.574,108.385,389.574,108.936z"/>
	<path fill="#988F80" d="M402.921,105.97c0,2.008-0.486,3.576-1.46,4.704s-2.317,1.692-4.03,1.692c-1.079,0-2.03-0.261-2.853-0.781
		c-0.823-0.521-1.453-1.268-1.891-2.241s-0.657-2.099-0.657-3.374c0-2.007,0.487-3.571,1.461-4.692
		c0.974-1.12,2.31-1.681,4.008-1.681c1.69,0,3.017,0.567,3.979,1.703C402.439,102.437,402.921,103.993,402.921,105.97z
		 M393.208,105.97c0,1.69,0.372,3.01,1.115,3.957s1.794,1.421,3.152,1.421s2.409-0.474,3.153-1.421
		c0.743-0.947,1.115-2.267,1.115-3.957c0-1.698-0.376-3.015-1.127-3.95c-0.751-0.937-1.806-1.404-3.164-1.404
		s-2.405,0.466-3.142,1.398C393.576,102.945,393.208,104.265,393.208,105.97z"/>
	<path fill="#988F80" d="M410.833,99.597c0.891,0,1.661,0.162,2.31,0.486c0.649,0.325,1.23,0.88,1.743,1.664h0.068
		c-0.045-0.95-0.068-1.883-0.068-2.796v-4.426h1.11v17.614h-0.736l-0.283-1.879h-0.091c-0.936,1.403-2.279,2.105-4.029,2.105
		c-1.698,0-2.996-0.528-3.895-1.585s-1.348-2.596-1.348-4.619c0-2.128,0.445-3.754,1.336-4.879
		C407.841,100.159,409.136,99.597,410.833,99.597z M410.833,100.615c-1.343,0-2.353,0.472-3.027,1.415
		c-0.676,0.943-1.014,2.313-1.014,4.109c0,3.487,1.354,5.23,4.064,5.23c1.389,0,2.407-0.404,3.057-1.212
		c0.648-0.807,0.973-2.14,0.973-3.996v-0.192c0-1.901-0.318-3.27-0.956-4.104S412.26,100.615,410.833,100.615z"/>
	<path fill="#988F80" d="M425.098,112.366c-1.789,0-3.184-0.551-4.184-1.653c-1-1.102-1.5-2.645-1.5-4.63
		c0-1.962,0.483-3.533,1.449-4.715c0.966-1.181,2.269-1.771,3.906-1.771c1.448,0,2.592,0.506,3.43,1.517
		c0.838,1.012,1.257,2.385,1.257,4.121v0.905h-8.864c0.015,1.69,0.409,2.981,1.183,3.872c0.774,0.891,1.882,1.336,3.323,1.336
		c0.701,0,1.318-0.05,1.851-0.147s1.206-0.31,2.021-0.634v1.019c-0.694,0.302-1.336,0.508-1.924,0.617
		C426.456,112.312,425.807,112.366,425.098,112.366z M424.77,100.593c-1.186,0-2.137,0.391-2.854,1.172s-1.136,1.907-1.256,3.379
		h7.607c0-1.427-0.31-2.541-0.929-3.345C426.72,100.994,425.863,100.593,424.77,100.593z"/>
	<path fill="#988F80" d="M440.482,108.936c0,1.103-0.419,1.949-1.257,2.542s-2.026,0.889-3.565,0.889
		c-1.646,0-2.951-0.253-3.917-0.759v-1.211c1.237,0.619,2.543,0.928,3.917,0.928c1.215,0,2.138-0.201,2.768-0.605
		c0.63-0.403,0.945-0.941,0.945-1.613c0-0.618-0.251-1.14-0.753-1.562c-0.502-0.423-1.326-0.838-2.474-1.246
		c-1.23-0.444-2.094-0.828-2.593-1.148c-0.498-0.321-0.873-0.684-1.126-1.087s-0.379-0.896-0.379-1.478
		c0-0.921,0.387-1.648,1.16-2.185s1.854-0.804,3.243-0.804c1.328,0,2.589,0.249,3.781,0.747l-0.419,1.019
		c-1.208-0.498-2.328-0.747-3.362-0.747c-1.004,0-1.8,0.166-2.389,0.498s-0.883,0.793-0.883,1.381c0,0.642,0.229,1.155,0.685,1.54
		c0.457,0.385,1.35,0.815,2.678,1.29c1.109,0.4,1.917,0.761,2.423,1.082c0.505,0.32,0.885,0.685,1.138,1.092
		C440.355,107.906,440.482,108.385,440.482,108.936z"/>
</g>
<g>
	<g>
		<defs>
			<rect id="SVGID_1_" x="2" y="1.279" width="508.261" height="118.721"/>
		</defs>
		<clipPath id="SVGID_2_">
			<use xlink:href="#SVGID_1_"  overflow="visible"/>
		</clipPath>
		<path clip-path="url(#SVGID_2_)" fill="#2B2823" d="M17.916,31.29c0.494,0.092,1.654,0.148,3.477,0.171
			c1.824,0.022,3.792,0.033,5.909,0.033c2.116,0,4.119-0.011,6.009-0.033c1.892-0.023,3.152-0.079,3.782-0.171
			c0.179,0,0.371-0.033,0.575-0.101c0.201-0.066,0.393-0.143,0.572-0.234c0.181-0.091,0.35-0.17,0.508-0.239
			c0.157-0.066,0.28-0.142,0.371-0.233c0.36-0.224,0.811-0.407,1.35-0.542c0.541-0.134,1.081-0.226,1.621-0.271
			c0.901,0,1.7,0.015,2.398,0.035c0.698,0.023,1.519,0.079,2.464,0.168c0.9,0.137,1.52,0.37,1.858,0.711
			c0.336,0.335,0.482,0.686,0.438,1.047c-0.09,0.404-0.394,0.764-0.911,1.079c-0.52,0.316-1.273,0.473-2.262,0.473
			c-0.811,0.043-2.533,0.079-5.166,0.102c-2.634,0.023-5.482,0.033-8.543,0.033c-3.063,0.045-5.977,0.078-8.744,0.101
			c-2.769,0.023-4.672,0.036-5.706,0.036V42.3c0,0.854,0.269,1.484,0.809,1.89c0.541,0.407,1.148,0.608,1.824,0.608l17.084-0.201
			c0.405,0,0.878-0.092,1.419-0.272c0.54-0.18,0.899-0.338,1.081-0.473c0.405-0.225,0.877-0.406,1.417-0.541
			c0.54-0.134,1.08-0.223,1.62-0.269c0.81,0,1.723-0.01,2.736-0.036c1.012-0.02,1.992,0.013,2.937,0.105
			c0.9,0.134,1.52,0.404,1.858,0.81c0.338,0.404,0.483,0.808,0.438,1.214c-0.046,0.407-0.328,0.755-0.843,1.047
			c-0.519,0.292-1.273,0.437-2.264,0.437l-27.753,0.203c-1.621,0-3.096-0.269-4.424-0.808c-1.328-0.541-1.992-1.869-1.992-3.986
			V23.527c0-1.486-0.395-2.5-1.181-3.038c-0.788-0.544-1.97-0.945-3.545-1.217c-0.811-0.135-1.149-0.45-1.013-0.945
			c0.135-0.496,0.719-0.765,1.756-0.81c0.449,0,1.012,0.035,1.687,0.101c0.676,0.066,1.395,0.145,2.161,0.236
			c0.721,0.089,1.474,0.191,2.263,0.302c0.787,0.115,1.52,0.194,2.194,0.239c0.811,0.089,1.992,0.158,3.545,0.201
			c1.554,0.046,3.253,0.046,5.099,0c1.891,0,3.803-0.023,5.74-0.068c1.935-0.044,3.714-0.112,5.335-0.201
			c0.449,0,0.866-0.089,1.25-0.272c0.381-0.178,0.663-0.335,0.843-0.473c0.405-0.177,0.878-0.335,1.419-0.472
			c0.54-0.132,1.079-0.223,1.619-0.269c0.811,0,1.666,0.01,2.567,0.036c0.9,0.02,1.823,0.076,2.768,0.167
			c0.901,0.092,1.52,0.305,1.858,0.64c0.338,0.341,0.483,0.689,0.438,1.047c-0.091,0.452-0.405,0.843-0.946,1.184
			c-0.54,0.335-1.283,0.503-2.228,0.503c-1.935,0-4.243,0.015-6.921,0.035c-2.679,0.026-5.436,0.059-8.273,0.102
			c-2.791,0-5.469,0.01-8.035,0.033c-2.567,0.023-4.682,0.033-6.347,0.033V31.29z M34.393,60.733c0.81,0,1.574-0.01,2.295-0.03
			c0.72-0.026,1.395-0.036,2.025-0.036c0.631,0,1.192-0.01,1.689-0.035c0.494-0.021,0.922-0.031,1.283-0.031
			c1.171,0,2.172-0.046,3.005-0.137c0.832-0.091,1.385-0.203,1.655-0.335c0.224-0.046,0.483-0.115,0.776-0.206
			c0.292-0.089,0.619-0.178,0.98-0.269c0.313-0.089,0.64-0.181,0.978-0.272c0.338-0.087,0.686-0.155,1.048-0.201
			c1.35-0.135,2.61-0.18,3.781-0.135c1.17,0.046,2.318,0.135,3.443,0.27c0.811,0.134,1.464,0.396,1.959,0.777
			s0.742,0.823,0.742,1.316c0,0.63-0.314,1.069-0.945,1.316c-0.63,0.249-1.35,0.35-2.161,0.305c-1.171,0-2.374-0.021-3.612-0.066
			c-1.238-0.046-2.51-0.092-3.815-0.138c-1.261-0.043-2.522-0.076-3.782-0.101c-1.261-0.021-2.431-0.053-3.512-0.102h-5.807
			c-2.296,0-4.615,0.026-6.955,0.071c-2.388,0.089-4.626,0.178-6.719,0.27c-2.094,0.088-3.705,0.203-4.828,0.335
			c-0.405,0.091-0.778,0.17-1.114,0.239c-0.339,0.066-0.665,0.144-0.98,0.233c-0.315,0.092-0.642,0.183-0.98,0.272
			c-0.337,0.089-0.708,0.158-1.114,0.201c-0.674,0.137-1.315,0.193-1.925,0.17c-0.607-0.023-1.383-0.17-2.328-0.439
			c-0.766-0.135-1.656-0.371-2.668-0.709c-1.014-0.338-1.903-0.709-2.667-1.115c-1.756-0.717-2.431-1.291-2.026-1.72
			s1.462-0.574,3.173-0.44c1.441,0.181,3.074,0.328,4.896,0.44c1.824,0.112,4.356,0.191,7.597,0.236
			c1.71,0.046,3.691,0.066,5.943,0.066h6.685v-6.752c0-0.447-0.067-0.945-0.203-1.484c-0.134-0.544-0.383-0.945-0.742-1.217
			c-0.362-0.18-0.81-0.358-1.35-0.541c-0.542-0.178-1.149-0.315-1.825-0.403c-0.72-0.044-0.978-0.328-0.776-0.846
			c0.203-0.516,0.709-0.798,1.519-0.844c0.766,0,1.867,0.046,3.31,0.135c1.441,0.091,2.61,0.206,3.511,0.338
			c0.314,0.091,0.563,0.282,0.743,0.574c0.179,0.294,0.203,0.643,0.067,1.046c-0.091,0.27-0.158,0.676-0.202,1.214
			c-0.045,0.544-0.067,1.04-0.067,1.489C34.393,53.442,34.393,60.733,34.393,60.733z"/>
	</g>
	<g>
		<defs>
			<rect id="SVGID_3_" x="2" y="1.279" width="508.261" height="118.721"/>
		</defs>
		<clipPath id="SVGID_4_">
			<use xlink:href="#SVGID_3_"  overflow="visible"/>
		</clipPath>
		<path clip-path="url(#SVGID_4_)" fill="#2B2823" d="M155.584,9.247v13.642c0.765,0,1.698-0.125,2.802-0.373
			c1.103-0.244,1.947-0.664,2.533-1.248c0.405-0.315,1.216-0.472,2.43-0.472c1.215,0,2.298,0.069,3.243,0.2
			c0.945,0.229,1.631,0.531,2.059,0.915c0.428,0.381,0.597,0.752,0.506,1.113c-0.09,0.406-0.405,0.742-0.946,1.011
			c-0.54,0.272-1.281,0.406-2.228,0.406h-10.399v2.297c0,1.306-0.057,2.576-0.169,3.815c-0.113,1.24-0.26,2.353-0.438,3.343
			c-0.182,0.945-0.418,1.723-0.709,2.328c-0.294,0.609-0.62,0.914-0.98,0.914c-0.361,0.046-0.642-0.203-0.845-0.744
			c-0.202-0.541-0.349-1.217-0.438-2.025c-0.135-0.811-0.215-1.667-0.236-2.566c-0.023-0.899-0.035-1.732-0.035-2.499V9.585
			c0-1.394-0.067-2.418-0.202-3.074c-0.134-0.65-0.472-1.178-1.012-1.585c-0.721-0.449-1.586-0.866-2.601-1.25
			c-1.013-0.381-1.97-0.663-2.869-0.843c-0.721-0.091-0.957-0.371-0.709-0.843c0.246-0.473,0.776-0.712,1.586-0.712
			c0.586,0,1.294,0.056,2.128,0.17c0.833,0.115,1.698,0.237,2.6,0.371c0.855,0.135,1.698,0.295,2.531,0.473
			c0.833,0.18,1.542,0.363,2.128,0.541c0.314,0.135,0.574,0.335,0.777,0.607c0.202,0.269,0.236,0.633,0.1,1.08
			c-0.269,0.813-0.438,1.6-0.505,2.365C155.618,7.649,155.584,8.437,155.584,9.247 M130.599,42.269l0.607,16.95l19.516-0.135
			l0.203-17.018L130.599,42.269z M132.083,40.512c1.037,0,2.399-0.008,4.087-0.031s3.386-0.056,5.098-0.102
			c1.711-0.045,3.285-0.101,4.726-0.17c1.442-0.068,2.454-0.144,3.039-0.236c0.18,0,0.36-0.036,0.541-0.102
			c0.179-0.066,0.359-0.122,0.541-0.167c0.178-0.092,0.359-0.168,0.54-0.239c0.178-0.066,0.382-0.099,0.607-0.099
			c0.449,0,1.114,0.013,1.992,0.033c0.877,0.023,1.632,0.102,2.263,0.236c0.674,0.18,1.024,0.44,1.046,0.778
			c0.022,0.337-0.125,0.708-0.439,1.115c-0.269,0.269-0.496,0.571-0.674,0.909c-0.182,0.341-0.295,0.712-0.338,1.115l-1.555,15.464
			c0.18,0,0.405,0.01,0.676,0.035c0.272,0.021,0.541,0.033,0.811,0.033c0.27,0.043,0.529,0.145,0.777,0.303
			c0.246,0.157,0.37,0.373,0.37,0.642c0,0.496-0.281,0.8-0.843,0.912c-0.564,0.112-1.25,0.168-2.06,0.168l-22.015,0.203
			c-0.09,0.991-0.259,1.755-0.506,2.297c-0.249,0.538-0.597,0.81-1.046,0.81c-0.496,0-0.891-0.272-1.181-0.81
			c-0.295-0.542-0.486-1.464-0.574-2.769l-1.488-16.681c-0.135-0.944-0.505-1.584-1.114-1.922c-0.607-0.338-1.518-0.643-2.733-0.912
			c-0.676-0.138-0.945-0.44-0.811-0.912c0.135-0.476,0.945-0.709,2.43-0.709c0.676,0.045,1.396,0.111,2.161,0.203
			c0.766,0.091,1.487,0.178,2.162,0.269c0.718,0.092,1.384,0.168,1.991,0.237C131.173,40.481,131.678,40.512,132.083,40.512
			 M135.73,11.544c-0.902,0.045-1.847,0.101-2.835,0.17c-0.991,0.066-1.959,0.122-2.905,0.168c-0.945,0.091-1.823,0.167-2.634,0.236
			c-0.809,0.069-1.462,0.102-1.957,0.102c-0.451,0.045-0.958,0.099-1.52,0.167c-0.564,0.069-1.071,0.17-1.519,0.305
			c-0.135,0.092-0.282,0.16-0.438,0.201c-0.159,0.046-0.305,0.091-0.441,0.137c-0.135,0.091-0.269,0.157-0.405,0.203
			c-0.135,0.046-0.269,0.066-0.405,0.066c-0.225,0.092-0.416,0.148-0.573,0.168c-0.159,0.025-0.326,0.035-0.507,0.035
			c-0.134,0.046-0.303,0.046-0.507,0c-0.202-0.045-0.438-0.111-0.709-0.203c-0.539-0.089-1.226-0.292-2.06-0.607
			c-0.833-0.315-1.609-0.653-2.329-1.013c-1.171-0.539-1.565-0.968-1.182-1.283c0.382-0.313,1.115-0.43,2.195-0.338
			c0.27,0.045,0.631,0.091,1.08,0.137c0.45,0.043,0.99,0.089,1.622,0.132c0.583,0.046,1.226,0.081,1.924,0.102
			c0.697,0.025,1.428,0.035,2.195,0.035c2.476,0,4.896-0.068,7.259-0.203s4.176-0.361,5.437-0.676c0.089,0,0.202-0.033,0.336-0.101
			c0.136-0.066,0.271-0.122,0.406-0.168c0.135-0.091,0.27-0.157,0.405-0.203c0.134-0.046,0.292-0.092,0.472-0.137
			c0.721-0.087,1.452-0.099,2.196-0.031c0.742,0.066,1.384,0.145,1.925,0.236c0.718,0.135,1.124,0.43,1.214,0.877
			c0.09,0.452,0,0.879-0.269,1.285c-0.405,0.45-0.789,0.932-1.148,1.448c-0.362,0.519-0.675,1.072-0.945,1.657
			c-1.487,2.748-3.175,5.413-5.065,8.001c-1.892,2.592-3.94,4.987-6.145,7.192c-2.206,2.254-4.524,4.265-6.957,6.044
			c-2.429,1.778-4.885,3.231-7.36,4.354c-1.847,0.859-2.971,1.148-3.377,0.879c-0.405-0.269-0.224-0.607,0.541-1.011
			c5.222-2.972,10.027-6.9,14.417-11.785S133.073,17.712,135.73,11.544"/>
	</g>
	<g>
		<defs>
			<rect id="SVGID_5_" x="2" y="1.279" width="508.261" height="118.721"/>
		</defs>
		<clipPath id="SVGID_6_">
			<use xlink:href="#SVGID_5_"  overflow="visible"/>
		</clipPath>
		<path clip-path="url(#SVGID_6_)" fill="#2B2823" d="M212.509,19.157v22.081c0.676-0.043,1.576-0.178,2.702-0.404
			c1.124-0.226,2.003-0.675,2.633-1.349c0.315-0.315,1.105-0.472,2.365-0.472c1.26,0,2.339,0.066,3.241,0.2
			c0.945,0.226,1.631,0.541,2.058,0.946c0.427,0.403,0.597,0.81,0.508,1.216c-0.046,0.404-0.338,0.752-0.879,1.047
			c-0.539,0.292-1.283,0.437-2.228,0.437h-10.4v16.545c0,2.251-0.046,4.321-0.135,6.211c-0.09,1.893-0.202,3.537-0.338,4.934
			c-0.18,1.392-0.426,2.495-0.741,3.307c-0.317,0.811-0.7,1.215-1.148,1.215c-0.363,0.045-0.642-0.315-0.844-1.083
			c-0.205-0.762-0.351-1.732-0.441-2.901c-0.09-1.128-0.146-2.388-0.169-3.782c-0.023-1.395-0.033-2.701-0.033-3.918V19.495
			c0-1.394-0.067-2.418-0.203-3.071c-0.135-0.653-0.472-1.184-1.012-1.588c-0.722-0.45-1.587-0.866-2.599-1.25
			c-1.015-0.381-1.97-0.663-2.871-0.846c-0.721-0.086-0.957-0.371-0.708-0.843c0.246-0.473,0.776-0.706,1.586-0.706
			c0.584,0,1.293,0.056,2.128,0.167c0.832,0.112,1.698,0.237,2.599,0.371c0.854,0.135,1.699,0.295,2.533,0.473
			c0.831,0.183,1.541,0.361,2.127,0.538c0.315,0.138,0.574,0.341,0.776,0.61s0.236,0.63,0.101,1.08
			c-0.27,0.81-0.439,1.597-0.507,2.365C212.543,17.56,212.509,18.347,212.509,19.157 M188.133,39.414
			c0.583,0.589,1.248,1.209,1.992,1.86c0.741,0.652,1.45,1.27,2.126,1.856c0.63,0.585,1.204,1.093,1.722,1.52
			c0.516,0.429,0.866,0.708,1.047,0.843c0.315,0.226,0.618,0.363,0.912,0.404c0.291,0.046,0.573,0.092,0.843,0.137
			c0.271,0.092,0.54,0.193,0.811,0.305c0.269,0.112,0.607,0.302,1.013,0.572c0.405,0.317,0.821,0.744,1.249,1.283
			c0.426,0.541,0.844,1.105,1.25,1.689c0.359,0.587,0.685,1.148,0.978,1.689c0.293,0.539,0.507,0.945,0.641,1.214
			c0.541,1.486,0.282,2.307-0.776,2.465c-1.058,0.157-2.375-0.641-3.95-2.396c-0.315-0.272-0.912-0.846-1.79-1.725
			c-0.878-0.876-1.856-1.875-2.937-3.003c-1.125-1.125-2.296-2.286-3.512-3.477c-1.215-1.192-2.296-2.284-3.241-3.275
			c-2.566,3.105-5.291,5.955-8.171,8.541c-2.881,2.591-5.65,4.557-8.306,5.909c-1.981,1.082-3.151,1.486-3.511,1.214
			c-0.362-0.269-0.091-0.673,0.811-1.214c2.429-1.575,4.884-3.521,7.359-5.841c2.476-2.319,4.817-4.874,7.023-7.664
			c2.251-2.789,4.3-5.716,6.146-8.779c1.845-3.061,3.376-6.145,4.591-9.252c-1.756,0.091-3.657,0.183-5.706,0.269
			c-2.049,0.091-3.545,0.16-4.49,0.203c-0.451,0.046-0.956,0.102-1.52,0.168c-0.563,0.071-1.069,0.17-1.52,0.305
			c-0.134,0.091-0.282,0.16-0.438,0.203c-0.157,0.046-0.303,0.112-0.439,0.203c-0.135,0.046-0.269,0.102-0.404,0.168
			c-0.136,0.068-0.271,0.101-0.405,0.101c-0.406,0.092-0.755,0.148-1.047,0.171c-0.295,0.022-0.71-0.033-1.251-0.171
			c-0.54-0.132-1.227-0.36-2.059-0.675c-0.833-0.313-1.611-0.65-2.329-1.011c-1.126-0.541-1.51-0.968-1.149-1.286
			c0.361-0.312,1.08-0.427,2.162-0.335c0.271,0.046,0.629,0.091,1.08,0.135c0.449,0.045,0.99,0.089,1.62,0.134
			c0.585,0.046,1.226,0.081,1.926,0.102c0.696,0.023,1.428,0.035,2.194,0.035c2.475,0,4.829-0.045,7.057-0.137
			c2.229-0.089,3.95-0.292,5.166-0.607c0.134,0,0.269-0.033,0.405-0.102c0.134-0.068,0.269-0.144,0.405-0.236
			c0.135-0.046,0.269-0.101,0.404-0.168c0.136-0.068,0.293-0.126,0.474-0.17c0.719-0.043,1.542-0.043,2.465,0
			c0.922,0.044,1.654,0.115,2.194,0.204c0.72,0.134,1.125,0.439,1.216,0.912c0.089,0.472,0,0.909-0.271,1.316
			c-0.405,0.452-0.776,0.924-1.114,1.417c-0.338,0.498-0.642,1.014-0.911,1.555c-0.992,2.025-2.173,4.095-3.546,6.211
			C191.249,35.319,189.752,37.392,188.133,39.414"/>
	</g>
	<g>
		<defs>
			<rect id="SVGID_7_" x="2" y="1.279" width="508.261" height="118.721"/>
		</defs>
		<clipPath id="SVGID_8_">
			<use xlink:href="#SVGID_7_"  overflow="visible"/>
		</clipPath>
		<path clip-path="url(#SVGID_8_)" fill="#2B2823" d="M90.962,89.426c2.565,0,4.715-0.866,6.448-2.599
			c1.733-1.735,2.6-3.795,2.6-6.178c0-2.434-0.844-4.547-2.532-6.351c-1.689-1.798-3.86-2.7-6.516-2.7
			c-2.567,0-4.694,0.866-6.382,2.599c-1.689,1.735-2.533,3.884-2.533,6.452c0,1.169,0.227,2.281,0.676,3.343
			c0.45,1.055,1.057,1.992,1.824,2.8c0.809,0.81,1.756,1.453,2.835,1.925C88.462,89.19,89.655,89.426,90.962,89.426 M89.139,69.909
			c0.134-0.087,0.225-0.168,0.27-0.234c0.044-0.069,0.089-0.148,0.135-0.239c0.043-0.132,0.033-0.345-0.034-0.64
			c-0.068-0.292-0.438-0.574-1.115-0.843c-0.719-0.227-0.968-0.519-0.742-0.88c0.225-0.36,0.742-0.538,1.553-0.538
			c0.63,0.046,1.305,0.112,2.026,0.201c0.719,0.091,1.283,0.18,1.687,0.271c0.315,0.092,0.518,0.224,0.608,0.404
			c0.091,0.181,0.112,0.407,0.068,0.676c-0.045,0.135-0.09,0.259-0.135,0.373c-0.044,0.112-0.09,0.234-0.136,0.371
			c-0.044,0.089-0.077,0.178-0.1,0.27c-0.023,0.091-0.035,0.157-0.035,0.203c0,0.132,0.023,0.259,0.068,0.371
			c0.044,0.112,0.136,0.213,0.27,0.302c3.242,0.496,5.865,1.768,7.868,3.818c2.003,2.048,3.004,4.4,3.004,7.055
			c0,1.486-0.348,2.893-1.047,4.219c-0.697,1.329-1.654,2.488-2.868,3.478c-1.172,0.991-2.578,1.778-4.221,2.365
			c-1.645,0.585-3.411,0.879-5.301,0.879s-3.647-0.305-5.268-0.914c-1.619-0.605-3.039-1.408-4.254-2.398
			c-1.215-1.034-2.16-2.205-2.836-3.511c-0.674-1.306-1.014-2.678-1.014-4.118c0-2.927,1.104-5.403,3.309-7.428
			C83.106,71.397,85.852,70.226,89.139,69.909 M92.717,44.451c0.945,0.227,1.959,0.463,3.039,0.709
			c1.08,0.249,2.138,0.486,3.174,0.709c0.989,0.226,1.867,0.419,2.634,0.577c0.764,0.157,1.283,0.234,1.552,0.234
			c0.451,0.091,0.822,0.127,1.114,0.101c0.294-0.02,0.597-0.056,0.913-0.101h1.08c0.405,0,0.946,0.068,1.621,0.203
			c1.08,0.269,2.205,0.721,3.377,1.351c1.169,0.63,2.025,1.26,2.565,1.89c0.496,0.676,0.372,1.26-0.371,1.758
			c-0.743,0.493-2.127,0.404-4.154-0.272c-0.45-0.134-1.417-0.429-2.902-0.879c-1.488-0.449-3.174-0.988-5.066-1.618
			c-1.891-0.586-3.838-1.183-5.84-1.791c-2.004-0.607-3.748-1.115-5.235-1.519c-3.241,1.755-6.629,3.341-10.162,4.758
			c-3.535,1.42-6.989,2.49-10.366,3.211c-1.936,0.45-3.084,0.493-3.445,0.132c-0.359-0.358,0-0.673,1.082-0.945
			c2.971-0.853,5.987-1.956,9.048-3.307c3.061-1.352,6.01-2.835,8.847-4.456c2.836-1.575,5.469-3.277,7.9-5.101
			c2.431-1.822,4.502-3.656,6.214-5.502c-0.812,0.045-2.006,0.111-3.58,0.203c-1.577,0.091-3.197,0.18-4.862,0.269
			c-1.666,0.092-3.185,0.17-4.558,0.239c-1.375,0.066-2.286,0.101-2.734,0.101c-0.542,0-1.194,0.089-1.96,0.27
			c-0.764,0.178-1.575,0.404-2.429,0.675c-0.452,0.178-0.924,0.28-1.419,0.303c-0.497,0.023-1.081-0.079-1.757-0.303
			c-0.585-0.137-1.271-0.35-2.059-0.642s-1.407-0.551-1.857-0.775c-1.036-0.452-1.553-0.904-1.553-1.352
			c0-0.452,0.743-0.609,2.229-0.475c0.448,0.095,0.955,0.148,1.519,0.17c0.561,0.023,1.158,0.056,1.79,0.102
			c0.584,0,1.181,0.01,1.789,0.033c0.609,0.023,1.203,0.033,1.79,0.033c1.214,0.046,2.779,0.046,4.693,0
			c1.912-0.043,3.815-0.089,5.706-0.135c1.89-0.088,3.612-0.18,5.166-0.271c1.553-0.087,2.6-0.178,3.14-0.27
			c0.09,0,0.213-0.033,0.37-0.101c0.159-0.066,0.327-0.122,0.507-0.168c0.225-0.089,0.428-0.167,0.609-0.236
			c0.179-0.069,0.359-0.102,0.539-0.102c0.765,0,1.633,0.023,2.601,0.069c0.967,0.046,1.586,0.066,1.855,0.066
			c0.948,0.137,1.488,0.452,1.622,0.945c0.135,0.498-0.113,1.082-0.743,1.758c-0.18,0.224-0.36,0.417-0.539,0.574
			c-0.181,0.158-0.362,0.305-0.542,0.437c-0.224,0.181-0.449,0.361-0.675,0.541c-0.225,0.18-0.473,0.384-0.742,0.607
			c-1.396,1.214-2.982,2.444-4.761,3.681C96.713,42.077,94.787,43.281,92.717,44.451 M93.46,61.063c0.946,0,1.846-0.01,2.702-0.033
			c0.855-0.023,1.643-0.033,2.362-0.033c0.721-0.046,1.362-0.079,1.926-0.102c0.561-0.023,1.022-0.035,1.384-0.035
			c1.169,0,2.171-0.041,3.004-0.132c0.834-0.092,1.408-0.181,1.723-0.272c0.225-0.043,0.484-0.125,0.776-0.236
			c0.292-0.112,0.618-0.214,0.979-0.305c0.315-0.087,0.631-0.178,0.945-0.269c0.315-0.089,0.653-0.158,1.015-0.204
			c1.35-0.134,2.61-0.178,3.78-0.134c1.171,0.046,2.296,0.134,3.377,0.271c0.855,0.133,1.53,0.392,2.025,0.775
			c0.495,0.384,0.743,0.846,0.743,1.385c0,0.584-0.303,1.013-0.912,1.285c-0.607,0.269-1.361,0.381-2.261,0.336
			c-1.126,0-2.308-0.023-3.546-0.067c-1.239-0.045-2.488-0.091-3.748-0.137c-1.305-0.043-2.577-0.076-3.815-0.101
			c-1.238-0.021-2.398-0.056-3.477-0.099c-1.577,0-3.624,0.023-6.146,0.068c-2.521,0.043-5.11,0.089-7.764,0.132
			c-2.613,0.092-5.077,0.193-7.397,0.305c-2.319,0.112-4.04,0.236-5.165,0.371c-0.406,0.091-0.777,0.17-1.114,0.239
			c-0.337,0.066-0.666,0.145-0.978,0.234c-0.362,0.091-0.709,0.182-1.047,0.269c-0.338,0.091-0.71,0.16-1.115,0.203
			c-0.631,0.137-1.25,0.193-1.857,0.17c-0.607-0.022-1.385-0.17-2.33-0.439c-0.766-0.135-1.655-0.371-2.667-0.709
			c-1.012-0.338-1.924-0.686-2.735-1.047c-1.712-0.764-2.364-1.351-1.958-1.755c0.405-0.407,1.486-0.541,3.241-0.407
			c1.395,0.138,3.004,0.26,4.828,0.371c1.824,0.115,4.357,0.193,7.597,0.239c1.711,0.046,3.804,0.056,6.28,0.031
			c2.475-0.021,4.951-0.054,7.429-0.099V56.81c0-0.406-0.067-0.899-0.203-1.486c-0.135-0.584-0.382-1.013-0.742-1.282
			c-0.406-0.27-0.856-0.541-1.351-0.811c-0.496-0.272-1.149-0.472-1.959-0.607c-0.72-0.137-0.978-0.44-0.776-0.912
			c0.203-0.472,0.709-0.709,1.519-0.709c0.811,0,1.935,0.076,3.377,0.237c1.439,0.157,2.586,0.37,3.443,0.642
			c0.36,0.132,0.631,0.346,0.81,0.64c0.18,0.292,0.205,0.64,0.067,1.047c-0.134,0.315-0.213,0.755-0.236,1.316
			c-0.023,0.564-0.033,1.072-0.033,1.519C93.46,56.404,93.46,61.063,93.46,61.063z"/>
	</g>
	<g>
		<defs>
			<rect id="SVGID_9_" x="2" y="1.279" width="508.261" height="118.721"/>
		</defs>
		<clipPath id="SVGID_10_">
			<use xlink:href="#SVGID_9_"  overflow="visible"/>
		</clipPath>
		<path clip-path="url(#SVGID_10_)" fill="#2B2823" d="M279.939,39.764c0.757,0.359,1.758,0.803,3.003,1.337
			c1.244,0.533,2.489,1.046,3.736,1.534c1.288,0.533,2.47,1.014,3.537,1.437c1.069,0.422,1.823,0.699,2.268,0.834
			c0.401,0.132,0.757,0.233,1.07,0.3c0.312,0.066,0.602,0.099,0.866,0.099c0.269,0,0.533-0.01,0.803-0.033
			c0.264-0.021,0.533-0.033,0.797-0.033c0.224,0.043,0.503,0.112,0.839,0.2c0.332,0.089,0.675,0.198,1.031,0.333
			c0.757,0.358,1.603,0.81,2.538,1.369c0.935,0.556,1.735,1.123,2.4,1.702c0.671,0.622,1.057,1.199,1.169,1.732
			c0.112,0.534,0.01,0.961-0.3,1.271c-0.31,0.312-0.823,0.457-1.534,0.431c-0.711-0.02-1.56-0.274-2.535-0.767
			c-0.935-0.442-2.36-1.122-4.273-2.034c-1.913-0.912-3.938-1.878-6.072-2.904c-2.139-0.978-4.207-1.946-6.209-2.901
			c-2.001-0.955-3.558-1.702-4.671-2.235c-2.802,2.802-6.006,5.202-9.61,7.206c-3.603,2.002-7.073,3.539-10.411,4.606
			c-1.869,0.622-3.015,0.757-3.439,0.399c-0.422-0.356-0.234-0.668,0.569-0.933c1.824-0.624,3.835-1.503,6.041-2.637
			c2.2-1.135,4.349-2.479,6.439-4.038c2.137-1.555,4.129-3.292,5.973-5.205c1.847-1.913,3.371-3.96,4.572-6.14
			c0.178-0.31,0.255-0.655,0.234-1.034c-0.023-0.378-0.19-0.767-0.503-1.168c-0.264-0.267-0.688-0.534-1.265-0.8
			c-0.579-0.269-1.247-0.534-2.002-0.803c-0.757-0.219-1.026-0.554-0.803-1.001c0.224-0.442,1.001-0.599,2.338-0.467
			c0.889,0.134,1.966,0.345,3.236,0.635c1.268,0.289,2.368,0.701,3.302,1.234c0.534,0.356,0.879,0.701,1.037,1.037
			c0.153,0.332,0.188,0.701,0.099,1.1c-0.043,0.358-0.18,0.711-0.399,1.066c-0.223,0.359-0.426,0.691-0.604,1.004
			c-0.488,0.754-0.999,1.488-1.535,2.2C281.138,38.408,280.559,39.099,279.939,39.764 M282.606,64.191v11.611
			c0,2.226-0.043,4.27-0.132,6.14c-0.089,1.869-0.244,3.49-0.467,4.872c-0.178,1.38-0.422,2.469-0.734,3.272
			c-0.313,0.797-0.669,1.199-1.07,1.199c-0.356,0.046-0.63-0.31-0.833-1.067c-0.199-0.757-0.346-1.715-0.432-2.87
			c-0.135-1.113-0.213-2.358-0.234-3.737c-0.025-1.379-0.035-2.67-0.035-3.871V64.323c-2.536,0.046-5.005,0.124-7.408,0.234
			c-2.403,0.112-4.161,0.233-5.271,0.368c-0.402,0.089-0.768,0.178-1.1,0.267c-0.336,0.091-0.661,0.177-0.971,0.269
			c-0.31,0.086-0.635,0.178-0.965,0.264c-0.335,0.092-0.701,0.158-1.103,0.201c-0.668,0.135-1.29,0.19-1.869,0.168
			c-0.58-0.023-1.357-0.168-2.335-0.435c-0.757-0.132-1.633-0.376-2.634-0.734c-1.004-0.355-1.906-0.711-2.706-1.069
			c-1.735-0.711-2.403-1.265-2.001-1.667c0.398-0.401,1.468-0.533,3.203-0.401c1.423,0.134,3.048,0.257,4.872,0.368
			c1.824,0.11,4.314,0.191,7.474,0.234c1.778,0.043,3.905,0.066,6.376,0.066c2.467,0,4.926-0.023,7.373-0.066
			c2.448-0.043,4.694-0.079,6.741-0.101c2.046-0.023,3.514-0.054,4.406-0.1c1.11,0,2.088-0.045,2.936-0.132
			c0.843-0.091,1.4-0.178,1.667-0.269c0.269-0.043,0.543-0.122,0.833-0.234s0.589-0.211,0.904-0.299
			c0.31-0.089,0.633-0.178,0.966-0.267c0.335-0.089,0.678-0.155,1.034-0.201c1.336-0.132,2.583-0.178,3.736-0.132
			c1.159,0.046,2.271,0.132,3.338,0.267c0.846,0.134,1.514,0.388,2.002,0.767c0.488,0.378,0.737,0.81,0.737,1.3
			c0,0.582-0.3,0.991-0.904,1.238c-0.6,0.243-1.321,0.343-2.167,0.299c-1.159,0-2.348-0.023-3.57-0.066
			c-1.224-0.045-2.484-0.091-3.772-0.137c-1.247-0.04-2.482-0.076-3.704-0.096c-1.222-0.026-2.37-0.056-3.437-0.102
			c-1.113,0-2.403,0.01-3.871,0.03C286.01,64.181,284.384,64.191,282.606,64.191"/>
	</g>
	<g>
		<defs>
			<rect id="SVGID_11_" x="2" y="1.279" width="508.261" height="118.721"/>
		</defs>
		<clipPath id="SVGID_12_">
			<use xlink:href="#SVGID_11_"  overflow="visible"/>
		</clipPath>
		<path clip-path="url(#SVGID_12_)" fill="#2B2823" d="M341.223,12.109v17.617c0,2.538-0.188,4.796-0.567,6.775
			c-0.378,1.979-0.945,2.97-1.702,2.97c-0.31,0.046-0.567-0.178-0.765-0.666c-0.203-0.49-0.345-1.092-0.437-1.804
			c-0.132-0.711-0.21-1.488-0.233-2.336c-0.021-0.844-0.031-1.644-0.031-2.401V12.441c0-1.377-0.068-2.388-0.203-3.035
			c-0.132-0.643-0.488-1.169-1.067-1.568c-0.665-0.444-1.489-0.856-2.469-1.235c-0.981-0.378-1.936-0.655-2.871-0.835
			c-0.757-0.089-1.001-0.368-0.734-0.834c0.269-0.467,0.8-0.701,1.603-0.701c0.579,0,1.278,0.056,2.101,0.165
			c0.823,0.112,1.659,0.234,2.502,0.369c0.894,0.134,1.738,0.292,2.538,0.467c0.8,0.181,1.491,0.359,2.07,0.534
			c0.356,0.134,0.63,0.333,0.834,0.602c0.2,0.264,0.233,0.622,0.101,1.067c-0.269,0.8-0.447,1.58-0.536,2.337
			S341.223,11.308,341.223,12.109 M337.285,61.16v-9.607l-20.155,0.132v9.61L337.285,61.16z M341.024,45.479v13.746
			c0,1.961-0.167,3.515-0.503,4.674c-0.332,1.156-0.945,1.735-1.834,1.735c-0.488,0-0.843-0.257-1.067-0.767
			c-0.223-0.514-0.335-1.014-0.335-1.501l-20.155,0.131c0,0.043-0.021,0.222-0.066,0.534c-0.046,0.31-0.135,0.668-0.267,1.069
			c-0.175,0.354-0.399,0.679-0.668,0.968c-0.267,0.288-0.623,0.432-1.067,0.432c-0.668,0-1.125-0.411-1.369-1.234
			s-0.369-2.302-0.369-4.438v-12.68c0-0.444-0.063-0.944-0.198-1.503c-0.135-0.554-0.355-0.966-0.665-1.235
			c-0.448-0.264-1.014-0.554-1.702-0.866c-0.691-0.313-1.436-0.534-2.236-0.668c-0.711-0.132-0.97-0.422-0.77-0.869
			c0.201-0.442,0.702-0.666,1.502-0.666c0.401,0,0.924,0.046,1.57,0.132c0.645,0.092,1.323,0.178,2.034,0.27
			c0.712,0.132,1.4,0.264,2.071,0.401c0.665,0.132,1.224,0.264,1.666,0.397c0.31,0.137,0.557,0.325,0.737,0.568
			c0.175,0.247,0.198,0.57,0.064,0.968c-0.133,0.267-0.211,0.668-0.234,1.202c-0.023,0.533-0.033,1.046-0.033,1.534v1.735
			l20.155-0.132v-3.605c0-0.401-0.066-0.878-0.198-1.432c-0.135-0.559-0.381-0.991-0.737-1.306
			c-0.396-0.264-0.945-0.554-1.633-0.866c-0.689-0.308-1.413-0.534-2.17-0.666c-0.757-0.135-1.024-0.424-0.8-0.869
			c0.224-0.444,0.737-0.668,1.534-0.668c0.356,0,0.859,0.046,1.502,0.135c0.645,0.089,1.323,0.178,2.035,0.267
			c0.711,0.089,1.392,0.2,2.037,0.335c0.645,0.132,1.189,0.264,1.636,0.399c0.31,0.135,0.566,0.332,0.764,0.602
			c0.201,0.264,0.234,0.599,0.102,1.001c-0.134,0.31-0.223,0.732-0.267,1.267C341.045,44.544,341.024,45.034,341.024,45.479
			 M311.124,14.646c-1.29,0-2.494,0.254-3.604,0.768c-1.113,0.51-2.111,1.188-3.003,2.032c-0.846,0.848-1.512,1.839-2.002,2.972
			c-0.49,1.133-0.734,2.324-0.734,3.572c0,1.29,0.244,2.5,0.734,3.635c0.49,1.136,1.156,2.101,2.002,2.904
			c0.892,0.846,1.89,1.501,3.003,1.968c1.11,0.468,2.314,0.702,3.604,0.702c1.245,0,2.434-0.234,3.572-0.702
			c1.133-0.467,2.124-1.122,2.97-1.968c0.886-0.803,1.587-1.768,2.101-2.904c0.513-1.135,0.767-2.345,0.767-3.635
			c0-1.248-0.254-2.439-0.767-3.572c-0.514-1.133-1.215-2.124-2.101-2.972c-0.846-0.844-1.837-1.522-2.97-2.032
			C313.558,14.9,312.369,14.646,311.124,14.646 M309.59,12.642c0-0.043,0.02-0.066,0.066-0.066c0-0.043,0.023-0.089,0.066-0.135
			c0.043-0.132,0-0.365-0.132-0.698s-0.536-0.635-1.199-0.902c-0.671-0.27-0.904-0.6-0.701-1.001
			c0.198-0.401,0.701-0.602,1.499-0.602c0.576,0,1.29,0.069,2.136,0.201c0.846,0.132,1.468,0.266,1.867,0.401
			c0.267,0.132,0.447,0.279,0.536,0.432c0.087,0.157,0.109,0.371,0.064,0.635c-0.087,0.224-0.163,0.477-0.234,0.767
			c-0.063,0.29-0.099,0.5-0.099,0.635v0.402c3.295,0.442,5.998,1.758,8.109,3.937c2.113,2.18,3.173,4.735,3.173,7.675
			c0,1.6-0.346,3.101-1.037,4.504c-0.688,1.402-1.633,2.637-2.835,3.703c-1.201,1.027-2.637,1.835-4.306,2.434
			c-1.669,0.605-3.483,0.904-5.439,0.904c-1.958,0-3.759-0.299-5.406-0.904c-1.646-0.599-3.068-1.407-4.27-2.434
			c-1.201-1.066-2.136-2.301-2.802-3.703c-0.668-1.403-1.001-2.904-1.001-4.504c0-3.072,1.098-5.719,3.3-7.944
			C303.147,14.153,306.028,12.909,309.59,12.642"/>
	</g>
	<g>
		<defs>
			<rect id="SVGID_13_" x="2" y="1.279" width="508.261" height="118.721"/>
		</defs>
		<clipPath id="SVGID_14_">
			<use xlink:href="#SVGID_13_"  overflow="visible"/>
		</clipPath>
		<path clip-path="url(#SVGID_14_)" fill="#2B2823" d="M373.046,22.531c-1.511,0-2.924,0.29-4.237,0.869
			c-1.314,0.579-2.434,1.357-3.369,2.335c-0.98,0.978-1.735,2.126-2.271,3.437c-0.533,1.313-0.8,2.703-0.8,4.171
			c0,1.514,0.267,2.916,0.8,4.207c0.536,1.29,1.291,2.424,2.271,3.404c0.935,0.976,2.055,1.732,3.369,2.266
			c1.313,0.534,2.726,0.803,4.237,0.803c1.514,0,2.939-0.269,4.273-0.803c1.336-0.534,2.49-1.29,3.47-2.266
			c0.935-0.98,1.689-2.114,2.271-3.404c0.574-1.291,0.867-2.693,0.867-4.207c0-1.468-0.293-2.858-0.867-4.171
			c-0.582-1.311-1.336-2.459-2.271-3.437c-0.98-0.978-2.134-1.756-3.47-2.335C375.985,22.821,374.56,22.531,373.046,22.531
			 M371.512,20.464c0-0.09,0.023-0.133,0.068-0.133V20.23c0-0.021,0.023-0.056,0.064-0.102c0.046-0.132,0-0.386-0.132-0.767
			c-0.132-0.376-0.534-0.701-1.199-0.968c-0.669-0.267-0.892-0.599-0.669-0.998c0.222-0.402,0.735-0.603,1.535-0.603
			c0.536,0,1.212,0.067,2.035,0.201c0.823,0.133,1.435,0.267,1.834,0.402c0.312,0.132,0.513,0.277,0.604,0.432
			c0.087,0.157,0.107,0.365,0.064,0.635c-0.043,0.132-0.089,0.264-0.135,0.399c-0.04,0.134-0.086,0.266-0.132,0.401
			c-0.046,0.132-0.079,0.256-0.101,0.368c-0.021,0.112-0.031,0.208-0.031,0.3v0.33c0,0.092,0.043,0.181,0.132,0.27
			c1.87,0.269,3.592,0.78,5.172,1.534c1.581,0.757,2.95,1.692,4.106,2.804c1.155,1.157,2.07,2.48,2.735,3.969
			c0.666,1.493,1.001,3.084,1.001,4.776c0,1.777-0.398,3.457-1.201,5.037c-0.8,1.578-1.893,2.97-3.269,4.171
			c-1.38,1.156-3.003,2.081-4.87,2.769c-1.873,0.689-3.897,1.034-6.077,1.034c-2.134,0-4.126-0.345-5.97-1.034
			c-1.849-0.688-3.46-1.613-4.842-2.769c-1.377-1.201-2.444-2.593-3.203-4.171c-0.757-1.58-1.136-3.26-1.136-5.037
			c0-1.738,0.336-3.384,1.004-4.939c0.668-1.56,1.603-2.916,2.802-4.075c1.204-1.153,2.637-2.101,4.303-2.835
			C367.676,21.03,369.51,20.595,371.512,20.464 M376.45,61.973c1.557,0,2.947-0.01,4.171-0.031c1.225-0.022,2.17-0.035,2.838-0.035
			c1.156,0,2.144-0.043,2.97-0.132c0.823-0.089,1.366-0.178,1.636-0.27c0.221-0.04,0.477-0.119,0.764-0.233
			c0.292-0.109,0.613-0.209,0.971-0.3c0.31-0.086,0.632-0.175,0.965-0.264c0.335-0.092,0.681-0.158,1.037-0.204
			c1.336-0.131,2.578-0.175,3.736-0.131c1.156,0.045,2.292,0.131,3.404,0.266c0.801,0.135,1.446,0.391,1.934,0.77
			c0.49,0.376,0.736,0.81,0.736,1.301c0,0.576-0.312,0.991-0.935,1.234c-0.624,0.244-1.336,0.346-2.136,0.3
			c-1.158,0-2.347-0.02-3.572-0.066c-1.221-0.046-2.479-0.091-3.769-0.135c-1.245-0.043-2.493-0.078-3.738-0.099
			c-1.244-0.023-2.403-0.056-3.469-0.101c-1.558,0-3.471,0.01-5.739,0.032c-2.269,0.023-4.563,0.059-6.874,0.1
			c-2.36,0.045-4.573,0.112-6.644,0.203c-2.065,0.089-3.658,0.198-4.77,0.333c-0.399,0.089-0.765,0.18-1.1,0.267
			c-0.336,0.088-0.658,0.177-0.971,0.266c-0.31,0.089-0.632,0.178-0.965,0.267c-0.335,0.089-0.701,0.155-1.1,0.201
			c-0.668,0.134-1.303,0.19-1.903,0.165c-0.602-0.021-1.372-0.165-2.304-0.432c-0.754-0.132-1.633-0.379-2.634-0.734
			c-1.004-0.356-1.883-0.714-2.637-1.07c-1.735-0.754-2.403-1.321-2.002-1.702c0.399-0.376,1.446-0.498,3.138-0.366
			c1.422,0.132,3.035,0.257,4.836,0.366c1.801,0.115,4.306,0.168,7.507,0.168c1.738,0.046,3.727,0.066,5.975,0.066h6.707v-8.607
			c0-0.444-0.066-0.935-0.199-1.468c-0.134-0.534-0.381-0.935-0.734-1.202c-0.358-0.178-0.8-0.355-1.336-0.533
			s-1.135-0.313-1.804-0.401c-0.711-0.044-0.967-0.323-0.764-0.836c0.2-0.508,0.701-0.788,1.501-0.833
			c0.755,0,1.844,0.045,3.27,0.131c1.422,0.092,2.581,0.204,3.47,0.336c0.31,0.091,0.558,0.279,0.734,0.569
			c0.18,0.289,0.2,0.633,0.068,1.034c-0.091,0.267-0.157,0.665-0.203,1.201c-0.041,0.534-0.066,1.022-0.066,1.469L376.45,61.973
			L376.45,61.973z"/>
	</g>
	<g>
		<defs>
			<rect id="SVGID_15_" x="2" y="1.279" width="508.261" height="118.721"/>
		</defs>
		<clipPath id="SVGID_16_">
			<use xlink:href="#SVGID_15_"  overflow="visible"/>
		</clipPath>
		<path clip-path="url(#SVGID_16_)" fill="#2B2823" d="M444.446,31.89v39.774c0,2.226-0.044,4.271-0.133,6.14
			c-0.088,1.87-0.223,3.491-0.398,4.873c-0.181,1.379-0.415,2.469-0.701,3.272c-0.29,0.797-0.658,1.199-1.103,1.199
			c-0.356,0.045-0.633-0.31-0.833-1.067c-0.201-0.757-0.346-1.715-0.435-2.871c-0.089-1.113-0.144-2.357-0.165-3.737
			c-0.025-1.379-0.035-2.67-0.035-3.871V32.223c0-1.38-0.066-2.391-0.199-3.036c-0.137-0.646-0.492-1.169-1.069-1.57
			c-0.666-0.442-1.491-0.854-2.469-1.235c-0.978-0.376-1.936-0.655-2.871-0.833c-0.754-0.091-0.998-0.368-0.734-0.833
			c0.267-0.468,0.803-0.701,1.603-0.701c0.579,0,1.28,0.056,2.101,0.165c0.823,0.111,1.659,0.233,2.505,0.368
			c0.889,0.132,1.735,0.29,2.532,0.468c0.803,0.177,1.491,0.355,2.071,0.533c0.355,0.132,0.635,0.333,0.836,0.6
			c0.198,0.266,0.233,0.624,0.099,1.067c-0.267,0.802-0.432,1.58-0.501,2.337C444.479,30.31,444.446,31.087,444.446,31.89
			 M413.412,40.166c-1.422,0-2.746,0.277-3.97,0.834c-1.224,0.553-2.281,1.3-3.168,2.235c-0.892,0.935-1.593,2.035-2.103,3.302
			c-0.514,1.271-0.767,2.615-0.767,4.04c0,1.422,0.253,2.758,0.767,4.003c0.51,1.245,1.211,2.337,2.103,3.27
			c0.887,0.935,1.944,1.658,3.168,2.166c1.224,0.514,2.548,0.77,3.97,0.77c1.38,0,2.681-0.256,3.905-0.77
			c1.222-0.508,2.279-1.231,3.171-2.166c0.934-0.933,1.669-2.025,2.202-3.27s0.8-2.581,0.8-4.003c0-1.425-0.267-2.769-0.8-4.04
			c-0.533-1.267-1.268-2.367-2.202-3.302c-0.892-0.935-1.949-1.682-3.171-2.235C416.093,40.443,414.792,40.166,413.412,40.166
			 M411.746,38.162c0-0.089,0.02-0.155,0.066-0.201c0-0.089,0.023-0.155,0.066-0.2c0.043-0.133,0-0.379-0.132-0.734
			c-0.135-0.356-0.513-0.666-1.135-0.935c-0.669-0.265-0.902-0.6-0.702-1.001c0.201-0.399,0.702-0.6,1.502-0.6
			c0.536,0,1.237,0.056,2.103,0.168c0.869,0.112,1.501,0.233,1.903,0.366c0.267,0.132,0.442,0.279,0.533,0.434
			c0.089,0.158,0.11,0.389,0.066,0.701c-0.045,0.135-0.089,0.267-0.132,0.399c-0.046,0.135-0.089,0.269-0.132,0.401
			c0,0.135-0.015,0.257-0.035,0.369c-0.023,0.109-0.033,0.19-0.033,0.231v0.368c0,0.112,0.043,0.211,0.132,0.3
			c3.47,0.49,6.363,1.903,8.678,4.24c2.311,2.335,3.47,5.149,3.47,8.442c0,1.78-0.379,3.437-1.136,4.971s-1.778,2.881-3.069,4.039
			c-1.293,1.156-2.827,2.068-4.605,2.734c-1.781,0.668-3.694,1-5.742,1c-2.09,0-4.013-0.332-5.769-1
			c-1.76-0.666-3.284-1.578-4.575-2.734c-1.333-1.158-2.36-2.505-3.069-4.039c-0.713-1.534-1.069-3.191-1.069-4.971
			c0-1.69,0.312-3.27,0.935-4.738c0.625-1.469,1.491-2.779,2.604-3.938c1.155-1.113,2.512-2.025,4.069-2.738
			C408.096,38.784,409.831,38.34,411.746,38.162"/>
	</g>
</g>
</svg>
