<?xml version="1.0" encoding="utf-8"?>
<!-- Generator: Adobe Illustrator 18.1.0, SVG Export Plug-In . SVG Version: 6.00 Build 0)  -->
<svg version="1.1" id="Layer_1" xmlns="http://www.w3.org/2000/svg" xmlns:xlink="http://www.w3.org/1999/xlink" x="0px" y="0px"
	 viewBox="0 0 500 160" enable-background="new 0 0 500 160" xml:space="preserve">
<g>
	<g>
		<g>
			<path fill="#5c4e46" d="M21.4,37.6c0.6,0.1,1.8,0.1,3.8,0.1c2,0,4.3,0,6.5,0c2.4,0,4.6,0,6.7,0s3.6-0.1,4.3-0.1
				c0.1,0,0.4,0,0.6-0.1c0.3-0.1,0.4-0.1,0.6-0.3c0.1-0.1,0.4-0.1,0.6-0.3c0.1-0.1,0.3-0.1,0.4-0.3c0.4-0.3,0.9-0.4,1.6-0.6
				c0.6-0.1,1.1-0.3,1.8-0.3c1,0,1.8,0,2.7,0c0.7,0,1.7,0.1,2.7,0.1c1,0.1,1.7,0.4,2,0.9c0.4,0.4,0.6,0.7,0.4,1.1
				c-0.1,0.4-0.4,0.9-1,1.1c-0.6,0.3-1.4,0.6-2.6,0.6c-0.9,0-2.8,0.1-5.7,0.1c-3,0-6.1,0-9.5,0c-3.4,0-6.7,0.1-9.7,0.1
				c-3.1,0-5.1,0-6.4,0v9.8c0,1,0.3,1.7,0.9,2.1c0.6,0.4,1.3,0.7,2,0.7L43,52.3c0.4,0,1-0.1,1.6-0.3c0.6-0.1,1-0.4,1.1-0.6
				c0.4-0.3,1-0.4,1.6-0.6c0.6-0.1,1.1-0.3,1.8-0.3c0.9,0,1.8,0,3,0c1.1,0,2.3,0,3.3,0.1c1,0.1,1.7,0.4,2,0.9
				c0.4,0.4,0.6,0.9,0.4,1.3c0,0.4-0.4,0.9-1,1.1c-0.6,0.3-1.4,0.4-2.6,0.4l-30.9,0.3c-1.8,0-3.4-0.3-5-0.9
				c-1.4-0.6-2.3-2.1-2.3-4.4V28.9c0-1.7-0.4-2.8-1.3-3.4c-0.9-0.6-2.1-1-4-1.3c-0.9-0.1-1.3-0.6-1.1-1c0.1-0.6,0.9-0.9,2-0.9
				c0.6,0,1.1,0,1.8,0.1c0.7,0.1,1.6,0.1,2.4,0.3s1.7,0.1,2.6,0.3c0.9,0.1,1.7,0.3,2.4,0.3c0.9,0.1,2.3,0.1,4,0.3c1.7,0,3.6,0,5.7,0
				s4.3,0,6.4-0.1c2.1,0,4.1-0.1,6-0.3c0.6,0,1-0.1,1.4-0.3s0.7-0.4,1-0.6c0.4-0.1,1-0.4,1.6-0.6c0.6-0.1,1.1-0.3,1.8-0.3
				c0.9,0,1.8,0,2.8,0s2,0.1,3.1,0.1c1,0.1,1.7,0.3,2,0.7c0.4,0.4,0.6,0.7,0.4,1.1c-0.1,0.6-0.4,1-1,1.3c-0.6,0.4-1.4,0.6-2.4,0.6
				c-2.1,0-4.7,0-7.7,0s-6,0-9.2,0.1c-3.1,0-6.1,0-9,0s-5.3,0-7.1,0v12.1H21.4z M39.7,70.4c0.9,0,1.7,0,2.6,0s1.6,0,2.3,0
				s1.3,0,1.8,0s1,0,1.4,0c1.3,0,2.4,0,3.3-0.1c0.9-0.1,1.6-0.3,1.8-0.4c0.3,0,0.6-0.1,0.9-0.3c0.3-0.1,0.7-0.1,1.1-0.3
				c0.3-0.1,0.7-0.1,1.1-0.3s0.7-0.1,1.1-0.3c1.6-0.1,2.8-0.1,4.3-0.1c1.3,0,2.6,0.1,3.8,0.3c0.9,0.1,1.6,0.4,2.1,0.9
				c0.6,0.4,0.9,0.9,0.9,1.4c0,0.7-0.3,1.1-1,1.4c-0.7,0.3-1.6,0.4-2.4,0.3c-1.3,0-2.7,0-4-0.1c-1.4,0-2.8-0.1-4.3-0.1
				s-2.8-0.1-4.3-0.1s-2.7,0-3.8-0.1H42c-2.6,0-5.1,0-7.7,0.1c-2.7,0.1-5.1,0.1-7.4,0.3c-2.3,0.1-4.1,0.3-5.4,0.4
				c-0.4,0.1-0.9,0.1-1.3,0.3c-0.4,0.1-0.7,0.1-1.1,0.3c-0.3,0.1-0.7,0.1-1.1,0.3c-0.4,0.1-0.9,0.1-1.3,0.3
				c-0.7,0.1-1.4,0.3-2.1,0.1c-0.7,0-1.6-0.1-2.6-0.4c-0.9-0.1-1.8-0.4-3-0.9c-1.1-0.4-2.1-0.9-3-1.3c-2-0.9-2.7-1.4-2.3-1.8
				c0.4-0.4,1.6-0.6,3.6-0.4c1.6,0.1,3.4,0.4,5.4,0.4c2,0.1,4.8,0.1,8.4,0.3c1.8,0,4.1,0.1,6.5,0.1h7.4v-7.5c0-0.4-0.1-1-0.3-1.7
				c-0.1-0.6-0.4-1-0.9-1.3c-0.4-0.1-0.9-0.4-1.6-0.6c-0.6-0.1-1.3-0.3-2-0.4c-0.9,0-1.1-0.4-0.9-1c0.3-0.6,0.9-0.9,1.7-1
				c0.9,0,2.1,0,3.7,0.1c1.6,0.1,2.8,0.3,3.8,0.4c0.3,0.1,0.6,0.3,0.9,0.6c0.1,0.3,0.3,0.7,0.1,1.1c-0.1,0.3-0.1,0.7-0.3,1.3
				c0,0.6-0.1,1.1-0.1,1.7v8.3H39.7z"/>
			<path fill="#5c4e46" d="M174.4,13.1v15.1c0.9,0,1.8-0.1,3.1-0.4c1.3-0.3,2.1-0.7,2.8-1.4c0.4-0.3,1.3-0.6,2.7-0.6
				c1.3,0,2.6,0.1,3.6,0.3c1,0.3,1.8,0.6,2.3,1c0.4,0.4,0.7,0.9,0.6,1.3s-0.4,0.9-1,1.1c-0.6,0.3-1.4,0.4-2.4,0.4h-11.7v2.6
				c0,1.4,0,2.8-0.1,4.3c-0.1,1.4-0.3,2.6-0.4,3.7c-0.1,1-0.4,1.8-0.9,2.6c-0.3,0.7-0.7,1-1.1,1s-0.7-0.3-1-0.9
				c-0.3-0.6-0.4-1.3-0.4-2.3c-0.1-0.9-0.3-1.8-0.3-2.8c0-1,0-2,0-2.7V13.4c0-1.6-0.1-2.7-0.3-3.4c-0.1-0.7-0.6-1.3-1.1-1.7
				c-0.9-0.6-1.7-1-2.8-1.4c-1.1-0.4-2.1-0.7-3.1-1c-0.9-0.1-1-0.4-0.9-1c0.3-0.6,0.9-0.9,1.7-0.9c0.7,0,1.4,0,2.4,0.1
				c0.9,0.1,1.8,0.3,2.8,0.4c1,0.1,1.8,0.3,2.8,0.6c1,0.1,1.7,0.4,2.4,0.6c0.3,0.1,0.6,0.4,0.9,0.7c0.3,0.3,0.3,0.7,0.1,1.1
				c-0.3,0.9-0.4,1.7-0.6,2.6C174.4,11.4,174.4,12.3,174.4,13.1 M146.6,49.9l0.7,18.8l21.6-0.1l0.3-18.9L146.6,49.9z M148.2,47.9
				c1.1,0,2.7,0,4.6,0s3.7,0,5.7-0.1c1.8,0,3.7-0.1,5.3-0.1c1.6-0.1,2.7-0.1,3.4-0.3c0.1,0,0.4,0,0.6-0.1c0.1-0.1,0.4-0.1,0.6-0.1
				c0.1-0.1,0.4-0.1,0.6-0.3c0.1-0.1,0.4-0.1,0.7-0.1c0.6,0,1.3,0,2.3,0c1,0,1.8,0.1,2.6,0.3c0.7,0.1,1.1,0.4,1.1,0.9
				c0,0.4-0.1,0.9-0.4,1.3c-0.3,0.3-0.6,0.6-0.7,1c-0.1,0.4-0.3,0.9-0.4,1.3l-1.7,17.2c0.1,0,0.4,0,0.7,0c0.3,0,0.6,0,0.9,0
				c0.3,0,0.6,0.1,0.9,0.3c0.3,0.1,0.4,0.4,0.4,0.7c0,0.6-0.3,0.9-1,1c-0.6,0.1-1.4,0.1-2.3,0.1l-24.5,0.4c-0.1,1.1-0.3,2-0.6,2.6
				c-0.3,0.6-0.7,0.9-1.1,0.9c-0.6,0-1-0.3-1.3-0.9c-0.3-0.6-0.6-1.6-0.6-3.1L142.1,52c-0.1-1-0.6-1.7-1.3-2.1c-0.7-0.4-1.7-0.7-3-1
				c-0.7-0.1-1-0.4-0.9-1c0.1-0.6,1-0.9,2.7-0.9c0.7,0,1.6,0.1,2.4,0.3c0.9,0.1,1.7,0.1,2.4,0.3c0.9,0.1,1.6,0.1,2.3,0.3
				C147.2,47.9,147.8,47.9,148.2,47.9 M152.3,15.7c-1,0-2,0.1-3.1,0.1C148,16,147,16,145.9,16c-1,0.1-2,0.1-3,0.3
				c-0.9,0.1-1.6,0.1-2.1,0.1c-0.6,0-1,0.1-1.7,0.1c-0.6,0.1-1.1,0.1-1.7,0.3c-0.1,0.1-0.3,0.1-0.4,0.3c-0.1,0-0.3,0.1-0.4,0.1
				c-0.1,0.1-0.3,0.1-0.4,0.3c-0.1,0-0.3,0.1-0.4,0.1c-0.3,0.1-0.4,0.1-0.6,0.1s-0.4,0-0.6,0c-0.1,0-0.3,0-0.6,0s-0.4-0.1-0.9-0.3
				c-0.6-0.1-1.4-0.3-2.3-0.7c-1-0.3-1.8-0.7-2.6-1.1c-1.3-0.6-1.7-1.1-1.3-1.4c0.4-0.3,1.3-0.4,2.4-0.4c0.3,0,0.7,0.1,1.1,0.1
				c0.6,0,1.1,0.1,1.8,0.1s1.4,0.1,2.1,0.1c0.7,0,1.6,0,2.4,0c2.7,0,5.4-0.1,8.1-0.3c2.6-0.1,4.7-0.4,6-0.7c0.1,0,0.3,0,0.4-0.1
				c0.1-0.1,0.3-0.1,0.4-0.1c0.1-0.1,0.3-0.1,0.4-0.3c0.1,0,0.3-0.1,0.6-0.1c0.9-0.1,1.6-0.1,2.4,0c0.9,0.1,1.6,0.1,2.1,0.3
				c0.9,0.1,1.3,0.4,1.3,1c0.1,0.6,0,1-0.3,1.4c-0.4,0.6-0.9,1-1.3,1.6c-0.4,0.6-0.7,1.1-1,1.8c-1.7,3-3.6,6-5.7,8.8s-4.4,5.5-6.8,8
				c-2.4,2.6-5,4.7-7.7,6.7c-2.7,2-5.4,3.6-8.1,4.8c-2,1-3.3,1.3-3.7,1c-0.4-0.3-0.3-0.7,0.6-1.1c5.8-3.3,11.1-7.7,15.9-13.1
				C145.3,28.8,149.3,22.5,152.3,15.7"/>
			<path fill="#5c4e46" d="M237.5,24.2v24.5c0.7,0,1.7-0.1,3-0.4c1.3-0.3,2.3-0.7,3-1.6c0.3-0.3,1.3-0.6,2.6-0.6
				c1.4,0,2.6,0.1,3.6,0.3c1,0.3,1.8,0.6,2.3,1c0.4,0.4,0.7,0.9,0.6,1.3c0,0.4-0.4,0.9-1,1.1c-0.6,0.3-1.4,0.4-2.4,0.4h-11.5v18.4
				c0,2.6,0,4.8-0.1,6.8c-0.1,2.1-0.3,4-0.4,5.4c-0.1,1.6-0.4,2.7-0.9,3.7c-0.3,0.9-0.7,1.3-1.3,1.3c-0.4,0-0.7-0.3-1-1.1
				c-0.3-0.9-0.4-2-0.4-3.3c-0.1-1.3-0.1-2.7-0.1-4.3c0-1.6,0-3,0-4.4V24.1c0-1.6-0.1-2.7-0.3-3.4c-0.1-0.7-0.6-1.3-1.1-1.7
				c-0.9-0.6-1.7-1-2.8-1.4s-2.1-0.7-3.1-1c-0.9-0.1-1-0.4-0.9-1c0.3-0.6,0.9-0.9,1.7-0.9c0.7,0,1.4,0,2.4,0.1
				c0.9,0.1,1.8,0.3,2.8,0.4c1,0.1,1.8,0.3,2.8,0.6c0.9,0.1,1.7,0.4,2.4,0.6c0.3,0.1,0.6,0.4,0.9,0.7c0.3,0.3,0.3,0.7,0.1,1.1
				c-0.3,0.9-0.4,1.7-0.6,2.6C237.5,22.4,237.5,23.3,237.5,24.2 M210.5,46.7c0.7,0.7,1.4,1.3,2.3,2.1c0.9,0.7,1.6,1.4,2.4,2
				c0.7,0.7,1.3,1.3,1.8,1.7c0.6,0.4,1,0.9,1.1,1c0.3,0.3,0.7,0.4,1,0.4c0.3,0,0.6,0.1,1,0.1c0.3,0.1,0.6,0.3,0.9,0.3
				c0.3,0.1,0.7,0.3,1.1,0.6c0.4,0.3,0.9,0.9,1.4,1.4c0.4,0.6,1,1.3,1.4,1.8c0.4,0.7,0.7,1.3,1.1,1.8c0.3,0.6,0.6,1,0.7,1.3
				c0.6,1.7,0.3,2.6-0.9,2.7s-2.7-0.7-4.4-2.7c-0.3-0.3-1-1-2-1.8c-1-1-2-2.1-3.3-3.3c-1.3-1.3-2.6-2.6-3.8-3.8
				c-1.3-1.3-2.6-2.6-3.6-3.7c-2.8,3.4-5.8,6.5-9.1,9.5c-3.1,2.8-6.3,5.1-9.2,6.5c-2.1,1.1-3.6,1.7-3.8,1.3
				c-0.4-0.3-0.1-0.7,0.9-1.3c2.7-1.7,5.4-3.8,8.1-6.5c2.7-2.6,5.4-5.4,7.8-8.5c2.6-3.1,4.8-6.4,6.8-9.8c2-3.4,3.7-6.8,5.1-10.2
				c-2,0.1-4.1,0.1-6.4,0.3c-2.3,0.1-4,0.1-5,0.3c-0.6,0-1,0.1-1.7,0.1c-0.6,0.1-1.1,0.1-1.7,0.3c-0.1,0.1-0.3,0.1-0.4,0.3
				c-0.1,0-0.3,0.1-0.4,0.3c-0.1,0-0.3,0.1-0.4,0.1c-0.1,0.1-0.3,0.1-0.4,0.1c-0.4,0.1-0.9,0.1-1.1,0.1c-0.3,0-0.9,0-1.4-0.1
				s-1.4-0.4-2.3-0.7s-1.8-0.7-2.6-1.1c-1.3-0.6-1.7-1.1-1.3-1.4c0.4-0.3,1.1-0.4,2.4-0.4c0.3,0,0.7,0.1,1.1,0.1
				c0.6,0,1.1,0.1,1.8,0.1s1.4,0.1,2.1,0.1s1.6,0,2.4,0c2.7,0,5.4,0,7.8-0.1c2.4-0.1,4.4-0.3,5.7-0.7c0.1,0,0.3,0,0.4-0.1
				c0.1-0.1,0.3-0.1,0.4-0.3c0.1,0,0.3-0.1,0.4-0.1c0.1-0.1,0.3-0.1,0.6-0.1c0.9,0,1.7,0,2.7,0c1,0,1.8,0.1,2.4,0.3
				c0.9,0.1,1.3,0.4,1.3,1c0.1,0.6,0,1-0.3,1.4c-0.4,0.6-0.9,1-1.3,1.6s-0.7,1.1-1,1.7c-1.1,2.3-2.4,4.6-4,6.8
				C213.9,42.2,212.2,44.5,210.5,46.7"/>
			<path fill="#5c4e46" d="M102.5,102.2c2.8,0,5.3-1,7.1-2.8c2-2,2.8-4.3,2.8-6.8c0-2.7-1-5-2.8-7.1c-1.8-2-4.3-3-7.3-3
				c-2.8,0-5.3,1-7.1,2.8c-1.8,2-2.8,4.3-2.8,7.1c0,1.3,0.3,2.6,0.7,3.7c0.6,1.1,1.1,2.3,2,3.1s2,1.6,3.1,2.1
				C99.8,101.9,101.1,102.2,102.5,102.2 M100.5,80.6c0.1-0.1,0.3-0.1,0.3-0.3s0.1-0.1,0.1-0.3c0-0.1,0-0.4,0-0.7
				c-0.1-0.3-0.4-0.6-1.3-1c-0.9-0.3-1.1-0.6-0.9-1c0.3-0.4,0.9-0.6,1.7-0.6c0.7,0,1.4,0.1,2.3,0.3c0.9,0.1,1.4,0.1,1.8,0.3
				c0.3,0.1,0.6,0.3,0.7,0.4c0.1,0.1,0.1,0.4,0.1,0.7c0,0.1-0.1,0.3-0.1,0.4c0,0.1-0.1,0.3-0.1,0.4c0,0.1-0.1,0.1-0.1,0.3
				s0,0.1,0,0.3c0,0.1,0,0.3,0.1,0.4c0,0.1,0.1,0.3,0.3,0.3c3.6,0.6,6.5,2,8.7,4.3c2.3,2.3,3.3,4.8,3.3,7.8c0,1.7-0.4,3.3-1.1,4.7
				c-0.7,1.4-1.8,2.7-3.1,3.8c-1.3,1.1-2.8,2-4.7,2.6c-1.8,0.7-3.8,1-5.8,1c-2.1,0-4-0.3-5.8-1c-1.8-0.7-3.4-1.6-4.7-2.7
				c-1.3-1.1-2.4-2.4-3.1-3.8c-0.7-1.4-1.1-3-1.1-4.6c0-3.3,1.3-6,3.7-8.3C93.8,82.2,96.8,80.9,100.5,80.6 M104.5,52.3
				c1,0.3,2.1,0.6,3.4,0.9c1.1,0.3,2.4,0.6,3.6,0.9s2.1,0.4,3,0.7c0.9,0.1,1.4,0.3,1.7,0.3c0.6,0.1,0.9,0.1,1.3,0.1
				c0.3,0,0.7,0,1-0.1h1.1c0.4,0,1,0.1,1.8,0.3c1.1,0.3,2.4,0.9,3.7,1.6c1.3,0.7,2.3,1.4,2.8,2.1c0.6,0.7,0.4,1.4-0.4,2
				s-2.4,0.4-4.6-0.3c-0.6-0.1-1.6-0.4-3.3-1c-1.7-0.6-3.6-1.1-5.7-1.8c-2.1-0.7-4.3-1.3-6.5-2c-2.3-0.7-4.1-1.3-5.8-1.7
				c-3.6,2-7.4,3.7-11.2,5.3c-4,1.6-7.8,2.7-11.5,3.6c-2.1,0.6-3.4,0.6-3.8,0.1s0-0.7,1.1-1c3.3-1,6.7-2.1,10.1-3.7
				c3.4-1.6,6.7-3.1,9.8-5c3.1-1.7,6.1-3.7,8.8-5.7s5-4.1,6.8-6.1c-0.9,0-2.3,0.1-4,0.3c-1.7,0.1-3.6,0.1-5.4,0.3
				c-1.8,0.1-3.6,0.1-5.1,0.3c-1.6,0.1-2.6,0.1-3,0.1c-0.6,0-1.3,0.1-2.1,0.3c-0.9,0.1-1.7,0.4-2.7,0.7c-0.6,0.1-1,0.3-1.6,0.3
				c-0.6,0-1.1-0.1-2-0.3c-0.7-0.1-1.4-0.4-2.3-0.7c-0.9-0.3-1.6-0.6-2-0.9c-1.1-0.6-1.7-1-1.7-1.6s0.9-0.7,2.4-0.6
				c0.4,0.1,1,0.1,1.7,0.1c0.6,0,1.3,0,2,0.1c0.7,0,1.3,0,2,0c0.7,0,1.3,0,2,0c1.3,0,3.1,0,5.3,0s4.3-0.1,6.4-0.1
				c2.1-0.1,4-0.1,5.7-0.3c1.7-0.1,2.8-0.1,3.4-0.3c0.1,0,0.3,0,0.4-0.1s0.4-0.1,0.6-0.1c0.3-0.1,0.4-0.1,0.7-0.3
				c0.1-0.1,0.4-0.1,0.6-0.1c0.9,0,1.8,0,2.8,0.1c1.1,0,1.7,0.1,2,0.1c1,0.1,1.7,0.6,1.8,1c0.1,0.6-0.1,1.1-0.9,2
				c-0.1,0.3-0.4,0.4-0.6,0.6c-0.1,0.1-0.4,0.3-0.6,0.4c-0.3,0.1-0.6,0.4-0.7,0.6c-0.3,0.1-0.6,0.4-0.9,0.7
				c-1.6,1.3-3.3,2.7-5.3,4.1C108.9,49.7,106.8,51,104.5,52.3 M105.3,70.8c1,0,2,0,3,0s1.8,0,2.6,0c0.9,0,1.6-0.1,2.1-0.1
				s1.1,0,1.6,0c1.3,0,2.4,0,3.3-0.1c1-0.1,1.6-0.1,1.8-0.3c0.3,0,0.6-0.1,0.9-0.3c0.3-0.1,0.7-0.3,1.1-0.3c0.3-0.1,0.7-0.1,1-0.3
				c0.3-0.1,0.7-0.1,1.1-0.3c1.6-0.1,2.8-0.1,4.1-0.1c1.3,0,2.6,0.1,3.7,0.3c1,0.1,1.7,0.4,2.3,0.9c0.6,0.4,0.9,1,0.9,1.6
				c0,0.7-0.3,1.1-1,1.4c-0.7,0.3-1.6,0.4-2.6,0.4c-1.3,0-2.6,0-4-0.1c-1.4,0-2.7-0.1-4.1-0.1c-1.4,0-2.8-0.1-4.3-0.1
				c-1.4,0-2.7,0-3.8-0.1c-1.7,0-4,0-6.8,0.1c-2.8,0-5.7,0.1-8.7,0.1c-2.8,0.1-5.7,0.3-8.3,0.3c-2.6,0.1-4.6,0.3-5.7,0.4
				c-0.4,0.1-0.9,0.1-1.3,0.3c-0.4,0.1-0.7,0.1-1.1,0.3s-0.9,0.1-1.1,0.3c-0.4,0.1-0.9,0.1-1.3,0.3c-0.7,0.1-1.4,0.3-2,0.1
				c-0.7,0-1.6-0.1-2.6-0.4c-0.9-0.1-1.8-0.4-3-0.9c-1.1-0.4-2.1-0.7-3-1.1c-1.8-0.9-2.6-1.6-2.1-2c0.4-0.4,1.7-0.6,3.6-0.4
				c1.6,0.1,3.3,0.3,5.4,0.4c2,0.1,4.8,0.3,8.4,0.3c1.8,0,4.3,0,7,0c2.7,0,5.5,0,8.3-0.1v-4.8c0-0.4-0.1-1-0.3-1.7
				c-0.1-0.7-0.4-1.1-0.9-1.4s-1-0.6-1.6-0.9c-0.6-0.3-1.3-0.6-2.1-0.7c-0.9-0.1-1.1-0.4-0.9-1c0.3-0.6,0.9-0.9,1.7-0.9
				s2.1,0.1,3.7,0.3c1.6,0.1,2.8,0.4,3.8,0.7c0.4,0.1,0.7,0.4,0.9,0.7s0.3,0.7,0.1,1.1c-0.1,0.3-0.3,0.9-0.3,1.4s0,1.1,0,1.7v5.3
				H105.3z"/>
			<path fill="#5c4e46" d="M312.4,47.2c0.9,0.4,2,0.9,3.3,1.4c1.4,0.6,2.7,1.1,4.1,1.7c1.4,0.6,2.7,1.1,4,1.6c1.1,0.4,2,0.7,2.6,1
				c0.4,0.1,0.9,0.3,1.1,0.3c0.3,0.1,0.7,0.1,1,0.1c0.3,0,0.6,0,0.9,0s0.6,0,0.9,0c0.3,0,0.6,0.1,1,0.3c0.4,0.1,0.7,0.3,1.1,0.4
				c0.9,0.4,1.8,0.9,2.8,1.6c1,0.6,2,1.3,2.7,1.8c0.7,0.7,1.1,1.3,1.3,2c0.1,0.6,0,1-0.3,1.4c-0.3,0.3-0.9,0.6-1.7,0.4
				c-0.9,0-1.7-0.3-2.8-0.9c-1-0.4-2.6-1.3-4.7-2.3c-2.1-1-4.4-2.1-6.7-3.3c-2.4-1.1-4.7-2.1-6.8-3.3c-2.3-1-4-1.8-5.1-2.4
				c-3.1,3.1-6.7,5.8-10.7,8c-4,2.3-7.8,4-11.5,5.1c-2.1,0.7-3.4,0.9-3.8,0.4c-0.4-0.4-0.3-0.7,0.6-1c2-0.7,4.3-1.7,6.7-3
				c2.4-1.3,4.8-2.7,7.1-4.6c2.4-1.7,4.6-3.7,6.7-5.8c2-2.1,3.7-4.4,5.1-6.8c0.1-0.3,0.3-0.7,0.3-1.1s-0.1-0.9-0.6-1.3
				c-0.3-0.3-0.7-0.6-1.4-0.9c-0.7-0.3-1.4-0.6-2.3-0.9c-0.9-0.3-1.1-0.6-0.9-1.1c0.3-0.4,1.1-0.7,2.6-0.6c1,0.1,2.1,0.4,3.6,0.7
				s2.6,0.7,3.7,1.4c0.6,0.4,1,0.7,1.1,1.1c0.1,0.4,0.1,0.7,0.1,1.3c0,0.4-0.1,0.9-0.4,1.1c-0.3,0.4-0.4,0.7-0.7,1.1
				c-0.6,0.9-1.1,1.7-1.7,2.4C313.7,45.6,313.1,46.3,312.4,47.2 M315.4,74.2v12.9c0,2.4,0,4.7-0.1,6.8s-0.3,3.8-0.6,5.4
				c-0.1,1.6-0.4,2.7-0.9,3.7c-0.3,0.9-0.7,1.3-1.1,1.3c-0.4,0-0.7-0.3-0.9-1.1c-0.3-0.9-0.4-1.8-0.4-3.1c-0.1-1.3-0.3-2.6-0.3-4.1
				c0-1.6,0-3,0-4.3V74.6c-2.8,0-5.5,0.1-8.3,0.3c-2.7,0.1-4.6,0.3-5.8,0.4c-0.4,0.1-0.9,0.1-1.3,0.3c-0.4,0.1-0.7,0.1-1.1,0.3
				c-0.3,0.1-0.7,0.1-1.1,0.3c-0.4,0.1-0.7,0.1-1.3,0.3c-0.7,0.1-1.4,0.1-2.1,0.1c-0.7,0-1.6-0.1-2.6-0.4c-0.9-0.1-1.8-0.4-3-0.9
				c-1.1-0.4-2.1-0.9-3-1.1c-2-0.9-2.7-1.4-2.3-1.8c0.4-0.4,1.6-0.6,3.6-0.4c1.6,0.1,3.4,0.3,5.4,0.4c2,0.1,4.8,0.1,8.3,0.3
				c2,0,4.3,0.1,7.1,0.1c2.7,0,5.4,0,8.3-0.1c2.7,0,5.3-0.1,7.5-0.1c2.3,0,3.8,0,4.8-0.1c1.3,0,2.3,0,3.3-0.1c1-0.1,1.6-0.1,1.8-0.3
				c0.3,0,0.6-0.1,0.9-0.3s0.7-0.3,1-0.3c0.3-0.1,0.7-0.1,1.1-0.3s0.7-0.1,1.1-0.3c1.4-0.1,2.8-0.1,4.1-0.1s2.6,0.1,3.7,0.3
				c1,0.1,1.7,0.4,2.3,0.9c0.6,0.4,0.9,0.9,0.9,1.4c0,0.7-0.3,1.1-1,1.4c-0.7,0.3-1.4,0.4-2.4,0.3c-1.3,0-2.6,0-4-0.1
				c-1.4,0-2.7-0.1-4.1-0.1s-2.7-0.1-4.1-0.1c-1.4,0-2.6,0-3.8-0.1c-1.3,0-2.7,0-4.3,0C319.1,74.2,317.4,74.2,315.4,74.2"/>
			<path fill="#5c4e46" d="M380.4,16.4v19.5c0,2.8-0.1,5.3-0.6,7.5c-0.4,2.1-1,3.3-1.8,3.3c-0.3,0-0.6-0.1-0.9-0.7s-0.4-1.3-0.4-2
				c-0.1-0.9-0.3-1.7-0.3-2.6c0-1,0-1.8,0-2.7V16.7c0-1.6-0.1-2.7-0.3-3.4c-0.1-0.7-0.6-1.3-1.1-1.7c-0.7-0.4-1.7-1-2.7-1.4
				c-1.1-0.4-2.1-0.7-3.1-1c-0.9-0.1-1.1-0.4-0.9-1c0.3-0.6,0.9-0.7,1.8-0.7c0.7,0,1.4,0,2.3,0.1s1.8,0.3,2.8,0.4
				c1,0.1,2,0.3,2.8,0.6c0.9,0.1,1.7,0.4,2.3,0.6c0.4,0.1,0.7,0.4,1,0.7s0.3,0.7,0.1,1.1c-0.3,0.9-0.4,1.7-0.6,2.6
				C380.4,14.6,380.4,15.4,380.4,16.4 M376,70.8V60.1l-22.3,0.1v10.7L376,70.8z M380.1,53.4v15.2c0,2.1-0.1,3.8-0.6,5.1
				c-0.4,1.3-1,2-2,2c-0.6,0-1-0.3-1.1-0.9c-0.3-0.6-0.4-1.1-0.4-1.7l-22.3,0.1c0,0,0,0.3-0.1,0.6c0,0.3-0.1,0.7-0.3,1.1
				c-0.1,0.4-0.4,0.7-0.7,1.1c-0.3,0.3-0.7,0.4-1.1,0.4c-0.7,0-1.3-0.4-1.6-1.4c-0.3-0.9-0.4-2.6-0.4-5V56.1c0-0.4,0-1-0.3-1.7
				c-0.1-0.6-0.4-1.1-0.7-1.4c-0.4-0.3-1.1-0.6-1.8-1c-0.7-0.3-1.6-0.6-2.4-0.7c-0.9-0.1-1.1-0.4-0.9-1c0.3-0.4,0.7-0.7,1.7-0.7
				c0.4,0,1,0,1.7,0.1c0.7,0.1,1.4,0.1,2.3,0.3c0.9,0.1,1.6,0.3,2.3,0.4c0.7,0.1,1.4,0.3,1.8,0.4c0.3,0.1,0.6,0.4,0.9,0.6
				c0.1,0.3,0.3,0.6,0,1.1c-0.1,0.3-0.3,0.7-0.3,1.3s0,1.1,0,1.7v2l22.3-0.1v-3.6c0-0.4-0.1-1-0.3-1.6s-0.4-1.1-0.9-1.4
				s-1-0.6-1.8-1c-0.7-0.3-1.6-0.6-2.4-0.7c-0.9-0.1-1.1-0.4-0.9-1c0.3-0.4,0.9-0.7,1.7-0.7c0.4,0,1,0,1.7,0.1
				c0.7,0.1,1.4,0.1,2.3,0.3c0.9,0.1,1.6,0.3,2.3,0.4c0.7,0.1,1.3,0.3,1.8,0.4c0.3,0.1,0.6,0.4,0.9,0.7c0.3,0.3,0.3,0.7,0.1,1.1
				c-0.1,0.3-0.3,0.9-0.3,1.4C380.3,52.4,380.1,53,380.1,53.4 M347,19.3c-1.4,0-2.7,0.3-4,0.9c-1.3,0.6-2.3,1.3-3.3,2.3
				c-1,1-1.7,2-2.3,3.3c-0.6,1.3-0.9,2.6-0.9,4c0,1.4,0.3,2.8,0.9,4c0.6,1.3,1.3,2.3,2.3,3.3c1,1,2.1,1.7,3.3,2.1
				c1.3,0.6,2.6,0.7,4,0.7s2.7-0.3,4-0.7c1.3-0.6,2.4-1.3,3.3-2.1c1-0.9,1.7-2,2.3-3.3c0.6-1.3,0.9-2.6,0.9-4c0-1.4-0.3-2.7-0.9-4
				c-0.6-1.3-1.3-2.4-2.3-3.3c-1-1-2-1.7-3.3-2.3C349.7,19.6,348.4,19.3,347,19.3 M345.3,17C345.3,17,345.3,16.8,345.3,17
				c0.1-0.1,0.1-0.1,0.1-0.3c0-0.1,0-0.4-0.1-0.7c-0.1-0.4-0.6-0.7-1.3-1c-0.7-0.3-1-0.7-0.7-1.1c0.3-0.4,0.7-0.7,1.7-0.7
				c0.6,0,1.4,0.1,2.4,0.3s1.6,0.3,2.1,0.4c0.3,0.1,0.4,0.3,0.6,0.4c0.1,0.1,0.1,0.4,0,0.7c-0.1,0.3-0.1,0.6-0.3,0.9
				c0,0.3-0.1,0.6-0.1,0.7V17c3.7,0.4,6.7,2,9,4.4s3.6,5.3,3.6,8.5c0,1.7-0.4,3.4-1.1,5c-0.7,1.6-1.8,3-3.1,4.1s-3,2-4.8,2.7
				c-1.8,0.7-3.8,1-6,1c-2.1,0-4.1-0.3-6-1c-1.8-0.7-3.4-1.6-4.7-2.7s-2.4-2.6-3.1-4.1c-0.7-1.6-1.1-3.3-1.1-5
				c0-3.4,1.3-6.4,3.7-8.8C338.2,18.7,341.3,17.3,345.3,17"/>
			<path fill="#5c4e46" d="M415.7,27.9c-1.7,0-3.3,0.3-4.7,1c-1.4,0.7-2.7,1.6-3.7,2.6c-1.1,1.1-2,2.4-2.6,3.8
				c-0.6,1.4-0.9,3-0.9,4.7c0,1.7,0.3,3.3,0.9,4.7c0.6,1.4,1.4,2.7,2.6,3.8c1,1.1,2.3,2,3.7,2.6c1.4,0.6,3,0.9,4.7,0.9
				s3.3-0.3,4.7-0.9c1.4-0.6,2.7-1.4,3.8-2.6c1-1.1,1.8-2.3,2.6-3.8c0.6-1.4,1-3,1-4.7c0-1.6-0.3-3.1-1-4.7
				c-0.7-1.4-1.4-2.7-2.6-3.8c-1.1-1.1-2.4-2-3.8-2.6C419,28.2,417.4,27.9,415.7,27.9 M414,25.7c0-0.1,0-0.1,0.1-0.1v-0.1
				c0,0,0,0,0-0.1c0-0.1,0-0.4-0.1-0.9c-0.1-0.4-0.6-0.7-1.3-1.1c-0.7-0.3-1-0.7-0.7-1.1s0.9-0.7,1.7-0.7c0.6,0,1.3,0.1,2.3,0.3
				c0.9,0.1,1.6,0.3,2,0.4c0.3,0.1,0.6,0.3,0.7,0.4c0.1,0.1,0.1,0.4,0,0.7c0,0.1-0.1,0.3-0.1,0.4c0,0.1-0.1,0.3-0.1,0.4
				c0,0.1-0.1,0.3-0.1,0.4c0,0.1,0,0.3,0,0.3v0.4c0,0.1,0,0.1,0.1,0.3c2.1,0.3,4,0.9,5.7,1.7c1.7,0.9,3.3,1.8,4.6,3.1
				c1.3,1.3,2.3,2.7,3,4.4s1.1,3.4,1.1,5.3c0,2-0.4,3.8-1.3,5.5c-0.9,1.7-2.1,3.3-3.7,4.7c-1.6,1.3-3.3,2.3-5.4,3.1
				c-2.1,0.7-4.3,1.1-6.7,1.1s-4.6-0.4-6.7-1.1c-2-0.7-3.8-1.8-5.4-3.1c-1.6-1.3-2.7-2.8-3.6-4.7c-0.9-1.7-1.3-3.6-1.3-5.5
				s0.4-3.7,1.1-5.5c0.7-1.7,1.8-3.3,3.1-4.6c1.3-1.3,3-2.3,4.8-3.1C409.7,26.2,411.9,25.8,414,25.7 M419.5,71.8c1.7,0,3.3,0,4.7,0
				c1.4,0,2.4,0,3.1,0c1.3,0,2.4,0,3.3-0.1c0.9-0.1,1.6-0.1,1.8-0.3c0.3,0,0.6-0.1,0.9-0.3c0.3-0.1,0.7-0.3,1.1-0.3
				c0.3-0.1,0.7-0.1,1.1-0.3s0.7-0.1,1.1-0.3c1.4-0.1,2.8-0.1,4.1-0.1s2.6,0.1,3.8,0.3c0.9,0.1,1.6,0.4,2.1,0.9
				c0.6,0.4,0.9,0.9,0.9,1.4c0,0.6-0.3,1.1-1,1.4c-0.7,0.3-1.4,0.4-2.4,0.3c-1.3,0-2.6,0-4-0.1c-1.4,0-2.7-0.1-4.1-0.1
				c-1.4,0-2.7-0.1-4.1-0.1s-2.7,0-3.8-0.1c-1.7,0-3.8,0-6.4,0s-5.1,0-7.7,0.1c-2.6,0-5.1,0.1-7.4,0.3s-4.1,0.3-5.3,0.4
				c-0.4,0.1-0.9,0.1-1.3,0.3c-0.4,0.1-0.7,0.1-1.1,0.3c-0.3,0.1-0.7,0.1-1.1,0.3s-0.7,0.1-1.3,0.3c-0.7,0.1-1.4,0.1-2.1,0.1
				c-0.7,0-1.6-0.1-2.6-0.4c-0.9-0.1-1.8-0.4-3-0.9c-1.1-0.4-2.1-0.9-3-1.1c-2-0.9-2.7-1.4-2.3-1.8s1.6-0.6,3.4-0.4
				c1.6,0.1,3.4,0.3,5.4,0.4c2,0.1,4.8,0.1,8.4,0.1c2,0,4.1,0.1,6.7,0.1h7.4v-9.5c0-0.4-0.1-1-0.3-1.6s-0.4-1-0.9-1.3
				c-0.4-0.1-0.9-0.4-1.4-0.6c-0.6-0.1-1.3-0.3-2-0.4c-0.9,0-1.1-0.4-0.9-1c0.3-0.6,0.7-0.9,1.7-0.9c0.9,0,2,0,3.7,0.1
				c1.6,0.1,2.8,0.3,3.8,0.4c0.3,0.1,0.6,0.3,0.9,0.6c0.1,0.3,0.3,0.7,0.1,1.1c-0.1,0.3-0.1,0.7-0.3,1.3c0,0.6-0.1,1.1-0.1,1.6v10
				H419.5z"/>
			<path fill="#5c4e46" d="M495,38.3v44.1c0,2.4,0,4.7-0.1,6.8c-0.1,2.1-0.3,3.8-0.4,5.4c-0.1,1.6-0.4,2.7-0.7,3.7
				c-0.3,0.9-0.7,1.3-1.3,1.3c-0.4,0-0.7-0.3-0.9-1.1c-0.3-0.9-0.4-1.8-0.4-3.1c-0.1-1.3-0.1-2.6-0.1-4.1s0-3,0-4.3V38.9
				c0-1.6-0.1-2.7-0.3-3.4c-0.1-0.7-0.6-1.3-1.1-1.7c-0.7-0.4-1.7-1-2.7-1.4c-1.1-0.4-2.1-0.7-3.1-0.9c-0.9-0.1-1.1-0.4-0.9-0.9
				c0.3-0.6,0.9-0.7,1.8-0.7c0.7,0,1.4,0,2.3,0.1c0.9,0.1,1.8,0.3,2.8,0.4c1,0.1,2,0.3,2.8,0.6c0.9,0.1,1.7,0.4,2.3,0.6
				c0.4,0.1,0.7,0.4,1,0.7c0.3,0.3,0.3,0.7,0.1,1.1c-0.3,0.9-0.4,1.7-0.6,2.6C495.1,36.6,495,37.5,495,38.3 M460.5,47.6
				c-1.6,0-3,0.3-4.4,1c-1.4,0.6-2.6,1.4-3.6,2.4s-1.7,2.3-2.3,3.7c-0.6,1.4-0.9,2.8-0.9,4.6c0,1.6,0.3,3.1,0.9,4.4
				c0.6,1.4,1.3,2.6,2.3,3.7c1,1,2.1,1.8,3.6,2.4c1.4,0.6,2.8,0.9,4.4,0.9s3-0.3,4.3-0.9c1.4-0.6,2.6-1.4,3.6-2.4s1.8-2.3,2.4-3.7
				s0.9-2.8,0.9-4.4c0-1.6-0.3-3.1-0.9-4.6c-0.6-1.4-1.4-2.6-2.4-3.7c-1-1-2.1-1.8-3.6-2.4C463.5,47.9,462.1,47.6,460.5,47.6
				 M458.7,45.3c0-0.1,0-0.1,0.1-0.3c0-0.1,0-0.1,0.1-0.3c0-0.1,0-0.4-0.1-0.9c-0.1-0.4-0.6-0.7-1.3-1c-0.7-0.3-1-0.7-0.7-1.1
				c0.3-0.4,0.7-0.7,1.7-0.7c0.6,0,1.4,0,2.3,0.1c1,0.1,1.7,0.3,2.1,0.4c0.3,0.1,0.4,0.3,0.6,0.4c0.1,0.1,0.1,0.4,0.1,0.7
				c0,0.1-0.1,0.3-0.1,0.4c0,0.1-0.1,0.3-0.1,0.4c0,0.1,0,0.3,0,0.4c0,0.1,0,0.1,0,0.3v0.4c0,0.1,0,0.3,0.1,0.3
				c3.8,0.6,7.1,2.1,9.7,4.7s3.8,5.7,3.8,9.4c0,2-0.4,3.8-1.3,5.5c-0.9,1.7-2,3.1-3.4,4.6c-1.4,1.3-3.1,2.3-5.1,3
				c-2,0.7-4.1,1.1-6.4,1.1c-2.3,0-4.4-0.4-6.4-1.1c-2-0.7-3.7-1.7-5.1-3c-1.4-1.3-2.6-2.8-3.4-4.6c-0.9-1.7-1.1-3.6-1.1-5.5
				c0-1.8,0.3-3.7,1-5.3c0.7-1.6,1.7-3.1,2.8-4.4c1.3-1.3,2.8-2.3,4.6-3C454.7,46,456.5,45.5,458.7,45.3"/>
		</g>
	</g>
	<g>
		<path fill="#5c4e46" d="M12.5,148.2V140h8.2v8.2H12.5z M26.2,156.4c-1.3-0.3-2.5-0.8-3.7-1.7c-1.2-0.8-2.1-1.7-2.5-2.5c-0.5,0.9-1.4,1.7-2.5,2.6
			c-1.2,0.8-2.4,1.4-3.6,1.6l-0.9-1.2c1.7-0.2,3.2-0.9,4.4-2c1.3-1.1,1.9-2.1,1.9-3.2l0-0.5h1.4v0.5c0,1.1,0.6,2.1,1.9,3.2
			c1.3,1.1,2.8,1.7,4.4,2L26.2,156.4z M19.3,141.2h-5.4v5.7h5.4V141.2z M25.5,145.7v5h-1.4v-11.8h1.4v5.5h2.7v1.2H25.5z"/>
		<path fill="#5c4e46" d="M69.3,139.6c-0.1,2.8-1.4,5.1-4.1,6.9l-1-0.8c2.2-1.4,3.4-3,3.7-4.9H65v-1.2H69.3z M66.9,156.5v-4.4h9.5v-1.8h-9.5v-1.2
			h10.9v4.2h-9.6v1.9h10v1.2H66.9z M74.3,139.6c-0.1,3.5-1.4,6.3-4,8.5l-1.1-0.8c2.3-1.6,3.6-3.8,3.8-6.5H70v-1.2H74.3z M77.8,144.6
			v3.5h-1.4v-9.2h1.4v4.4h2.7v1.2H77.8z"/>
		<path fill="#5c4e46" d="M132.5,153.8H116v-1.2h16.6V153.8z M124.2,143.6c-0.4,0.9-1.3,1.9-2.6,2.9c-1.3,1-2.6,1.6-4.1,2l-0.9-1.1
			c2.1-0.4,3.8-1.3,5-2.5c1.2-1.2,1.9-2.4,1.9-3.5v-0.9h1.4v0.9c0,1.1,0.6,2.3,1.9,3.5c1.3,1.2,2.9,2.1,5,2.5l-1,1.1
			c-1.4-0.4-2.8-1.1-4.1-2.1C125.5,145.4,124.7,144.5,124.2,143.6z"/>
		<path fill="#5c4e46" d="M169.8,152.8v-7.1h6.4v-4h-6.4v-1.2h7.8v6.4h-6.4v4.7c2.9,0,4.8,0,5.7,0c0.8,0,1.6-0.1,2.2-0.2l0.2,1.1
			C177.8,152.7,174.6,152.8,169.8,152.8z M181.7,156.8v-9.3h-3.2v-1.2h3.2v-7.4h1.4v17.8H181.7z"/>
		<path fill="#5c4e46" d="M228.2,153.4v-4.1h-7.7V148H237v1.2h-7.5v4.1H228.2z M223.2,156.2v-5.3h1.4v4h10.1v1.2H223.2z M228.7,146.4
			c-1.8,0-3.1-0.3-4.1-1c-1-0.7-1.5-1.5-1.5-2.6c0-1.1,0.5-1.9,1.5-2.6c1-0.7,2.3-1,4.1-1c1.8,0,3.1,0.3,4.1,1
			c1,0.7,1.5,1.5,1.5,2.6c0,1-0.5,1.9-1.5,2.6C231.9,146,230.5,146.4,228.7,146.4z M228.7,140.4c-1.3,0-2.3,0.2-3,0.6
			c-0.7,0.4-1.1,1-1.1,1.7c0,0.7,0.4,1.3,1.1,1.7c0.7,0.4,1.7,0.7,3,0.7c1.3,0,2.3-0.2,3-0.7c0.7-0.4,1.1-1,1.1-1.7
			c0-0.7-0.4-1.3-1.1-1.7C231.1,140.6,230.1,140.4,228.7,140.4z"/>
		<path fill="#5c4e46" d="M282.2,149.8c-0.8,1.6-2.1,2.4-3.8,2.4c-1.4,0-2.4-0.5-3.3-1.6c-0.8-1.1-1.2-2.6-1.2-4.4c0-1.9,0.4-3.4,1.2-4.4
			c0.8-1.1,1.9-1.6,3.3-1.6c1.7,0,3,0.8,3.8,2.4h3.8v-3.6h1.4v17.8H286v-7H282.2z M278.4,141.4c-0.9,0-1.7,0.4-2.3,1.3
			c-0.6,0.9-0.9,2-0.9,3.5c0,1.5,0.3,2.6,0.9,3.5c0.6,0.9,1.3,1.3,2.3,1.3c0.9,0,1.7-0.4,2.3-1.3c0.6-0.9,0.9-2.1,0.9-3.5
			c0-1.5-0.3-2.7-0.9-3.5C280.1,141.8,279.3,141.4,278.4,141.4z M282.6,148.6h3.4v-4.8h-3.4c0.2,0.7,0.3,1.5,0.3,2.4
			C282.9,147.1,282.8,147.9,282.6,148.6z"/>
		<path fill="#5c4e46" d="M325.1,142.5v-1.2h3.9v-2.2h1.4v2.2h3.9v1.2H325.1z M329.7,149.2c-1.2,0-2.1-0.3-2.8-0.9c-0.7-0.6-1.1-1.3-1.1-2.1
			c0-0.9,0.4-1.6,1.1-2.1c0.7-0.6,1.7-0.8,2.8-0.8c1.2,0,2.1,0.3,2.8,0.8c0.7,0.6,1.1,1.3,1.1,2.1c0,0.9-0.4,1.6-1.1,2.1
			C331.9,148.9,330.9,149.2,329.7,149.2z M329.7,144.4c-0.7,0-1.3,0.2-1.8,0.5c-0.5,0.3-0.7,0.8-0.7,1.3c0,0.5,0.2,1,0.7,1.3
			c0.5,0.3,1.1,0.5,1.8,0.5c0.7,0,1.3-0.2,1.8-0.5c0.5-0.3,0.8-0.8,0.8-1.3c0-0.5-0.3-1-0.8-1.3
			C331.1,144.6,330.5,144.4,329.7,144.4z M334.3,156.6c-2,0-3.4-0.3-4.5-0.8c-1-0.6-1.5-1.3-1.5-2.4c0-1,0.5-1.8,1.5-2.4
			c1-0.6,2.5-0.8,4.5-0.8c1.9,0,3.4,0.3,4.5,0.8c1,0.6,1.5,1.3,1.5,2.4c0,1-0.5,1.8-1.5,2.3C337.7,156.3,336.2,156.6,334.3,156.6z
			 M334.3,151.4c-3,0-4.5,0.7-4.5,2c0,1.4,1.5,2,4.5,2c3,0,4.5-0.7,4.5-2C338.8,152.1,337.3,151.4,334.3,151.4z M338.8,149.9v-4.3
			h-2.1v3.8h-1.4v-10.1h1.4v5h2.1v-5.4h1.4v10.9H338.8z"/>
		<path fill="#5c4e46" d="M382.8,152.3c-1.4,0-2.5-0.5-3.3-1.6c-0.8-1.1-1.3-2.6-1.3-4.4c0-1.9,0.4-3.4,1.2-4.5c0.8-1.1,1.9-1.6,3.3-1.6
			c1.4,0,2.5,0.5,3.3,1.6c0.8,1.1,1.3,2.6,1.3,4.5c0,1.9-0.4,3.4-1.3,4.5C385.2,151.7,384.1,152.3,382.8,152.3z M382.8,141.3
			c-0.9,0-1.7,0.4-2.3,1.3c-0.6,0.9-0.9,2.1-0.9,3.5c0,1.5,0.3,2.6,0.9,3.5c0.6,0.9,1.4,1.3,2.3,1.3c0.9,0,1.7-0.4,2.3-1.3
			c0.6-0.9,0.9-2.1,0.9-3.5c0-1.5-0.3-2.6-0.9-3.5C384.5,141.8,383.7,141.3,382.8,141.3z M390.6,156.8v-17.8h1.4v17.8H390.6z"/>
		<path fill="#5c4e46" d="M434.7,152.3c-1.4,0-2.4-0.5-3.3-1.6c-0.8-1.1-1.2-2.6-1.2-4.4c0-1.9,0.4-3.4,1.2-4.5c0.8-1.1,1.9-1.6,3.3-1.6
			c1.4,0,2.5,0.5,3.3,1.6c0.8,1.1,1.2,2.6,1.2,4.4c0,1.9-0.4,3.4-1.2,4.4C437.2,151.7,436.1,152.3,434.7,152.3z M434.7,141.4
			c-1,0-1.7,0.4-2.3,1.3c-0.6,0.9-0.9,2-0.9,3.5c0,1.5,0.3,2.6,0.9,3.5c0.6,0.9,1.3,1.3,2.3,1.3c0.9,0,1.7-0.4,2.3-1.3
			c0.6-0.9,0.9-2.1,0.9-3.5c0-1.5-0.3-2.7-0.9-3.5C436.4,141.8,435.6,141.4,434.7,141.4z M443.2,150.2v6.6h-1.4v-17.8h1.4v4h3v1.2
			h-3v4.8h3v1.2H443.2z"/>
		<path fill="#5c4e46" d="M491.4,140.6c0,2.5-0.8,4.7-2.1,6.8c-1.4,2.1-3.3,3.8-5.9,5.2l-1.1-1.1c1.9-0.8,3.6-2,5-3.7c1.4-1.7,2.3-3.7,2.6-6H483
			v-1.2H491.4z M494.9,156.8v-17.8h1.4v17.8H494.9z"/>
	</g>
</g>
<rect fill="none" width="518" height="160"/>
</svg>
