<?xml version="1.0" encoding="utf-8"?>
<!-- Generator: Adobe Illustrator 24.0.1, SVG Export Plug-In . SVG Version: 6.00 Build 0)  -->
<svg version="1.1" id="Layer_1" xmlns="http://www.w3.org/2000/svg" xmlns:xlink="http://www.w3.org/1999/xlink" x="0px" y="0px"
	 viewBox="0 0 52 52" style="enable-background:new 0 0 52 52;" xml:space="preserve">
<style type="text/css">
	.st0{fill:#E9B8AA;}
	.st1{fill:#FFFFFF;}
</style>
<circle class="st0" cx="26" cy="26" r="26"/>
<g>
	<path class="st1" d="M10.8,21.1h-4v-2.5h11.1v2.5h-4.1v12.1h-2.9C10.8,33.2,10.8,21.1,10.8,21.1z"/>
	<path class="st1" d="M18.8,26c0-4.7,2.6-7.5,6.5-7.5s6.5,2.7,6.5,7.5s-2.6,7.5-6.5,7.5S18.8,30.7,18.8,26z M28.9,26
		c0-3.1-1.4-5-3.5-5s-3.5,1.9-3.5,5s1.4,5.1,3.5,5.1S28.9,29.1,28.9,26z"/>
	<path class="st1" d="M34.7,18.8h4.8c3.2,0,5.7,1.1,5.7,4.5c0,3.3-2.5,4.8-5.6,4.8h-2v5.2h-2.9V18.8z M39.3,25.9
		c2,0,2.9-0.9,2.9-2.5c0-1.7-1.1-2.3-3-2.3h-1.7v4.8H39.3z"/>
</g>
</svg>
