<?xml version="1.0" encoding="utf-8"?>
<!-- Generator: Adobe Illustrator 21.0.2, SVG Export Plug-In . SVG Version: 6.00 Build 0)  -->
<svg version="1.1" id="Layer_1" xmlns="http://www.w3.org/2000/svg" xmlns:xlink="http://www.w3.org/1999/xlink" x="0px" y="0px"
	 viewBox="0 0 52 52" style="enable-background:new 0 0 52 52;" xml:space="preserve">
<style type="text/css">
	.st0{fill:#7195AF;}
	.st1{fill:#FFFFFF;}
</style>
<circle class="st0" cx="26" cy="26" r="25"/>
<g>
	<path class="st1" d="M11.1,21.1H7v-2.5h11.3v2.5h-4.2v12.3h-3V21.1z"/>
	<path class="st1" d="M19.3,26c0-4.8,2.7-7.6,6.6-7.6s6.6,2.8,6.6,7.6c0,4.8-2.7,7.7-6.6,7.7S19.3,30.8,19.3,26z M29.6,26
		c0-3.2-1.4-5.1-3.6-5.1c-2.2,0-3.6,1.9-3.6,5.1c0,3.2,1.4,5.2,3.6,5.2C28.2,31.2,29.6,29.2,29.6,26z"/>
	<path class="st1" d="M35.5,18.7h4.9c3.3,0,5.8,1.1,5.8,4.6c0,3.4-2.5,4.9-5.7,4.9h-2v5.3h-3V18.7z M40.2,25.9c2,0,3-0.9,3-2.6
		c0-1.7-1.1-2.3-3.1-2.3h-1.7v4.9H40.2z"/>
</g>
</svg>
