<?xml version="1.0" encoding="UTF-8" standalone="no"?>
<!-- Generator: Adobe Illustrator 21.0.2, SVG Export Plug-In . SVG Version: 6.00 Build 0)  -->

<svg
   xmlns:dc="http://purl.org/dc/elements/1.1/"
   xmlns:cc="http://creativecommons.org/ns#"
   xmlns:rdf="http://www.w3.org/1999/02/22-rdf-syntax-ns#"
   xmlns:svg="http://www.w3.org/2000/svg"
   xmlns="http://www.w3.org/2000/svg"
   xmlns:sodipodi="http://sodipodi.sourceforge.net/DTD/sodipodi-0.dtd"
   xmlns:inkscape="http://www.inkscape.org/namespaces/inkscape"
   version="1.1"
   id="Layer_1"
   x="0px"
   y="0px"
   viewBox="0 0 52 52"
   style="enable-background:new 0 0 52 52;"
   xml:space="preserve"
   sodipodi:docname="top-button.svg"
   inkscape:version="0.92.3 (2405546, 2018-03-11)"><metadata
   id="metadata19"><rdf:RDF><cc:Work
       rdf:about=""><dc:format>image/svg+xml</dc:format><dc:type
         rdf:resource="http://purl.org/dc/dcmitype/StillImage" /></cc:Work></rdf:RDF></metadata><defs
   id="defs17" /><sodipodi:namedview
   pagecolor="#ffffff"
   bordercolor="#666666"
   borderopacity="1"
   objecttolerance="10"
   gridtolerance="10"
   guidetolerance="10"
   inkscape:pageopacity="0"
   inkscape:pageshadow="2"
   inkscape:window-width="1600"
   inkscape:window-height="851"
   id="namedview15"
   showgrid="false"
   inkscape:zoom="6.4230769"
   inkscape:cx="-8.3156317"
   inkscape:cy="23.819112"
   inkscape:window-x="0"
   inkscape:window-y="0"
   inkscape:window-maximized="1"
   inkscape:current-layer="Layer_1" />
<style
   type="text/css"
   id="style2">
	.st0{fill:#7195AF;}
	.st1{fill:#FFFFFF;}
</style>
<circle
   class="st0"
   cx="26"
   cy="26"
   r="25"
   id="circle4" />
<g
   id="g12"
   transform="matrix(0.87290725,0,0,0.87290725,2.7806671,3.2607661)">
	<path
   class="st1"
   d="M 11.1,21.1 H 7 v -2.5 h 11.3 v 2.5 h -4.2 v 12.3 h -3 V 21.1 Z"
   id="path6"
   inkscape:connector-curvature="0"
   style="fill:#ffffff" />
	<path
   class="st1"
   d="m 19.3,26 c 0,-4.8 2.7,-7.6 6.6,-7.6 3.9,0 6.6,2.8 6.6,7.6 0,4.8 -2.7,7.7 -6.6,7.7 -3.9,0 -6.6,-2.9 -6.6,-7.7 z m 10.3,0 c 0,-3.2 -1.4,-5.1 -3.6,-5.1 -2.2,0 -3.6,1.9 -3.6,5.1 0,3.2 1.4,5.2 3.6,5.2 2.2,0 3.6,-2 3.6,-5.2 z"
   id="path8"
   inkscape:connector-curvature="0"
   style="fill:#ffffff" />
	<path
   class="st1"
   d="m 35.5,18.7 h 4.9 c 3.3,0 5.8,1.1 5.8,4.6 0,3.4 -2.5,4.9 -5.7,4.9 h -2 v 5.3 h -3 z m 4.7,7.2 c 2,0 3,-0.9 3,-2.6 0,-1.7 -1.1,-2.3 -3.1,-2.3 h -1.7 v 4.9 z"
   id="path10"
   inkscape:connector-curvature="0"
   style="fill:#ffffff" />
</g>
</svg>